Printline-Regular.ufo
<glyph name="exclam" format="2">
  <advance width="138"/>
  <unicode hex="0021"/>
  <outline>
    <contour>
      <point x="46.75" y="198" type="line"/>
      <point x="91" y="198" type="line"/>
      <point x="103.75" y="695" type="line"/>
      <point x="34" y="695" type="line"/>
    </contour>
    <contour>
      <point x="68.75" y="0" type="qcurve" smooth="yes"/>
      <point x="84.2566" y="0"/>
      <point x="107.125" y="19.4399"/>
      <point x="107.125" y="43.0625" type="qcurve" smooth="yes"/>
      <point x="107.125" y="66.6851"/>
      <point x="84.2566" y="85.75"/>
      <point x="68.75" y="85.75" type="qcurve" smooth="yes"/>
      <point x="53.2434" y="85.75"/>
      <point x="30" y="66.6851"/>
      <point x="30" y="43.0625" type="qcurve" smooth="yes"/>
      <point x="30" y="19.4399"/>
      <point x="53.2434" y="0"/>
    </contour>
  </outline>
</glyph>
<glyph name="numbersign" format="2">
  <advance width="528"/>
  <unicode hex="0023"/>
  <outline>
    <contour>
      <point x="90.5" y="0" type="line"/>
      <point x="145.25" y="0" type="line"/>
      <point x="227.25" y="700" type="line"/>
      <point x="171.5" y="700" type="line"/>
    </contour>
    <contour>
      <point x="294.5" y="0" type="line"/>
      <point x="349.25" y="0" type="line"/>
      <point x="431.25" y="700" type="line"/>
      <point x="376.5" y="700" type="line"/>
    </contour>
    <contour>
      <point x="44" y="454" type="line"/>
      <point x="498" y="454" type="line"/>
      <point x="498" y="498" type="line"/>
      <point x="44" y="498" type="line"/>
    </contour>
    <contour>
      <point x="30" y="228" type="line"/>
      <point x="474" y="228" type="line"/>
      <point x="474" y="272" type="line"/>
      <point x="30" y="272" type="line"/>
    </contour>
  </outline>
</glyph>
<glyph name="dollar" format="2">
  <advance width="367"/>
  <unicode hex="0024"/>
  <anchor x="196" y="700" name="top"/>
  <outline>
    <contour>
      <point x="159.785" y="-81" type="line"/>
      <point x="219.285" y="-81" type="line"/>
      <point x="219.285" y="19.5" type="line"/>
      <point x="159.785" y="19.5" type="line"/>
    </contour>
    <contour>
      <point x="159.785" y="688.5" type="line"/>
      <point x="219.285" y="688.5" type="line"/>
      <point x="219.285" y="789" type="line"/>
      <point x="159.785" y="789" type="line"/>
    </contour>
    <contour>
      <point x="190.951" y="-15" type="qcurve" smooth="yes"/>
      <point x="261.175" y="-15"/>
      <point x="337" y="86.1671"/>
      <point x="337" y="152.595" type="qcurve" smooth="yes"/>
      <point x="337" y="271.042"/>
      <point x="213.041" y="372.112" type="qcurve" smooth="yes"/>
      <point x="97.75" y="466.153"/>
      <point x="97.75" y="569.63" type="qcurve" smooth="yes"/>
      <point x="97.75" y="617.806"/>
      <point x="148.605" y="671"/>
      <point x="183.066" y="671" type="qcurve" smooth="yes"/>
      <point x="222.523" y="671"/>
      <point x="267.25" y="604.049"/>
      <point x="267.25" y="484" type="qcurve"/>
      <point x="322" y="484" type="line"/>
      <point x="322" y="591"/>
      <point x="257.757" y="715"/>
      <point x="186.106" y="715" type="qcurve" smooth="yes"/>
      <point x="124.681" y="715"/>
      <point x="43" y="622.758"/>
      <point x="43" y="556.942" type="qcurve" smooth="yes"/>
      <point x="43" y="442.682"/>
      <point x="169.973" y="330.475" type="qcurve" smooth="yes"/>
      <point x="282.25" y="231.219"/>
      <point x="282.25" y="142.352" type="qcurve" smooth="yes"/>
      <point x="282.25" y="101.065"/>
      <point x="235.049" y="29"/>
      <point x="190.862" y="29" type="qcurve" smooth="yes"/>
      <point x="139.404" y="29"/>
      <point x="84.75" y="132.675"/>
      <point x="84.75" y="251" type="qcurve"/>
      <point x="30" y="251" type="line"/>
      <point x="30" y="122"/>
      <point x="111.373" y="-15"/>
    </contour>
  </outline>
</glyph>
<glyph name="percent" format="2">
  <advance width="663"/>
  <unicode hex="0025"/>
  <outline>
    <contour>
      <point x="506.452" y="-15" type="qcurve" smooth="yes"/>
      <point x="564.274" y="-15"/>
      <point x="623" y="112"/>
      <point x="623" y="210" type="qcurve" smooth="yes"/>
      <point x="623" y="308"/>
      <point x="564.274" y="435"/>
      <point x="506.452" y="435" type="qcurve" smooth="yes"/>
      <point x="447.726" y="435"/>
      <point x="389" y="308"/>
      <point x="389" y="210" type="qcurve" smooth="yes"/>
      <point x="389" y="112"/>
      <point x="447.726" y="-15"/>
    </contour>
    <contour>
      <point x="506.8" y="32.75" type="qcurve" smooth="yes"/>
      <point x="473.2" y="32.75"/>
      <point x="446" y="135.943"/>
      <point x="446" y="210" type="qcurve" smooth="yes"/>
      <point x="446" y="284.057"/>
      <point x="473.2" y="387.25"/>
      <point x="506.8" y="387.25" type="qcurve" smooth="yes"/>
      <point x="540.4" y="387.25"/>
      <point x="566" y="285.271"/>
      <point x="566" y="210" type="qcurve" smooth="yes"/>
      <point x="566" y="134.729"/>
      <point x="540.4" y="32.75"/>
    </contour>
    <contour>
      <point x="157.452" y="305" type="qcurve" smooth="yes"/>
      <point x="215.274" y="305"/>
      <point x="274" y="432"/>
      <point x="274" y="530" type="qcurve" smooth="yes"/>
      <point x="274" y="628"/>
      <point x="215.274" y="755"/>
      <point x="157.452" y="755" type="qcurve" smooth="yes"/>
      <point x="98.7259" y="755"/>
      <point x="40" y="628"/>
      <point x="40" y="530" type="qcurve" smooth="yes"/>
      <point x="40" y="432"/>
      <point x="98.7259" y="305"/>
    </contour>
    <contour>
      <point x="159.067" y="352.75" type="qcurve" smooth="yes"/>
      <point x="124.767" y="352.75"/>
      <point x="97" y="455.943"/>
      <point x="97" y="530" type="qcurve" smooth="yes"/>
      <point x="97" y="604.056"/>
      <point x="124.767" y="707.25"/>
      <point x="159.067" y="707.25" type="qcurve" smooth="yes"/>
      <point x="193.367" y="707.25"/>
      <point x="219.5" y="605.271"/>
      <point x="219.5" y="530" type="qcurve" smooth="yes"/>
      <point x="219.5" y="454.729"/>
      <point x="193.367" y="352.75"/>
    </contour>
    <contour>
      <point x="189.125" y="-15" type="line"/>
      <point x="243.875" y="-15" type="line"/>
      <point x="473.875" y="750" type="line"/>
      <point x="418.125" y="750" type="line"/>
    </contour>
  </outline>
</glyph>
<glyph name="ampersand" format="2">
  <advance width="416"/>
  <unicode hex="0026"/>
  <outline>
    <contour>
      <point x="72.25" y="547.601" type="qcurve" smooth="yes"/>
      <point x="72.25" y="469.578"/>
      <point x="162.902" y="304.918"/>
      <point x="197.744" y="242" type="qcurve" smooth="yes"/>
      <point x="331.758" y="0" type="line"/>
      <point x="385.75" y="0" type="line"/>
      <point x="192.401" y="363.548" type="line" smooth="yes"/>
      <point x="128.044" y="484.523"/>
      <point x="126.903" y="555.506" type="qcurve" smooth="yes"/>
      <point x="124.798" y="660.998"/>
      <point x="192.947" y="660.998" type="qcurve" smooth="yes"/>
      <point x="262.5" y="660.998"/>
      <point x="262.5" y="551.846" type="qcurve" smooth="yes"/>
      <point x="262.5" y="479.19"/>
      <point x="198.933" y="387.179"/>
      <point x="144.011" y="343.719" type="qcurve" smooth="yes"/>
      <point x="92.6813" y="303.071"/>
      <point x="30" y="218.708"/>
      <point x="30" y="159.6" type="qcurve" smooth="yes"/>
      <point x="30" y="93.9529"/>
      <point x="105.739" y="-15"/>
      <point x="173.913" y="-15" type="qcurve" smooth="yes"/>
      <point x="268.575" y="-15"/>
      <point x="382.25" y="202.355"/>
      <point x="382.25" y="341" type="qcurve"/>
      <point x="327.5" y="341" type="line"/>
      <point x="327.5" y="157.742"/>
      <point x="222.394" y="29"/>
      <point x="174.738" y="29" type="qcurve" smooth="yes"/>
      <point x="132.603" y="29"/>
      <point x="84.75" y="104.059"/>
      <point x="84.75" y="152.217" type="qcurve" smooth="yes"/>
      <point x="84.75" y="207.012"/>
      <point x="147.248" y="276.195"/>
      <point x="183.864" y="310.417" type="qcurve" smooth="yes"/>
      <point x="209.163" y="333.913"/>
      <point x="255.733" y="382.474"/>
      <point x="317.25" y="476.298"/>
      <point x="317.25" y="543.715" type="qcurve" smooth="yes"/>
      <point x="317.25" y="610.397"/>
      <point x="258.33" y="705"/>
      <point x="195.651" y="705" type="qcurve" smooth="yes"/>
      <point x="132.058" y="705"/>
      <point x="72.25" y="611.962"/>
    </contour>
  </outline>
</glyph>
<glyph name="quotesingle" format="2">
  <advance width="113"/>
  <unicode hex="0027"/>
  <outline>
    <contour>
      <point x="47.625" y="500" type="qcurve"/>
      <point x="66.5" y="500" type="line"/>
      <point x="82.875" y="557.375"/>
      <point x="82.875" y="616.096" type="qcurve" smooth="yes"/>
      <point x="82.875" y="655"/>
      <point x="71.125" y="700"/>
      <point x="56.7639" y="700" type="qcurve" smooth="yes"/>
      <point x="41.75" y="700"/>
      <point x="30" y="651"/>
      <point x="30" y="618.638" type="qcurve" smooth="yes"/>
      <point x="30" y="557.375"/>
    </contour>
  </outline>
</glyph>
<glyph name="parenleft" format="2">
  <advance width="199"/>
  <unicode hex="0028"/>
  <outline>
    <contour>
      <point x="134.985" y="-50" type="qcurve"/>
      <point x="168.75" y="-50" type="line"/>
      <point x="84.75" y="105.805"/>
      <point x="84.75" y="345.915" type="qcurve" smooth="yes"/>
      <point x="84.75" y="586.871"/>
      <point x="168.75" y="750" type="qcurve"/>
      <point x="134.985" y="750" type="line"/>
      <point x="30" y="568.143"/>
      <point x="30" y="345.849" type="qcurve" smooth="yes"/>
      <point x="30" y="147.035"/>
    </contour>
  </outline>
</glyph>
<glyph name="parenright" format="2">
  <advance width="199"/>
  <unicode hex="0029"/>
  <outline>
    <contour>
      <point x="63.7647" y="-50" type="qcurve"/>
      <point x="30" y="-50" type="line"/>
      <point x="114" y="105.805"/>
      <point x="114" y="345.915" type="qcurve" smooth="yes"/>
      <point x="114" y="586.871"/>
      <point x="30" y="750" type="qcurve"/>
      <point x="63.7647" y="750" type="line"/>
      <point x="168.75" y="568.143"/>
      <point x="168.75" y="345.849" type="qcurve" smooth="yes"/>
      <point x="168.75" y="147.035"/>
    </contour>
  </outline>
</glyph>
<glyph name="asterisk" format="2">
  <advance width="347"/>
  <unicode hex="002A"/>
  <outline>
    <contour>
      <point x="134.102" y="452.389" type="line"/>
      <point x="153.802" y="574.024" type="line"/>
      <point x="59.7797" y="491.144" type="line"/>
      <point x="30.3152" y="552.068" type="line"/>
      <point x="150.875" y="600.947" type="line"/>
      <point x="30.4075" y="639.397" type="line"/>
      <point x="59.7797" y="700.13" type="line"/>
      <point x="153.802" y="617.25" type="line"/>
      <point x="134.102" y="738.885" type="line"/>
      <point x="202.396" y="738.885" type="line"/>
      <point x="182.781" y="617.773" type="line"/>
      <point x="286.671" y="700.283" type="line"/>
      <point x="316.118" y="639.397" type="line"/>
      <point x="192.785" y="600.947" type="line"/>
      <point x="316.21" y="552.068" type="line"/>
      <point x="286.671" y="490.991" type="line"/>
      <point x="182.781" y="573.501" type="line"/>
      <point x="202.396" y="452.389" type="line"/>
    </contour>
  </outline>
</glyph>
<glyph name="plus" format="2">
  <advance width="349"/>
  <unicode hex="002B"/>
  <outline>
    <contour>
      <point x="147.25" y="137" type="line"/>
      <point x="201.375" y="137" type="line"/>
      <point x="201.375" y="282.625" type="line"/>
      <point x="349" y="282.625" type="line"/>
      <point x="349" y="336.75" type="line"/>
      <point x="201.375" y="336.75" type="line"/>
      <point x="201.375" y="483" type="line"/>
      <point x="147.25" y="483" type="line"/>
      <point x="147.25" y="336.75" type="line"/>
      <point x="0" y="336.75" type="line"/>
      <point x="0" y="282.625" type="line"/>
      <point x="147.25" y="282.625" type="line"/>
    </contour>
  </outline>
</glyph>
<glyph name="comma" format="2">
  <advance width="135"/>
  <unicode hex="002C"/>
  <outline>
    <contour>
      <point x="30" y="59.007" type="qcurve" smooth="yes"/>
      <point x="30" y="15"/>
      <point x="65.5" y="15" type="qcurve"/>
      <point x="41.5" y="-70" type="line"/>
      <point x="63" y="-70" type="line"/>
      <point x="105" y="8.775"/>
      <point x="105" y="54.6521" type="qcurve" smooth="yes"/>
      <point x="105" y="99.375"/>
      <point x="67.849" y="99.375" type="qcurve" smooth="yes"/>
      <point x="51.75" y="99.375"/>
      <point x="30" y="81.7663"/>
    </contour>
  </outline>
</glyph>
<glyph name="hyphen" format="2">
  <advance width="263"/>
  <unicode hex="002D"/>
  <outline>
    <contour>
      <point x="30" y="300.625" type="line"/>
      <point x="233" y="300.625" type="line"/>
      <point x="233" y="348.375" type="line"/>
      <point x="30" y="348.375" type="line"/>
    </contour>
  </outline>
</glyph>
<glyph name="period" format="2">
  <advance width="134"/>
  <unicode hex="002E"/>
  <outline>
    <contour>
      <point x="67.0486" y="0" type="qcurve" smooth="yes"/>
      <point x="82.0394" y="0"/>
      <point x="103.75" y="19.4399"/>
      <point x="103.75" y="43.0625" type="qcurve" smooth="yes"/>
      <point x="103.75" y="66.6851"/>
      <point x="82.0394" y="85.75"/>
      <point x="67.0486" y="85.75" type="qcurve" smooth="yes"/>
      <point x="52.0579" y="85.75"/>
      <point x="30" y="66.6851"/>
      <point x="30" y="43.0625" type="qcurve" smooth="yes"/>
      <point x="30" y="19.4399"/>
      <point x="52.0578" y="0"/>
    </contour>
  </outline>
</glyph>
<glyph name="slash" format="2">
  <advance width="345"/>
  <unicode hex="002F"/>
  <outline>
    <contour>
      <point x="30" y="-76" type="line"/>
      <point x="84.75" y="-76" type="line"/>
      <point x="314.75" y="750" type="line"/>
      <point x="259" y="750" type="line"/>
    </contour>
  </outline>
</glyph>
<glyph name="zero" format="2">
  <advance width="334"/>
  <unicode hex="0030"/>
  <outline>
    <contour>
      <point x="167.461" y="-15" type="qcurve" smooth="yes"/>
      <point x="240.27" y="-15"/>
      <point x="314" y="190"/>
      <point x="314" y="350" type="qcurve" smooth="yes"/>
      <point x="314" y="510"/>
      <point x="240.27" y="715"/>
      <point x="167.461" y="715" type="qcurve" smooth="yes"/>
      <point x="94.652" y="715"/>
      <point x="20" y="509"/>
      <point x="20" y="350" type="qcurve" smooth="yes"/>
      <point x="20" y="191"/>
      <point x="94.652" y="-15"/>
    </contour>
    <contour>
      <point x="167.639" y="32.75" type="qcurve" smooth="yes"/>
      <point x="119.083" y="32.75"/>
      <point x="80.75" y="216.888"/>
      <point x="80.75" y="350" type="qcurve" smooth="yes"/>
      <point x="80.75" y="483.112"/>
      <point x="119.083" y="667.25"/>
      <point x="167.639" y="667.25" type="qcurve" smooth="yes"/>
      <point x="216.194" y="667.25"/>
      <point x="253.25" y="484.221"/>
      <point x="253.25" y="350" type="qcurve" smooth="yes"/>
      <point x="253.25" y="215.779"/>
      <point x="216.194" y="32.75"/>
    </contour>
  </outline>
</glyph>
<glyph name="one" format="2">
  <advance width="182"/>
  <unicode hex="0031"/>
  <outline>
    <contour>
      <point x="86.375" y="0" type="line"/>
      <point x="141.125" y="0" type="line"/>
      <point x="141.125" y="700" type="line"/>
      <point x="115.323" y="700" type="line"/>
      <point x="40" y="663.13" type="line"/>
      <point x="40" y="619.125" type="line"/>
      <point x="86.375" y="631.625" type="line"/>
    </contour>
  </outline>
</glyph>
<glyph name="two" format="2">
  <advance width="333"/>
  <unicode hex="0032"/>
  <outline>
    <contour>
      <point x="88.875" y="50.75" type="line"/>
      <point x="313" y="281.103"/>
      <point x="313" y="498.988" type="qcurve" smooth="yes"/>
      <point x="313" y="588.022"/>
      <point x="237.347" y="715"/>
      <point x="169.887" y="715" type="qcurve" smooth="yes"/>
      <point x="101.917" y="715"/>
      <point x="30" y="591"/>
      <point x="30" y="484" type="qcurve"/>
      <point x="83.25" y="484" type="line"/>
      <point x="83.25" y="668.375"/>
      <point x="167.679" y="668.375" type="qcurve" smooth="yes"/>
      <point x="211.498" y="668.375"/>
      <point x="259.75" y="561.6"/>
      <point x="259.75" y="498.863" type="qcurve" smooth="yes"/>
      <point x="259.75" y="295.228"/>
      <point x="20" y="50.6623" type="qcurve"/>
      <point x="20" y="1.875" type="line"/>
      <point x="304.25" y="1.875" type="line"/>
      <point x="304.25" y="50.75" type="line"/>
    </contour>
  </outline>
</glyph>
<glyph name="three" format="2">
  <advance width="336"/>
  <unicode hex="0033"/>
  <outline>
    <contour>
      <point x="136.112" y="380.25" type="line"/>
      <point x="136.112" y="337.375" type="line"/>
      <point x="145.381" y="337.375" type="line" smooth="yes"/>
      <point x="200.28" y="337.375"/>
      <point x="261.25" y="249.901"/>
      <point x="261.25" y="164.197" type="qcurve" smooth="yes"/>
      <point x="261.25" y="104.908"/>
      <point x="218.243" y="29"/>
      <point x="178.306" y="29" type="qcurve" smooth="yes"/>
      <point x="137.287" y="29"/>
      <point x="91.75" y="111.266"/>
      <point x="91.75" y="191" type="qcurve"/>
      <point x="40" y="191" type="line"/>
      <point x="40" y="96"/>
      <point x="114.272" y="-15"/>
      <point x="177.939" y="-15" type="qcurve" smooth="yes"/>
      <point x="243.714" y="-15"/>
      <point x="316" y="100.08"/>
      <point x="316" y="182.037" type="qcurve" smooth="yes"/>
      <point x="316" y="247.352"/>
      <point x="269.865" y="331.136"/>
      <point x="233.839" y="357.732" type="qcurve"/>
      <point x="269.865" y="382.892"/>
      <point x="316" y="463.249"/>
      <point x="316" y="525.797" type="qcurve" smooth="yes"/>
      <point x="316" y="607.122"/>
      <point x="238.082" y="715"/>
      <point x="175.463" y="715" type="qcurve" smooth="yes"/>
      <point x="107.854" y="715"/>
      <point x="40" y="591"/>
      <point x="40" y="485" type="qcurve"/>
      <point x="91.75" y="485" type="line"/>
      <point x="91.75" y="575.553"/>
      <point x="136.022" y="671"/>
      <point x="179.583" y="671" type="qcurve" smooth="yes"/>
      <point x="218.243" y="671"/>
      <point x="261.25" y="600.863"/>
      <point x="261.25" y="532.183" type="qcurve" smooth="yes"/>
      <point x="261.25" y="433.254"/>
      <point x="177.535" y="380.25"/>
      <point x="145.381" y="380.25" type="qcurve" smooth="yes"/>
    </contour>
  </outline>
</glyph>
<glyph name="four" format="2">
  <advance width="351"/>
  <unicode hex="0034"/>
  <outline>
    <contour>
      <point x="214.125" y="0" type="line"/>
      <point x="268.875" y="0" type="line"/>
      <point x="268.875" y="170" type="line"/>
      <point x="345.375" y="170" type="line"/>
      <point x="345.375" y="214" type="line"/>
      <point x="268.875" y="214" type="line"/>
      <point x="268.875" y="700" type="line"/>
      <point x="182.875" y="700" type="line"/>
      <point x="15" y="213.907" type="line"/>
      <point x="15" y="170" type="line"/>
      <point x="214.125" y="170" type="line"/>
    </contour>
    <contour>
      <point x="68.625" y="214" type="line"/>
      <point x="214.125" y="656" type="line"/>
      <point x="214.125" y="214" type="line"/>
    </contour>
  </outline>
</glyph>
<glyph name="five" format="2">
  <advance width="318"/>
  <unicode hex="0035"/>
  <outline>
    <contour>
      <point x="24.375" y="305" type="line"/>
      <point x="78" y="305" type="line"/>
      <point x="82.9833" y="411"/>
      <point x="150.061" y="411" type="qcurve" smooth="yes"/>
      <point x="243.125" y="411"/>
      <point x="243.125" y="219.125" type="qcurve" smooth="yes"/>
      <point x="243.125" y="32.375"/>
      <point x="155.352" y="32.375" type="qcurve" smooth="yes"/>
      <point x="73.625" y="32.375"/>
      <point x="73.625" y="191" type="qcurve"/>
      <point x="20" y="191" type="line"/>
      <point x="20" y="-15"/>
      <point x="153.24" y="-15" type="qcurve" smooth="yes"/>
      <point x="229.02" y="-15"/>
      <point x="297.875" y="120"/>
      <point x="297.875" y="231.945" type="qcurve" smooth="yes"/>
      <point x="297.875" y="332.273"/>
      <point x="241.749" y="455"/>
      <point x="166.195" y="455" type="qcurve" smooth="yes"/>
      <point x="109.152" y="455"/>
      <point x="74.625" y="419" type="qcurve"/>
      <point x="74.5197" y="649.625" type="line"/>
      <point x="276.875" y="649.625" type="line"/>
      <point x="276.875" y="700" type="line"/>
      <point x="24.375" y="700" type="line"/>
    </contour>
  </outline>
</glyph>
<glyph name="six" format="2">
  <advance width="328"/>
  <unicode hex="0036"/>
  <outline>
    <contour>
      <point x="176.526" y="-15" type="qcurve" smooth="yes"/>
      <point x="308" y="-15"/>
      <point x="308" y="232.594" type="qcurve" smooth="yes"/>
      <point x="308" y="337"/>
      <point x="231.901" y="451"/>
      <point x="176.195" y="451" type="qcurve" smooth="yes"/>
      <point x="114.762" y="451"/>
      <point x="74.75" y="380" type="qcurve"/>
      <point x="74.75" y="493.441"/>
      <point x="111.177" y="671"/>
      <point x="165.093" y="671" type="qcurve" smooth="yes"/>
      <point x="231.25" y="671"/>
      <point x="231.25" y="524" type="qcurve"/>
      <point x="286" y="524" type="line"/>
      <point x="286" y="715"/>
      <point x="173.566" y="715" type="qcurve" smooth="yes"/>
      <point x="20" y="715"/>
      <point x="20" y="350.827" type="qcurve" smooth="yes"/>
      <point x="20" y="-15"/>
    </contour>
    <contour>
      <point x="165.072" y="32.75" type="qcurve" smooth="yes"/>
      <point x="118.875" y="32.75"/>
      <point x="75.875" y="147.341"/>
      <point x="75.875" y="225.008" type="qcurve" smooth="yes"/>
      <point x="75.875" y="304.599"/>
      <point x="121.562" y="407"/>
      <point x="162.468" y="407" type="qcurve" smooth="yes"/>
      <point x="203.531" y="407"/>
      <point x="253.25" y="304.599"/>
      <point x="253.25" y="224.385" type="qcurve" smooth="yes"/>
      <point x="253.25" y="148.56"/>
      <point x="210.25" y="32.75"/>
    </contour>
  </outline>
</glyph>
<glyph name="seven" format="2">
  <advance width="291"/>
  <unicode hex="0037"/>
  <outline>
    <contour>
      <point x="15" y="700" type="line"/>
      <point x="15" y="652.25" type="line"/>
      <point x="223.75" y="652.25" type="line"/>
      <point x="80.75" y="0" type="line"/>
      <point x="133.5" y="0" type="line"/>
      <point x="275.5" y="652.25" type="line"/>
      <point x="275.5" y="700" type="line"/>
    </contour>
  </outline>
</glyph>
<glyph name="eight" format="2">
  <advance width="316"/>
  <unicode hex="0038"/>
  <outline>
    <contour>
      <point x="296" y="182.37" type="qcurve" smooth="yes"/>
      <point x="296" y="238.577"/>
      <point x="260.474" y="322.061"/>
      <point x="220.1" y="353" type="qcurve"/>
      <point x="254.273" y="383.184"/>
      <point x="287" y="474.706"/>
      <point x="287" y="525.088" type="qcurve" smooth="yes"/>
      <point x="287" y="601.477"/>
      <point x="215.297" y="715"/>
      <point x="156.591" y="715" type="qcurve" smooth="yes"/>
      <point x="98.1338" y="715"/>
      <point x="29" y="603.218"/>
      <point x="29" y="527.808" type="qcurve" smooth="yes"/>
      <point x="29" y="475.951"/>
      <point x="62.5037" y="382.429"/>
      <point x="95.9" y="353" type="qcurve"/>
      <point x="53.1965" y="320.552"/>
      <point x="20" y="239.067"/>
      <point x="20" y="183.861" type="qcurve" smooth="yes"/>
      <point x="20" y="103"/>
      <point x="89.4432" y="-15"/>
      <point x="157.181" y="-15" type="qcurve" smooth="yes"/>
      <point x="226.557" y="-15"/>
      <point x="296" y="103"/>
    </contour>
    <contour>
      <point x="158.578" y="333.375" type="qcurve" smooth="yes"/>
      <point x="201.426" y="333.375"/>
      <point x="241.25" y="239.535"/>
      <point x="241.25" y="177.34" type="qcurve" smooth="yes"/>
      <point x="241.25" y="114.882"/>
      <point x="199.205" y="29"/>
      <point x="156.994" y="29" type="qcurve" smooth="yes"/>
      <point x="115.527" y="29"/>
      <point x="74.75" y="116.145"/>
      <point x="74.75" y="177.495" type="qcurve" smooth="yes"/>
      <point x="74.75" y="239.871"/>
      <point x="115.684" y="333.375"/>
    </contour>
    <contour>
      <point x="158.888" y="377.375" type="qcurve" smooth="yes"/>
      <point x="121.01" y="377.375"/>
      <point x="83.75" y="475.289"/>
      <point x="83.75" y="533.196" type="qcurve" smooth="yes"/>
      <point x="83.75" y="591.034"/>
      <point x="121.861" y="671"/>
      <point x="158" y="671" type="qcurve" smooth="yes"/>
      <point x="194.139" y="671"/>
      <point x="232.25" y="591.034"/>
      <point x="232.25" y="531.658" type="qcurve" smooth="yes"/>
      <point x="232.25" y="473.679"/>
      <point x="196.952" y="377.375"/>
    </contour>
  </outline>
</glyph>
<glyph name="colon" format="2">
  <advance width="134"/>
  <unicode hex="003A"/>
  <outline>
    <contour>
      <point x="67.0486" y="0" type="qcurve" smooth="yes"/>
      <point x="82.0394" y="0"/>
      <point x="103.75" y="19.4399"/>
      <point x="103.75" y="43.0625" type="qcurve" smooth="yes"/>
      <point x="103.75" y="66.6851"/>
      <point x="82.0394" y="85.75"/>
      <point x="67.0486" y="85.75" type="qcurve" smooth="yes"/>
      <point x="52.0579" y="85.75"/>
      <point x="30" y="66.6851"/>
      <point x="30" y="43.0625" type="qcurve" smooth="yes"/>
      <point x="30" y="19.4399"/>
      <point x="52.0578" y="0"/>
    </contour>
    <contour>
      <point x="67.0486" y="323" type="qcurve" smooth="yes"/>
      <point x="82.0394" y="323"/>
      <point x="103.75" y="342.44"/>
      <point x="103.75" y="366.062" type="qcurve" smooth="yes"/>
      <point x="103.75" y="389.685"/>
      <point x="82.0394" y="408.75"/>
      <point x="67.0486" y="408.75" type="qcurve" smooth="yes"/>
      <point x="52.0579" y="408.75"/>
      <point x="30" y="389.685"/>
      <point x="30" y="366.062" type="qcurve" smooth="yes"/>
      <point x="30" y="342.44"/>
      <point x="52.0578" y="323"/>
    </contour>
  </outline>
</glyph>
<glyph name="less" format="2">
  <advance width="314"/>
  <unicode hex="003C"/>
  <outline>
    <contour>
      <point x="298.375" y="482" type="line"/>
      <point x="69.75" y="265" type="line"/>
      <point x="298.375" y="58" type="line"/>
      <point x="241" y="58" type="line"/>
      <point x="15" y="265" type="line"/>
      <point x="241" y="482" type="line"/>
    </contour>
  </outline>
</glyph>
<glyph name="equal" format="2">
  <advance width="349"/>
  <unicode hex="003D"/>
  <outline>
    <contour>
      <point x="0" y="352.125" type="line"/>
      <point x="349" y="352.125" type="line"/>
      <point x="349" y="402.5" type="line"/>
      <point x="0" y="402.5" type="line"/>
    </contour>
    <contour>
      <point x="0" y="213.25" type="line"/>
      <point x="349" y="213.25" type="line"/>
      <point x="349" y="263.625" type="line"/>
      <point x="0" y="263.625" type="line"/>
    </contour>
  </outline>
</glyph>
<glyph name="greater" format="2">
  <advance width="314"/>
  <unicode hex="003E"/>
  <outline>
    <contour>
      <point x="14.625" y="482" type="line"/>
      <point x="243.625" y="265" type="line"/>
      <point x="14.625" y="58" type="line"/>
      <point x="72" y="58" type="line"/>
      <point x="298.375" y="265" type="line"/>
      <point x="72" y="482" type="line"/>
    </contour>
  </outline>
</glyph>
<glyph name="question" format="2">
  <advance width="312"/>
  <unicode hex="003F"/>
  <outline>
    <contour>
      <point x="150.5" y="203" type="line"/>
      <point x="150.5" y="253.584"/>
      <point x="177.721" y="325.323"/>
      <point x="209.782" y="365.864" type="qcurve" smooth="yes"/>
      <point x="242.469" y="407.323"/>
      <point x="281.75" y="495.449"/>
      <point x="281.75" y="553.7" type="qcurve" smooth="yes"/>
      <point x="281.75" y="626.633"/>
      <point x="221.64" y="712"/>
      <point x="159.888" y="712" type="qcurve" smooth="yes"/>
      <point x="87.8224" y="712"/>
      <point x="30" y="597.704"/>
      <point x="30" y="490" type="qcurve"/>
      <point x="84.75" y="490" type="line"/>
      <point x="84.75" y="567.289"/>
      <point x="107.941" y="668"/>
      <point x="158.51" y="668" type="qcurve" smooth="yes"/>
      <point x="200.561" y="668"/>
      <point x="227.491" y="593.474"/>
      <point x="226.979" y="554.388" type="qcurve" smooth="yes"/>
      <point x="225.908" y="468.891"/>
      <point x="159.677" y="379.6" type="qcurve" smooth="yes"/>
      <point x="131.707" y="341.913"/>
      <point x="95.75" y="262.256"/>
      <point x="95.75" y="203" type="qcurve"/>
    </contour>
    <contour>
      <point x="121.049" y="-1.5" type="qcurve" smooth="yes"/>
      <point x="136.039" y="-1.5"/>
      <point x="157.75" y="17.9399"/>
      <point x="157.75" y="41.5625" type="qcurve" smooth="yes"/>
      <point x="157.75" y="65.1851"/>
      <point x="136.039" y="84.25"/>
      <point x="121.049" y="84.25" type="qcurve" smooth="yes"/>
      <point x="106.058" y="84.25"/>
      <point x="84" y="65.1851"/>
      <point x="84" y="41.5625" type="qcurve" smooth="yes"/>
      <point x="84" y="17.9399"/>
      <point x="106.058" y="-1.5"/>
    </contour>
  </outline>
  <guideline angle="0" x="0" y="811"/>
  <guideline angle="0" x="0" y="811"/>
</glyph>
<glyph name="at" format="2">
  <advance width="540"/>
  <unicode hex="0040"/>
  <outline>
    <contour>
      <point x="389.245" y="0" type="qcurve" smooth="yes"/>
      <point x="337.5" y="0" type="line"/>
      <point x="337.5" y="44" type="line"/>
      <point x="310.907" y="-6"/>
      <point x="256.18" y="-6" type="qcurve" smooth="yes"/>
      <point x="128.5" y="-6"/>
      <point x="128.5" y="251.35" type="qcurve" smooth="yes"/>
      <point x="128.5" y="506"/>
      <point x="254.794" y="506" type="qcurve" smooth="yes"/>
      <point x="311.795" y="506"/>
      <point x="331.25" y="450.486" type="qcurve"/>
      <point x="350.5" y="500.086" type="line"/>
      <point x="390.25" y="500.086" type="line"/>
      <point x="390.25" y="47.0162" type="line"/>
      <point x="488.25" y="47.0162"/>
      <point x="488.25" y="258.965" type="qcurve" smooth="yes"/>
      <point x="488.25" y="610"/>
      <point x="271.368" y="610" type="qcurve" smooth="yes"/>
      <point x="51.75" y="610"/>
      <point x="51.75" y="241.771" type="qcurve" smooth="yes"/>
      <point x="51.75" y="-113"/>
      <point x="271.498" y="-113" type="qcurve"/>
      <point x="271.498" y="-160" type="line"/>
      <point x="0" y="-160"/>
      <point x="0" y="221.871" type="qcurve" smooth="yes"/>
      <point x="0" y="657"/>
      <point x="276.523" y="657" type="qcurve" smooth="yes"/>
      <point x="540" y="657"/>
      <point x="540" y="268.577" type="qcurve" smooth="yes"/>
      <point x="540" y="0"/>
    </contour>
    <contour>
      <point x="267.944" y="462" type="qcurve" smooth="yes"/>
      <point x="183.25" y="462"/>
      <point x="183.25" y="252.159" type="qcurve" smooth="yes"/>
      <point x="183.25" y="41"/>
      <point x="268.948" y="41" type="qcurve" smooth="yes"/>
      <point x="335.5" y="41"/>
      <point x="335.5" y="161.611" type="qcurve" smooth="yes"/>
      <point x="335.5" y="335.7" type="line" smooth="yes"/>
      <point x="335.5" y="462"/>
    </contour>
  </outline>
</glyph>
<glyph name="A" format="2">
  <advance width="306"/>
  <unicode hex="0041"/>
  <anchor x="152.625" y="700" name="top"/>
  <outline>
    <contour>
      <point x="290.5" y="0" type="line"/>
      <point x="193.011" y="700" type="line"/>
      <point x="111.864" y="700" type="line"/>
      <point x="15" y="0" type="line"/>
      <point x="69.75" y="0" type="line"/>
      <point x="95.875" y="209" type="line"/>
      <point x="209.625" y="209" type="line"/>
      <point x="235.75" y="0" type="line"/>
    </contour>
    <contour>
      <point x="203.75" y="253" type="line"/>
      <point x="101.75" y="253" type="line"/>
      <point x="152.25" y="647" type="line"/>
    </contour>
  </outline>
</glyph>
<glyph name="B" format="2">
  <advance width="349"/>
  <unicode hex="0042"/>
  <outline>
    <contour>
      <point x="40" y="0" type="line"/>
      <point x="160.57" y="0" type="line" smooth="yes"/>
      <point x="240.643" y="0"/>
      <point x="329" y="110.966"/>
      <point x="329" y="192.945" type="qcurve" smooth="yes"/>
      <point x="329" y="308.733"/>
      <point x="237.5" y="361.375" type="qcurve"/>
      <point x="309" y="422.312"/>
      <point x="309" y="513.916" type="qcurve" smooth="yes"/>
      <point x="309" y="591.885"/>
      <point x="238.548" y="700"/>
      <point x="147.966" y="700" type="qcurve" smooth="yes"/>
      <point x="40" y="700" type="line"/>
    </contour>
    <contour>
      <point x="94.75" y="381" type="line"/>
      <point x="94.75" y="656" type="line"/>
      <point x="144.43" y="656" type="line" smooth="yes"/>
      <point x="205.877" y="656"/>
      <point x="254.25" y="572.56"/>
      <point x="254.25" y="513.122" type="qcurve" smooth="yes"/>
      <point x="254.25" y="457.389"/>
      <point x="209.799" y="381"/>
      <point x="150.967" y="381" type="qcurve" smooth="yes"/>
    </contour>
    <contour>
      <point x="94.75" y="44" type="line"/>
      <point x="94.75" y="337" type="line"/>
      <point x="141.521" y="337" type="line" smooth="yes"/>
      <point x="200.933" y="337"/>
      <point x="274.25" y="264.598"/>
      <point x="274.25" y="186.572" type="qcurve" smooth="yes"/>
      <point x="274.25" y="116.402"/>
      <point x="214.838" y="44"/>
      <point x="161.746" y="44" type="qcurve" smooth="yes"/>
    </contour>
  </outline>
</glyph>
<glyph name="C" format="2">
  <advance width="327"/>
  <unicode hex="0043"/>
  <anchor x="164" y="700" name="top"/>
  <anchor x="164.312" y="0" name="ced"/>
  <anchor x="164" y="-6" name="ogonek"/>
  <outline>
    <contour>
      <point x="249.25" y="237" type="line"/>
      <point x="247.974" y="141.525"/>
      <point x="202.01" y="29"/>
      <point x="166.25" y="29" type="qcurve" smooth="yes"/>
      <point x="117.812" y="29"/>
      <point x="75.7499" y="225.134"/>
      <point x="75.7499" y="372.245" type="qcurve" smooth="yes"/>
      <point x="75.7499" y="515.542"/>
      <point x="114.758" y="677"/>
      <point x="165.375" y="677" type="qcurve" smooth="yes"/>
      <point x="208.722" y="677"/>
      <point x="252.25" y="551.275"/>
      <point x="252.25" y="430" type="qcurve"/>
      <point x="307" y="430" type="line"/>
      <point x="307" y="571"/>
      <point x="243.547" y="721"/>
      <point x="167.418" y="721" type="qcurve" smooth="yes"/>
      <point x="82.6141" y="721"/>
      <point x="20.9999" y="532"/>
      <point x="20.9999" y="354.803" type="qcurve" smooth="yes"/>
      <point x="20.9999" y="177"/>
      <point x="84.3993" y="-15"/>
      <point x="164.401" y="-15" type="qcurve" smooth="yes"/>
      <point x="231.412" y="-15"/>
      <point x="304" y="119"/>
      <point x="304" y="237" type="qcurve"/>
    </contour>
  </outline>
</glyph>
<glyph name="D" format="2">
  <advance width="330"/>
  <unicode hex="0044"/>
  <anchor x="175" y="698.57" name="top"/>
  <outline>
    <contour>
      <point x="151.661" y="0" type="line" smooth="yes"/>
      <point x="239.525" y="0"/>
      <point x="310" y="199"/>
      <point x="310" y="350" type="qcurve" smooth="yes"/>
      <point x="310" y="503"/>
      <point x="238.61" y="700"/>
      <point x="148.915" y="700" type="qcurve" smooth="yes"/>
      <point x="40" y="700" type="line"/>
      <point x="40" y="0" type="line"/>
    </contour>
    <contour>
      <point x="94.75" y="44" type="line"/>
      <point x="94.75" y="656" type="line"/>
      <point x="158.689" y="656" type="line" smooth="yes"/>
      <point x="214.799" y="656"/>
      <point x="255.25" y="479.587"/>
      <point x="255.25" y="350.395" type="qcurve" smooth="yes"/>
      <point x="255.25" y="223.68"/>
      <point x="217.409" y="44"/>
      <point x="165.213" y="44" type="qcurve" smooth="yes"/>
    </contour>
  </outline>
</glyph>
<glyph name="E" format="2">
  <advance width="271"/>
  <unicode hex="0045"/>
  <anchor x="152.875" y="700" name="top"/>
  <anchor x="216.5" y="0" name="ogonek"/>
  <anchor x="163" y="0" name="ced"/>
  <outline>
    <contour>
      <point x="40" y="0" type="line"/>
      <point x="265.75" y="0" type="line"/>
      <point x="265.75" y="44" type="line"/>
      <point x="94.75" y="44" type="line"/>
      <point x="94.75" y="330.75" type="line"/>
      <point x="218.75" y="330.75" type="line"/>
      <point x="218.75" y="374.75" type="line"/>
      <point x="94.75" y="374.75" type="line"/>
      <point x="94.75" y="656" type="line"/>
      <point x="258.75" y="656" type="line"/>
      <point x="258.75" y="700" type="line"/>
      <point x="40" y="700" type="line"/>
    </contour>
  </outline>
</glyph>
<glyph name="F" format="2">
  <advance width="266"/>
  <unicode hex="0046"/>
  <outline>
    <contour>
      <point x="40" y="0" type="line"/>
      <point x="94.75" y="0" type="line"/>
      <point x="94.75" y="337" type="line"/>
      <point x="210.75" y="337" type="line"/>
      <point x="210.75" y="381" type="line"/>
      <point x="94.75" y="381" type="line"/>
      <point x="94.75" y="656" type="line"/>
      <point x="260.75" y="656" type="line"/>
      <point x="260.75" y="700" type="line"/>
      <point x="40" y="700" type="line"/>
    </contour>
  </outline>
</glyph>
<glyph name="H" format="2">
  <advance width="342"/>
  <unicode hex="0048"/>
  <outline>
    <contour>
      <point x="247.25" y="0" type="line"/>
      <point x="302" y="0" type="line"/>
      <point x="302" y="700" type="line"/>
      <point x="247.25" y="700" type="line"/>
      <point x="247.25" y="375.375" type="line"/>
      <point x="94.75" y="375.375" type="line"/>
      <point x="94.75" y="700" type="line"/>
      <point x="40" y="700" type="line"/>
      <point x="40" y="0" type="line"/>
      <point x="94.75" y="0" type="line"/>
      <point x="94.75" y="331.375" type="line"/>
      <point x="247.25" y="331.375" type="line"/>
    </contour>
  </outline>
</glyph>
<glyph name="I" format="2">
  <advance width="135"/>
  <unicode hex="0049"/>
  <anchor x="67.375" y="700" name="top"/>
  <anchor x="64.25" y="0" name="ced"/>
  <outline>
    <contour>
      <point x="40" y="0" type="line"/>
      <point x="94.75" y="0" type="line"/>
      <point x="94.75" y="700" type="line"/>
      <point x="40" y="700" type="line"/>
    </contour>
  </outline>
</glyph>
<glyph name="J" format="2">
  <advance width="202"/>
  <unicode hex="004A"/>
  <anchor x="134.375" y="700" name="top"/>
  <outline>
    <contour>
      <point x="59.9064" y="-15" type="line" smooth="yes"/>
      <point x="161.75" y="-15"/>
      <point x="161.75" y="180" type="qcurve" smooth="yes"/>
      <point x="161.75" y="700" type="line"/>
      <point x="107" y="700" type="line"/>
      <point x="107" y="175.137" type="line" smooth="yes"/>
      <point x="107" y="29"/>
      <point x="50" y="29" type="qcurve" smooth="yes"/>
      <point x="30" y="29" type="line"/>
      <point x="30" y="-15" type="line"/>
    </contour>
  </outline>
</glyph>
<glyph name="K" format="2">
  <advance width="318"/>
  <unicode hex="004B"/>
  <outline>
    <contour>
      <point x="247.5" y="0" type="line"/>
      <point x="302.25" y="0" type="line"/>
      <point x="149" y="388.25" type="line"/>
      <point x="295.25" y="700" type="line"/>
      <point x="240.5" y="700" type="line"/>
      <point x="94.75" y="393.5" type="line"/>
      <point x="94.75" y="700" type="line"/>
      <point x="40" y="700" type="line"/>
      <point x="40" y="0" type="line"/>
      <point x="94.75" y="0" type="line"/>
      <point x="94.75" y="308.536" type="line"/>
      <point x="111.75" y="341.25" type="line"/>
    </contour>
  </outline>
</glyph>
<glyph name="L" format="2">
  <advance width="245"/>
  <unicode hex="004C"/>
  <anchor x="67.375" y="700" name="top"/>
  <outline>
    <contour>
      <point x="40" y="0" type="line"/>
      <point x="239.75" y="0" type="line"/>
      <point x="239.75" y="44" type="line"/>
      <point x="94.75" y="44" type="line"/>
      <point x="94.75" y="700" type="line"/>
      <point x="40" y="700" type="line"/>
    </contour>
  </outline>
</glyph>
<glyph name="M" format="2">
  <advance width="457"/>
  <unicode hex="004D"/>
  <outline>
    <contour>
      <point x="361.625" y="0.35" type="line"/>
      <point x="416.775" y="0.35" type="line"/>
      <point x="416.775" y="700" type="line"/>
      <point x="328.125" y="700" type="line"/>
      <point x="226.875" y="44" type="line"/>
      <point x="124.625" y="700" type="line"/>
      <point x="40.45" y="700" type="line"/>
      <point x="40.45" y="0.349976" type="line"/>
      <point x="94.925" y="0.349976" type="line"/>
      <point x="94.925" y="594.895" type="line"/>
      <point x="181.5" y="0" type="line"/>
      <point x="272.25" y="0" type="line"/>
      <point x="361.625" y="602.632" type="line"/>
    </contour>
  </outline>
</glyph>
<glyph name="N" format="2">
  <advance width="366"/>
  <unicode hex="004E"/>
  <anchor x="183" y="700" name="top"/>
  <outline>
    <contour>
      <point x="40" y="0" type="line"/>
      <point x="94.75" y="0" type="line"/>
      <point x="94.75" y="609.152" type="line"/>
      <point x="244.57" y="0" type="line"/>
      <point x="326" y="0" type="line"/>
      <point x="326" y="700" type="line"/>
      <point x="271.25" y="700" type="line"/>
      <point x="271.25" y="110.848" type="line"/>
      <point x="116.93" y="700" type="line"/>
      <point x="40" y="700" type="line"/>
    </contour>
  </outline>
</glyph>
<glyph name="O" format="2">
  <advance width="347"/>
  <unicode hex="004F"/>
  <anchor x="173.25" y="700" name="top"/>
  <outline>
    <contour>
      <point x="173.702" y="-15" type="qcurve" smooth="yes"/>
      <point x="249.649" y="-15"/>
      <point x="326.5" y="192"/>
      <point x="326.5" y="349.346" type="qcurve" smooth="yes"/>
      <point x="326.5" y="514"/>
      <point x="242.323" y="721"/>
      <point x="173.702" y="721" type="qcurve" smooth="yes"/>
      <point x="105.081" y="721"/>
      <point x="20" y="514"/>
      <point x="20" y="349.385" type="qcurve" smooth="yes"/>
      <point x="20" y="192"/>
      <point x="97.7552" y="-15"/>
    </contour>
    <contour>
      <point x="173.907" y="29" type="qcurve" smooth="yes"/>
      <point x="120.468" y="29"/>
      <point x="77" y="216.465"/>
      <point x="77" y="349.055" type="qcurve" smooth="yes"/>
      <point x="77" y="489.535"/>
      <point x="126.585" y="677"/>
      <point x="173.873" y="677" type="qcurve" smooth="yes"/>
      <point x="221.102" y="677"/>
      <point x="269.5" y="490.619"/>
      <point x="269.5" y="348.884" type="qcurve" smooth="yes"/>
      <point x="269.5" y="215.381"/>
      <point x="227.274" y="29"/>
    </contour>
  </outline>
</glyph>
<glyph name="P" format="2">
  <advance width="329"/>
  <unicode hex="0050"/>
  <outline>
    <contour>
      <point x="40" y="0" type="line"/>
      <point x="94.75" y="0" type="line"/>
      <point x="94.75" y="312" type="line"/>
      <point x="135.952" y="312" type="line" smooth="yes"/>
      <point x="220.416" y="312"/>
      <point x="309" y="425.37"/>
      <point x="309" y="508.938" type="qcurve" smooth="yes"/>
      <point x="309" y="582.72"/>
      <point x="238.702" y="700"/>
      <point x="153.765" y="700" type="qcurve" smooth="yes"/>
      <point x="40" y="700" type="line"/>
    </contour>
    <contour>
      <point x="94.75" y="356" type="line"/>
      <point x="94.75" y="656" type="line"/>
      <point x="145.004" y="656" type="line" smooth="yes"/>
      <point x="206.898" y="656"/>
      <point x="254.25" y="563.336"/>
      <point x="254.25" y="504.583" type="qcurve" smooth="yes"/>
      <point x="254.25" y="442.873"/>
      <point x="203.262" y="356"/>
      <point x="137.893" y="356" type="qcurve" smooth="yes"/>
    </contour>
  </outline>
</glyph>
<glyph name="Q" format="2">
  <advance width="332"/>
  <unicode hex="0051"/>
  <outline>
    <contour>
      <point x="166.461" y="-15" type="qcurve" smooth="yes"/>
      <point x="247.521" y="-15"/>
      <point x="312" y="192"/>
      <point x="312" y="353" type="qcurve" smooth="yes"/>
      <point x="312" y="514"/>
      <point x="247.521" y="721"/>
      <point x="166.461" y="721" type="qcurve" smooth="yes"/>
      <point x="85.4006" y="721"/>
      <point x="20" y="514"/>
      <point x="20" y="353" type="qcurve" smooth="yes"/>
      <point x="20" y="192"/>
      <point x="85.4006" y="-15"/>
    </contour>
    <contour>
      <point x="166.629" y="29" type="qcurve" smooth="yes"/>
      <point x="115.026" y="29"/>
      <point x="74.75" y="216.465"/>
      <point x="74.75" y="353" type="qcurve" smooth="yes"/>
      <point x="74.75" y="489.535"/>
      <point x="115.026" y="677"/>
      <point x="166.629" y="677" type="qcurve" smooth="yes"/>
      <point x="216.974" y="677"/>
      <point x="257.25" y="490.619"/>
      <point x="257.25" y="353" type="qcurve" smooth="yes"/>
      <point x="257.25" y="215.381"/>
      <point x="216.974" y="29"/>
    </contour>
    <contour>
      <point x="166.5" y="29" type="line"/>
      <point x="166.5" y="-15" type="line"/>
      <point x="283.75" y="-84" type="line"/>
      <point x="292.75" y="-36" type="line"/>
    </contour>
  </outline>
</glyph>
<glyph name="R" format="2">
  <advance width="336"/>
  <unicode hex="0052"/>
  <anchor x="144.981" y="700" name="top"/>
  <outline>
    <contour>
      <point x="41" y="0" type="line"/>
      <point x="95.75" y="0" type="line"/>
      <point x="95.75" y="337" type="line"/>
      <point x="243.25" y="337"/>
      <point x="243.25" y="120.411" type="qcurve" smooth="yes"/>
      <point x="243.25" y="24.7452"/>
      <point x="264.202" y="0" type="qcurve"/>
      <point x="316" y="0" type="line"/>
      <point x="316" y="29.375" type="line"/>
      <point x="296.484" y="29.3139"/>
      <point x="298" y="148.957" type="qcurve" smooth="yes"/>
      <point x="299.453" y="299.599"/>
      <point x="205.75" y="347.5" type="qcurve"/>
      <point x="307" y="373.68"/>
      <point x="307" y="524.194" type="qcurve" smooth="yes"/>
      <point x="307" y="700"/>
      <point x="172.629" y="700" type="qcurve" smooth="yes"/>
      <point x="41" y="700" type="line"/>
    </contour>
    <contour>
      <point x="95.75" y="381" type="line"/>
      <point x="95.75" y="656" type="line"/>
      <point x="156.91" y="656" type="line" smooth="yes"/>
      <point x="252.25" y="656"/>
      <point x="252.25" y="515.838" type="qcurve" smooth="yes"/>
      <point x="252.25" y="381"/>
      <point x="166.181" y="381" type="qcurve" smooth="yes"/>
    </contour>
  </outline>
</glyph>
<glyph name="S" format="2">
  <advance width="347"/>
  <unicode hex="0053"/>
  <anchor x="174.981" y="700" name="top"/>
  <outline>
    <contour>
      <point x="180.951" y="-15" type="qcurve" smooth="yes"/>
      <point x="251.175" y="-15"/>
      <point x="327" y="86.1671"/>
      <point x="327" y="152.595" type="qcurve" smooth="yes"/>
      <point x="327" y="271.042"/>
      <point x="203.041" y="372.112" type="qcurve" smooth="yes"/>
      <point x="87.75" y="466.153"/>
      <point x="87.75" y="569.63" type="qcurve" smooth="yes"/>
      <point x="87.75" y="617.806"/>
      <point x="138.605" y="671"/>
      <point x="173.066" y="671" type="qcurve" smooth="yes"/>
      <point x="212.523" y="671"/>
      <point x="257.25" y="604.049"/>
      <point x="257.25" y="484" type="qcurve"/>
      <point x="312" y="484" type="line"/>
      <point x="312" y="591"/>
      <point x="247.757" y="715"/>
      <point x="176.106" y="715" type="qcurve" smooth="yes"/>
      <point x="114.681" y="715"/>
      <point x="33" y="622.758"/>
      <point x="33" y="556.942" type="qcurve" smooth="yes"/>
      <point x="33" y="442.682"/>
      <point x="159.973" y="330.475" type="qcurve" smooth="yes"/>
      <point x="272.25" y="231.219"/>
      <point x="272.25" y="142.352" type="qcurve" smooth="yes"/>
      <point x="272.25" y="101.065"/>
      <point x="225.049" y="29"/>
      <point x="180.862" y="29" type="qcurve" smooth="yes"/>
      <point x="129.404" y="29"/>
      <point x="74.75" y="132.675"/>
      <point x="74.75" y="251" type="qcurve"/>
      <point x="20" y="251" type="line"/>
      <point x="20" y="122"/>
      <point x="101.373" y="-15"/>
    </contour>
  </outline>
</glyph>
<glyph name="T" format="2">
  <advance width="325"/>
  <unicode hex="0054"/>
  <anchor x="162.375" y="700" name="top"/>
  <anchor x="165.5" y="0.4974" name="ced"/>
  <outline>
    <contour>
      <point x="135" y="0" type="line"/>
      <point x="189.75" y="0" type="line"/>
      <point x="189.75" y="656" type="line"/>
      <point x="309.75" y="656" type="line"/>
      <point x="309.75" y="700" type="line"/>
      <point x="15" y="700" type="line"/>
      <point x="15" y="656" type="line"/>
      <point x="135" y="656" type="line"/>
    </contour>
  </outline>
</glyph>
<glyph name="U" format="2">
  <advance width="372"/>
  <unicode hex="0055"/>
  <anchor x="186" y="700" name="top"/>
  <anchor x="186" y="0.298" name="ced"/>
  <anchor x="214.5" y="0" name="ogonek"/>
  <outline>
    <contour>
      <point x="40" y="160" type="line" smooth="yes"/>
      <point x="40" y="79.4939"/>
      <point x="115.895" y="-21"/>
      <point x="184.241" y="-21" type="qcurve" smooth="yes"/>
      <point x="253.144" y="-21"/>
      <point x="332" y="79.4939"/>
      <point x="332" y="160" type="qcurve" smooth="yes"/>
      <point x="332" y="700" type="line"/>
      <point x="277.25" y="700" type="line"/>
      <point x="277.25" y="152.5" type="line" smooth="yes"/>
      <point x="277.25" y="22.9918"/>
      <point x="185.754" y="22.9945" type="qcurve" smooth="yes"/>
      <point x="94.75" y="22.9918"/>
      <point x="94.75" y="152.5" type="qcurve" smooth="yes"/>
      <point x="94.75" y="700" type="line"/>
      <point x="40" y="700" type="line"/>
    </contour>
  </outline>
</glyph>
<glyph name="V" format="2">
  <advance width="318"/>
  <unicode hex="0056"/>
  <outline>
    <contour>
      <point x="15" y="700" type="line"/>
      <point x="116.25" y="0" type="line"/>
      <point x="202" y="0" type="line"/>
      <point x="302.625" y="700" type="line"/>
      <point x="247.875" y="700" type="line"/>
      <point x="159.125" y="56.5" type="line"/>
      <point x="69.375" y="700" type="line"/>
    </contour>
  </outline>
</glyph>
<glyph name="W" format="2">
  <advance width="525"/>
  <unicode hex="0057"/>
  <anchor x="262.5" y="700" name="top"/>
  <outline>
    <contour>
      <point x="233.684" y="700" type="line"/>
      <point x="153.5" y="67.75" type="line"/>
      <point x="69.75" y="700" type="line"/>
      <point x="15" y="700" type="line"/>
      <point x="110" y="0" type="line"/>
      <point x="198.125" y="0" type="line"/>
      <point x="263.125" y="621" type="line"/>
      <point x="327.5" y="0" type="line"/>
      <point x="415" y="0" type="line"/>
      <point x="510" y="700" type="line"/>
      <point x="455.25" y="700" type="line"/>
      <point x="371.5" y="67.75" type="line"/>
      <point x="291.316" y="700" type="line"/>
    </contour>
  </outline>
</glyph>
<glyph name="X" format="2">
  <advance width="351"/>
  <unicode hex="0058"/>
  <outline>
    <contour>
      <point x="32" y="700" type="line"/>
      <point x="140.25" y="370" type="line"/>
      <point x="15" y="0" type="line"/>
      <point x="69.75" y="0" type="line"/>
      <point x="177.5" y="324" type="line"/>
      <point x="281.25" y="0" type="line"/>
      <point x="336" y="0" type="line"/>
      <point x="214.75" y="363" type="line"/>
      <point x="326" y="700" type="line"/>
      <point x="271.25" y="700" type="line"/>
      <point x="177.5" y="409" type="line"/>
      <point x="86.75" y="700" type="line"/>
    </contour>
  </outline>
</glyph>
<glyph name="Y" format="2">
  <advance width="318"/>
  <unicode hex="0059"/>
  <anchor x="158.688" y="700" name="top"/>
  <outline>
    <contour>
      <point x="131.125" y="0" type="line"/>
      <point x="185.875" y="0" type="line"/>
      <point x="185.875" y="304" type="line"/>
      <point x="303" y="700" type="line"/>
      <point x="248.25" y="700" type="line"/>
      <point x="158.5" y="351" type="line"/>
      <point x="69.75" y="700" type="line"/>
      <point x="15" y="700" type="line"/>
      <point x="131.125" y="304" type="line"/>
    </contour>
  </outline>
</glyph>
<glyph name="Z" format="2">
  <advance width="341"/>
  <unicode hex="005A"/>
  <anchor x="170.5" y="700" name="top"/>
  <anchor x="279" y="0" name="ogonek"/>
  <outline>
    <contour>
      <point x="15" y="0" type="line"/>
      <point x="326" y="0" type="line"/>
      <point x="326" y="44" type="line"/>
      <point x="69.375" y="44" type="line"/>
      <point x="326" y="652.25" type="line"/>
      <point x="326" y="700" type="line"/>
      <point x="35" y="700" type="line"/>
      <point x="35" y="656" type="line"/>
      <point x="271.25" y="656" type="line"/>
      <point x="15" y="45.875" type="line"/>
    </contour>
  </outline>
</glyph>
<glyph name="bracketleft" format="2">
  <advance width="220"/>
  <unicode hex="005B"/>
  <outline>
    <contour>
      <point x="30" y="-49" type="line"/>
      <point x="188.75" y="-49" type="line"/>
      <point x="188.75" y="-5" type="line"/>
      <point x="84.75" y="-5" type="line"/>
      <point x="84.75" y="706" type="line"/>
      <point x="189.75" y="706" type="line"/>
      <point x="189.75" y="750" type="line"/>
      <point x="30" y="750" type="line"/>
    </contour>
  </outline>
</glyph>
<glyph name="bracketright" format="2">
  <advance width="220"/>
  <unicode hex="005D"/>
  <outline>
    <contour>
      <point x="189.75" y="-49" type="line"/>
      <point x="189.75" y="750" type="line"/>
      <point x="30" y="750" type="line"/>
      <point x="30" y="706" type="line"/>
      <point x="135" y="706" type="line"/>
      <point x="135" y="-5" type="line"/>
      <point x="31" y="-5" type="line"/>
      <point x="31" y="-49" type="line"/>
    </contour>
  </outline>
</glyph>
<glyph name="grave" format="2">
  <advance width="259"/>
  <unicode hex="0060"/>
  <anchor x="135.528" y="700" name="_top"/>
  <outline>
    <contour>
      <point x="135.471" y="750" type="line"/>
      <point x="173.274" y="750" type="line"/>
      <point x="126.709" y="890" type="line"/>
      <point x="72.3163" y="890" type="line"/>
    </contour>
  </outline>
</glyph>
<glyph name="a" format="2">
  <advance width="311"/>
  <unicode hex="0061"/>
  <anchor x="161.25" y="500" name="top"/>
  <anchor x="229" y="0" name="ogonek"/>
  <outline>
    <contour>
      <point x="126.382" y="-5" type="qcurve" smooth="yes"/>
      <point x="156.598" y="-5"/>
      <point x="210.383" y="22"/>
      <point x="225.75" y="54" type="qcurve"/>
      <point x="225.75" y="0" type="line"/>
      <point x="280.5" y="0" type="line"/>
      <point x="280.5" y="337" type="line" smooth="yes"/>
      <point x="280.5" y="429"/>
      <point x="224.253" y="515"/>
      <point x="162.656" y="515" type="qcurve" smooth="yes"/>
      <point x="101.454" y="515"/>
      <point x="33.25" y="431"/>
      <point x="33.25" y="330" type="qcurve"/>
      <point x="88" y="330" type="line"/>
      <point x="88" y="405.362"/>
      <point x="126.023" y="471"/>
      <point x="164.281" y="471" type="qcurve" smooth="yes"/>
      <point x="202.62" y="471"/>
      <point x="225.75" y="405.75"/>
      <point x="225.75" y="326" type="qcurve"/>
      <point x="117.365" y="275.75"/>
      <point x="15" y="184"/>
      <point x="15" y="122.132" type="qcurve" smooth="yes"/>
      <point x="15" y="75"/>
      <point x="75.3711" y="-5"/>
    </contour>
    <contour>
      <point x="136.83" y="40.5" type="qcurve" smooth="yes"/>
      <point x="101.526" y="40.5"/>
      <point x="64.125" y="91.8597"/>
      <point x="64.125" y="121.669" type="qcurve" smooth="yes"/>
      <point x="64.125" y="171.015"/>
      <point x="172.32" y="253.967"/>
      <point x="225.75" y="281.625" type="qcurve"/>
      <point x="225.75" y="153.367" type="line" smooth="yes"/>
      <point x="225.75" y="94.3684"/>
      <point x="172.32" y="40.5"/>
    </contour>
  </outline>
</glyph>
<glyph name="b" format="2">
  <advance width="315"/>
  <unicode hex="0062"/>
  <outline>
    <contour>
      <point x="30" y="0" type="line"/>
      <point x="84.75" y="0" type="line"/>
      <point x="84.75" y="37.95" type="line"/>
      <point x="116.7" y="-5"/>
      <point x="166.75" y="-5" type="qcurve" smooth="yes"/>
      <point x="227.75" y="-5"/>
      <point x="300" y="115.75"/>
      <point x="300" y="248.4" type="qcurve" smooth="yes"/>
      <point x="300" y="369"/>
      <point x="238.35" y="515"/>
      <point x="173" y="515" type="qcurve" smooth="yes"/>
      <point x="140.7" y="515"/>
      <point x="95.55" y="479.65"/>
      <point x="79.1" y="447.25" type="qcurve"/>
      <point x="79.1" y="700" type="line"/>
      <point x="30" y="700" type="line"/>
    </contour>
    <contour>
      <point x="159.95" y="36" type="qcurve" smooth="yes"/>
      <point x="125" y="36"/>
      <point x="84.75" y="104.95"/>
      <point x="84.75" y="163.5" type="qcurve" smooth="yes"/>
      <point x="84.75" y="295.2" type="line" smooth="yes"/>
      <point x="84.75" y="471"/>
      <point x="160.05" y="471" type="qcurve" smooth="yes"/>
      <point x="243.75" y="471"/>
      <point x="245.15" y="254.35" type="qcurve" smooth="yes"/>
      <point x="246.55" y="36"/>
    </contour>
  </outline>
</glyph>
<glyph name="d" format="2">
  <advance width="315"/>
  <unicode hex="0064"/>
  <outline>
    <contour>
      <point x="285" y="0" type="line"/>
      <point x="230.25" y="0" type="line"/>
      <point x="230.25" y="37.95" type="line"/>
      <point x="198.3" y="-5"/>
      <point x="148.25" y="-5" type="qcurve" smooth="yes"/>
      <point x="87.25" y="-5"/>
      <point x="15" y="115.75"/>
      <point x="15" y="248.4" type="qcurve" smooth="yes"/>
      <point x="15" y="369"/>
      <point x="76.65" y="515"/>
      <point x="142" y="515" type="qcurve" smooth="yes"/>
      <point x="174.3" y="515"/>
      <point x="219.45" y="479.65"/>
      <point x="235.9" y="447.25" type="qcurve"/>
      <point x="235.9" y="700" type="line"/>
      <point x="285" y="700" type="line"/>
    </contour>
    <contour>
      <point x="155.05" y="36" type="qcurve" smooth="yes"/>
      <point x="190" y="36"/>
      <point x="230.25" y="104.95"/>
      <point x="230.25" y="163.5" type="qcurve" smooth="yes"/>
      <point x="230.25" y="295.2" type="line" smooth="yes"/>
      <point x="230.25" y="471"/>
      <point x="154.95" y="471" type="qcurve" smooth="yes"/>
      <point x="71.25" y="471"/>
      <point x="69.85" y="254.35" type="qcurve" smooth="yes"/>
      <point x="68.45" y="36"/>
    </contour>
  </outline>
</glyph>
<glyph name="e" format="2">
  <advance width="306"/>
  <unicode hex="0065"/>
  <anchor x="153.5" y="500" name="top"/>
  <anchor x="153.5" y="10" name="ced"/>
  <anchor x="168.708" y="10" name="ogonek"/>
  <outline>
    <contour>
      <point x="155.549" y="-5" type="qcurve" smooth="yes"/>
      <point x="206.568" y="-5"/>
      <point x="282.416" y="85.6532"/>
      <point x="288.982" y="159" type="qcurve"/>
      <point x="232.25" y="159" type="line"/>
      <point x="232.25" y="105.232"/>
      <point x="187.968" y="39"/>
      <point x="155.824" y="39" type="qcurve" smooth="yes"/>
      <point x="115.032" y="39"/>
      <point x="70.75" y="144.593"/>
      <point x="70.75" y="223" type="qcurve"/>
      <point x="291" y="223" type="line"/>
      <point x="291" y="301.059" type="line" smooth="yes"/>
      <point x="291" y="392.654"/>
      <point x="218.736" y="515"/>
      <point x="156.624" y="515" type="qcurve" smooth="yes"/>
      <point x="91.1667" y="515"/>
      <point x="16" y="376.207"/>
      <point x="16" y="257.878" type="qcurve" smooth="yes"/>
      <point x="16" y="138.024"/>
      <point x="92.0441" y="-5"/>
    </contour>
    <contour>
      <point x="70.75" y="267" type="line"/>
      <point x="70.75" y="341.667"/>
      <point x="113.418" y="471"/>
      <point x="159.763" y="471" type="qcurve" smooth="yes"/>
      <point x="203.926" y="471"/>
      <point x="236.25" y="344.686"/>
      <point x="236.25" y="267" type="qcurve"/>
    </contour>
  </outline>
</glyph>
<glyph name="f" format="2">
  <advance width="176"/>
  <unicode hex="0066"/>
  <outline>
    <contour>
      <point x="47" y="0" type="line"/>
      <point x="101.75" y="0" type="line"/>
      <point x="101.75" y="456" type="line"/>
      <point x="163.75" y="456" type="line"/>
      <point x="163.75" y="500" type="line"/>
      <point x="102.75" y="500" type="line"/>
      <point x="102.75" y="587.842"/>
      <point x="127.399" y="671"/>
      <point x="175.75" y="671" type="qcurve"/>
      <point x="175.75" y="715" type="line"/>
      <point x="101.832" y="715"/>
      <point x="48" y="630.303"/>
      <point x="48" y="554.453" type="qcurve" smooth="yes"/>
      <point x="48" y="500"/>
      <point x="0" y="500" type="qcurve"/>
      <point x="0" y="456" type="line"/>
      <point x="47" y="456" type="line"/>
    </contour>
  </outline>
</glyph>
<glyph name="i" format="2">
  <advance width="134"/>
  <unicode hex="0069"/>
  <anchor x="32.125" y="0" name="ced"/>
  <anchor x="30.125" y="0" name="ogonek"/>
  <outline>
    <contour>
      <point x="41.125" y="0" type="line"/>
      <point x="95.875" y="0" type="line"/>
      <point x="95.875" y="500" type="line"/>
      <point x="41.125" y="500" type="line"/>
    </contour>
    <contour>
      <point x="67.25" y="614.625" type="qcurve" smooth="yes"/>
      <point x="82.4504" y="614.625"/>
      <point x="103.953" y="633.69"/>
      <point x="103.953" y="657.312" type="qcurve" smooth="yes"/>
      <point x="103.953" y="680.935"/>
      <point x="82.4504" y="700"/>
      <point x="67.25" y="700" type="qcurve" smooth="yes"/>
      <point x="52.0496" y="700"/>
      <point x="30.203" y="680.935"/>
      <point x="30.203" y="657.312" type="qcurve" smooth="yes"/>
      <point x="30.203" y="633.69"/>
      <point x="52.0496" y="614.625"/>
    </contour>
  </outline>
</glyph>
<glyph name="j" format="2">
  <advance width="151"/>
  <unicode hex="006A"/>
  <outline>
    <contour>
      <point x="-15" y="-250" type="line"/>
      <point x="93.25" y="-250"/>
      <point x="93.25" y="-65" type="qcurve" smooth="yes"/>
      <point x="93.25" y="500" type="line"/>
      <point x="38.5" y="500" type="line"/>
      <point x="38.5" y="-83.46" type="line" smooth="yes"/>
      <point x="38.5" y="-206.068"/>
      <point x="-15" y="-206" type="qcurve"/>
    </contour>
    <contour>
      <point x="65.875" y="614.625" type="qcurve" smooth="yes"/>
      <point x="81.0754" y="614.625"/>
      <point x="102.578" y="633.69"/>
      <point x="102.578" y="657.312" type="qcurve" smooth="yes"/>
      <point x="102.578" y="680.935"/>
      <point x="81.0754" y="700"/>
      <point x="65.875" y="700" type="qcurve" smooth="yes"/>
      <point x="50.6746" y="700"/>
      <point x="28.828" y="680.935"/>
      <point x="28.828" y="657.312" type="qcurve" smooth="yes"/>
      <point x="28.828" y="633.69"/>
      <point x="50.6746" y="614.625"/>
    </contour>
  </outline>
</glyph>
<glyph name="k" format="2">
  <advance width="262"/>
  <unicode hex="006B"/>
  <outline>
    <contour>
      <point x="30.2749" y="0" type="line"/>
      <point x="85.6567" y="0" type="line"/>
      <point x="85.6567" y="181.269" type="line"/>
      <point x="102.528" y="210.552" type="line"/>
      <point x="201.723" y="0" type="line"/>
      <point x="256.819" y="0" type="line"/>
      <point x="129.911" y="248.019" type="line"/>
      <point x="256.337" y="487.637" type="line"/>
      <point x="203.604" y="487.637" type="line"/>
      <point x="85.6567" y="255.661" type="line"/>
      <point x="85.6567" y="693.132" type="line"/>
      <point x="30.2749" y="693.132" type="line"/>
    </contour>
  </outline>
</glyph>
<glyph name="l" format="2">
  <advance width="155"/>
  <unicode hex="006C"/>
  <anchor x="60.5" y="750" name="top"/>
  <outline>
    <contour>
      <point x="30" y="750" type="line"/>
      <point x="30" y="130.817" type="line" smooth="yes"/>
      <point x="30" y="56.9144"/>
      <point x="66.8472" y="-8"/>
      <point x="124.75" y="-8" type="qcurve"/>
      <point x="124.75" y="39.75" type="line"/>
      <point x="98.75" y="37.7529"/>
      <point x="84.75" y="66.7103"/>
      <point x="84.75" y="111.644" type="qcurve" smooth="yes"/>
      <point x="84.75" y="750" type="line"/>
    </contour>
  </outline>
</glyph>
<glyph name="m" format="2">
  <advance width="480"/>
  <unicode hex="006D"/>
  <outline>
    <contour>
      <point x="212.5" y="0" type="line"/>
      <point x="267.25" y="0" type="line"/>
      <point x="267.25" y="256.678" type="line" smooth="yes"/>
      <point x="267.25" y="383.816"/>
      <point x="297.652" y="470.996"/>
      <point x="334.187" y="471" type="qcurve" smooth="yes"/>
      <point x="372.056" y="471.004"/>
      <point x="395" y="376.616"/>
      <point x="395" y="228.091" type="qcurve" smooth="yes"/>
      <point x="395" y="0" type="line"/>
      <point x="449.75" y="0" type="line"/>
      <point x="449.75" y="299" type="line" smooth="yes"/>
      <point x="449.75" y="432"/>
      <point x="395.409" y="515"/>
      <point x="348.403" y="515" type="qcurve" smooth="yes"/>
      <point x="316.917" y="515"/>
      <point x="266.601" y="477"/>
      <point x="250.5" y="439" type="qcurve"/>
      <point x="230.975" y="515"/>
      <point x="171.124" y="515" type="qcurve" smooth="yes"/>
      <point x="143.496" y="515"/>
      <point x="98.5363" y="482.171"/>
      <point x="83.25" y="448.5" type="qcurve"/>
      <point x="73.25" y="500" type="line"/>
      <point x="30" y="500" type="line"/>
      <point x="30" y="0" type="line"/>
      <point x="84.75" y="0" type="line"/>
      <point x="84.75" y="228.044" type="line" smooth="yes"/>
      <point x="84.75" y="379.72"/>
      <point x="116.774" y="470.971"/>
      <point x="151.912" y="471" type="qcurve" smooth="yes"/>
      <point x="186.643" y="471.028"/>
      <point x="212.5" y="382.28"/>
      <point x="212.5" y="258.905" type="qcurve" smooth="yes"/>
    </contour>
  </outline>
</glyph>
<glyph name="n" format="2">
  <advance width="310"/>
  <unicode hex="006E"/>
  <anchor x="158" y="500" name="top"/>
  <outline>
    <contour>
      <point x="30" y="0" type="line"/>
      <point x="84.75" y="0" type="line"/>
      <point x="84.75" y="227.052" type="line" smooth="yes"/>
      <point x="84.75" y="384.317"/>
      <point x="117.806" y="471"/>
      <point x="158.69" y="471" type="qcurve" smooth="yes"/>
      <point x="203.157" y="471"/>
      <point x="225" y="374.899"/>
      <point x="225" y="227.052" type="qcurve" smooth="yes"/>
      <point x="225" y="0" type="line"/>
      <point x="279.75" y="0" type="line"/>
      <point x="279.75" y="299" type="line" smooth="yes"/>
      <point x="279.75" y="432"/>
      <point x="225.477" y="515"/>
      <point x="177.862" y="515" type="qcurve" smooth="yes"/>
      <point x="147.401" y="515"/>
      <point x="96.9366" y="482.171"/>
      <point x="80.75" y="448.5" type="qcurve"/>
      <point x="73.25" y="500" type="line"/>
      <point x="30" y="500" type="line"/>
    </contour>
  </outline>
</glyph>
<glyph name="o" format="2">
  <advance width="307"/>
  <unicode hex="006F"/>
  <anchor x="153" y="500" name="top"/>
  <outline>
    <contour>
      <point x="153.468" y="-5" type="qcurve" smooth="yes"/>
      <point x="214.02" y="-5"/>
      <point x="291" y="138.245"/>
      <point x="291" y="255.511" type="qcurve" smooth="yes"/>
      <point x="291" y="372.736"/>
      <point x="213.082" y="515"/>
      <point x="153.221" y="515" type="qcurve" smooth="yes"/>
      <point x="92.9184" y="515"/>
      <point x="15" y="372.736"/>
      <point x="15" y="255.709" type="qcurve" smooth="yes"/>
      <point x="15" y="138.245"/>
      <point x="92.9184" y="-5"/>
    </contour>
    <contour>
      <point x="153.221" y="39" type="qcurve" smooth="yes"/>
      <point x="114.818" y="39"/>
      <point x="69.75" y="156.918"/>
      <point x="69.75" y="255.447" type="qcurve" smooth="yes"/>
      <point x="69.75" y="353.082"/>
      <point x="114.818" y="471"/>
      <point x="153.195" y="471" type="qcurve" smooth="yes"/>
      <point x="191.182" y="471"/>
      <point x="236.25" y="353.082"/>
      <point x="236.25" y="255.447" type="qcurve" smooth="yes"/>
      <point x="236.25" y="156.918"/>
      <point x="191.182" y="39"/>
    </contour>
  </outline>
</glyph>
<glyph name="p" format="2">
  <advance width="315"/>
  <unicode hex="0070"/>
  <outline>
    <contour>
      <point x="30" y="-250" type="line"/>
      <point x="84.75" y="-250" type="line"/>
      <point x="84.75" y="44.25" type="line"/>
      <point x="116.677" y="-5"/>
      <point x="169.165" y="-5" type="qcurve" smooth="yes"/>
      <point x="227.75" y="-5"/>
      <point x="300" y="116"/>
      <point x="300" y="249.946" type="qcurve" smooth="yes"/>
      <point x="300" y="370"/>
      <point x="240" y="515"/>
      <point x="176.882" y="515" type="qcurve" smooth="yes"/>
      <point x="145" y="515"/>
      <point x="92" y="477.244"/>
      <point x="77.6905" y="442.25" type="qcurve"/>
      <point x="63.3304" y="500" type="line"/>
      <point x="30" y="500" type="line"/>
    </contour>
    <contour>
      <point x="159.456" y="36" type="qcurve" smooth="yes"/>
      <point x="124.985" y="36"/>
      <point x="84.75" y="108.778"/>
      <point x="84.75" y="170.536" type="qcurve" smooth="yes"/>
      <point x="84.75" y="309.557" type="line" smooth="yes"/>
      <point x="84.75" y="386.756"/>
      <point x="129.49" y="471"/>
      <point x="165.839" y="471" type="qcurve" smooth="yes"/>
      <point x="214.375" y="471"/>
      <point x="245.25" y="325.253"/>
      <point x="245.25" y="249.993" type="qcurve" smooth="yes"/>
      <point x="245.25" y="36"/>
    </contour>
  </outline>
</glyph>
<glyph name="q" format="2">
  <advance width="315"/>
  <unicode hex="0071"/>
  <outline>
    <contour>
      <point x="285" y="-250" type="line"/>
      <point x="230.25" y="-250" type="line"/>
      <point x="230.25" y="44.25" type="line"/>
      <point x="198.323" y="-5"/>
      <point x="145.835" y="-5" type="qcurve" smooth="yes"/>
      <point x="87.25" y="-5"/>
      <point x="15" y="116"/>
      <point x="15" y="249.946" type="qcurve" smooth="yes"/>
      <point x="15" y="370"/>
      <point x="75" y="515"/>
      <point x="138.118" y="515" type="qcurve" smooth="yes"/>
      <point x="170" y="515"/>
      <point x="223" y="477.244"/>
      <point x="237.31" y="442.25" type="qcurve"/>
      <point x="251.67" y="500" type="line"/>
      <point x="285" y="500" type="line"/>
    </contour>
    <contour>
      <point x="155.544" y="36" type="qcurve" smooth="yes"/>
      <point x="190.015" y="36"/>
      <point x="230.25" y="108.778"/>
      <point x="230.25" y="170.536" type="qcurve" smooth="yes"/>
      <point x="230.25" y="309.557" type="line" smooth="yes"/>
      <point x="230.25" y="386.756"/>
      <point x="185.51" y="471"/>
      <point x="149.161" y="471" type="qcurve" smooth="yes"/>
      <point x="100.625" y="471"/>
      <point x="69.75" y="325.253"/>
      <point x="69.75" y="249.993" type="qcurve" smooth="yes"/>
      <point x="69.75" y="36"/>
    </contour>
  </outline>
</glyph>
<glyph name="r" format="2">
  <advance width="182"/>
  <unicode hex="0072"/>
  <anchor x="84.3125" y="500" name="top"/>
  <outline>
    <contour>
      <point x="30" y="0" type="line"/>
      <point x="84.75" y="0" type="line"/>
      <point x="84.75" y="316.616" type="line" smooth="yes"/>
      <point x="84.75" y="456"/>
      <point x="158.416" y="456" type="qcurve" smooth="yes"/>
      <point x="181.75" y="456" type="line"/>
      <point x="181.75" y="500" type="line"/>
      <point x="103.869" y="500"/>
      <point x="83.25" y="448.5" type="qcurve"/>
      <point x="72.25" y="500" type="line"/>
      <point x="30" y="500" type="line"/>
    </contour>
  </outline>
</glyph>
<glyph name="s" format="2">
  <advance width="297"/>
  <unicode hex="0073"/>
  <anchor x="148.5" y="500" name="top"/>
  <outline>
    <contour>
      <point x="153.204" y="-5" type="qcurve" smooth="yes"/>
      <point x="209.353" y="-5"/>
      <point x="282" y="74.9816"/>
      <point x="282" y="128.239" type="qcurve" smooth="yes"/>
      <point x="282" y="174.959"/>
      <point x="226.386" y="252.964"/>
      <point x="164.411" y="289.672" type="qcurve" smooth="yes"/>
      <point x="124.689" y="313.224"/>
      <point x="81.75" y="357.033"/>
      <point x="81.75" y="394.681" type="qcurve" smooth="yes"/>
      <point x="81.75" y="430.424"/>
      <point x="119.038" y="474"/>
      <point x="144.777" y="474" type="qcurve" smooth="yes"/>
      <point x="177.635" y="474"/>
      <point x="220.25" y="406.967"/>
      <point x="220.25" y="333" type="qcurve"/>
      <point x="275" y="333" type="line"/>
      <point x="275" y="416.311"/>
      <point x="208.303" y="515"/>
      <point x="149.226" y="515" type="qcurve" smooth="yes"/>
      <point x="98.3939" y="515"/>
      <point x="27" y="444.733"/>
      <point x="27" y="391.981" type="qcurve" smooth="yes"/>
      <point x="27" y="342.408"/>
      <point x="93.2626" y="267.551"/>
      <point x="144.856" y="233.551" type="qcurve" smooth="yes"/>
      <point x="188.617" y="204.783"/>
      <point x="227.25" y="155.02"/>
      <point x="227.25" y="124.281" type="qcurve" smooth="yes"/>
      <point x="227.25" y="91.3854"/>
      <point x="187.875" y="36"/>
      <point x="154.204" y="36" type="qcurve" smooth="yes"/>
      <point x="110.438" y="36"/>
      <point x="69.75" y="126.316"/>
      <point x="69.75" y="179" type="qcurve"/>
      <point x="15" y="179" type="line"/>
      <point x="15" y="83.2062"/>
      <point x="95.1943" y="-5"/>
    </contour>
  </outline>
</glyph>
<glyph name="t" format="2">
  <advance width="158"/>
  <unicode hex="0074"/>
  <anchor x="91.4979" y="699.698" name="top"/>
  <anchor x="91.4979" y="0" name="ced"/>
  <outline>
    <contour>
      <point x="47.8435" y="700" type="line"/>
      <point x="47.8435" y="566.77" type="line" smooth="yes"/>
      <point x="47.8435" y="500"/>
      <point x="0.495899" y="500" type="qcurve"/>
      <point x="0.495899" y="456" type="line"/>
      <point x="45.0685" y="456" type="line"/>
      <point x="45.0685" y="128.264" type="line" smooth="yes"/>
      <point x="45.0685" y="50.0704"/>
      <point x="94.3329" y="0"/>
      <point x="154.75" y="0" type="qcurve"/>
      <point x="154.75" y="44" type="line"/>
      <point x="129.823" y="44"/>
      <point x="103.75" y="73.1708"/>
      <point x="103.75" y="122.188" type="qcurve" smooth="yes"/>
      <point x="103.75" y="456" type="line"/>
      <point x="157.5" y="456" type="line"/>
      <point x="157.5" y="500" type="line"/>
      <point x="102.75" y="500" type="line"/>
      <point x="102.75" y="700" type="line"/>
    </contour>
  </outline>
</glyph>
<glyph name="u" format="2">
  <advance width="316"/>
  <unicode hex="0075"/>
  <anchor x="158" y="500" name="top"/>
  <outline>
    <contour>
      <point x="286" y="0" type="line"/>
      <point x="286" y="500" type="line"/>
      <point x="231.25" y="500" type="line"/>
      <point x="231.25" y="205.002" type="line" smooth="yes"/>
      <point x="231.25" y="121.284"/>
      <point x="196.305" y="39"/>
      <point x="156.036" y="39" type="qcurve" smooth="yes"/>
      <point x="114.319" y="39"/>
      <point x="84.75" y="121.284"/>
      <point x="84.75" y="205.677" type="qcurve" smooth="yes"/>
      <point x="84.75" y="500" type="line"/>
      <point x="30" y="500" type="line"/>
      <point x="30" y="168" type="line" smooth="yes"/>
      <point x="30" y="81"/>
      <point x="88.4583" y="-5"/>
      <point x="144.969" y="-5" type="qcurve" smooth="yes"/>
      <point x="209.208" y="-5"/>
      <point x="231.25" y="51.75" type="qcurve"/>
      <point x="231.25" y="0" type="line"/>
    </contour>
  </outline>
</glyph>
<glyph name="v" format="2">
  <advance width="298"/>
  <unicode hex="0076"/>
  <outline>
    <contour>
      <point x="117" y="0" type="line"/>
      <point x="182" y="0" type="line"/>
      <point x="293" y="500" type="line"/>
      <point x="238.25" y="500" type="line"/>
      <point x="149.5" y="68.25" type="line"/>
      <point x="59.75" y="500" type="line"/>
      <point x="5" y="500" type="line"/>
    </contour>
  </outline>
</glyph>
<glyph name="w" format="2">
  <advance width="467"/>
  <unicode hex="0077"/>
  <anchor x="232.875" y="500" name="top"/>
  <outline>
    <contour>
      <point x="98" y="0" type="line"/>
      <point x="165.75" y="0" type="line"/>
      <point x="232.875" y="420.032" type="line"/>
      <point x="301.625" y="0" type="line"/>
      <point x="369" y="0" type="line"/>
      <point x="462" y="500" type="line"/>
      <point x="407.25" y="500" type="line"/>
      <point x="337.5" y="68.25" type="line"/>
      <point x="259" y="500.032" type="line"/>
      <point x="207.375" y="500.032" type="line"/>
      <point x="130.5" y="68.25" type="line"/>
      <point x="59.75" y="500" type="line"/>
      <point x="5" y="500" type="line"/>
    </contour>
  </outline>
</glyph>
<glyph name="x" format="2">
  <advance width="290"/>
  <unicode hex="0078"/>
  <outline>
    <contour>
      <point x="230.25" y="0" type="line"/>
      <point x="285" y="0" type="line"/>
      <point x="181.75" y="254" type="line"/>
      <point x="270" y="500" type="line"/>
      <point x="215.25" y="500" type="line"/>
      <point x="143.5" y="281" type="line"/>
      <point x="74.75" y="500" type="line"/>
      <point x="20" y="500" type="line"/>
      <point x="105.25" y="251" type="line"/>
      <point x="5" y="0" type="line"/>
      <point x="59.75" y="0" type="line"/>
      <point x="143.5" y="227.75" type="line"/>
    </contour>
  </outline>
</glyph>
<glyph name="y" format="2">
  <advance width="301"/>
  <unicode hex="0079"/>
  <anchor x="163" y="500" name="top"/>
  <outline>
    <contour>
      <point x="7" y="-250" type="line"/>
      <point x="107.81" y="-250"/>
      <point x="167.582" y="-155.975"/>
      <point x="176.315" y="-111" type="qcurve" smooth="yes"/>
      <point x="296" y="500" type="line"/>
      <point x="241.25" y="500" type="line"/>
      <point x="160.5" y="44.622" type="line"/>
      <point x="59.75" y="500" type="line"/>
      <point x="5" y="500" type="line"/>
      <point x="129" y="-50.5" type="line"/>
      <point x="118" y="-160.034"/>
      <point x="66" y="-202.25"/>
      <point x="7" y="-202.25" type="qcurve"/>
    </contour>
  </outline>
</glyph>
<glyph name="z" format="2">
  <advance width="271"/>
  <unicode hex="007A"/>
  <anchor x="135.5" y="500" name="top"/>
  <outline>
    <contour>
      <point x="5" y="0" type="line"/>
      <point x="266" y="0" type="line"/>
      <point x="266" y="44" type="line"/>
      <point x="59.75" y="44" type="line"/>
      <point x="256" y="452.25" type="line"/>
      <point x="256" y="500" type="line"/>
      <point x="15" y="500" type="line"/>
      <point x="15" y="456" type="line"/>
      <point x="201.25" y="456" type="line"/>
      <point x="5" y="49.25" type="line"/>
    </contour>
  </outline>
</glyph>
<glyph name="braceleft" format="2">
  <advance width="258"/>
  <unicode hex="007B"/>
  <outline>
    <contour>
      <point x="218" y="750" type="qcurve"/>
      <point x="218" y="706" type="line"/>
      <point x="194.805" y="706"/>
      <point x="167.209" y="693.594"/>
      <point x="152.651" y="664.156"/>
      <point x="148.25" y="615.375"/>
      <point x="148.25" y="569.265" type="qcurve" smooth="yes"/>
      <point x="148.25" y="496.188"/>
      <point x="136.984" y="383.793"/>
      <point x="111.743" y="360.775" type="qcurve"/>
      <point x="136.83" y="338.447"/>
      <point x="148.25" y="221.334"/>
      <point x="148.25" y="141.105" type="qcurve" smooth="yes"/>
      <point x="148.25" y="91.375"/>
      <point x="152.651" y="39.5313"/>
      <point x="167.209" y="8.21875"/>
      <point x="194.805" y="-5"/>
      <point x="218" y="-5" type="qcurve"/>
      <point x="218" y="-49" type="line"/>
      <point x="186.191" y="-49"/>
      <point x="138.828" y="-36.8583"/>
      <point x="107.95" y="6.54167"/>
      <point x="93.5" y="90.7583"/>
      <point x="93.5" y="170.13" type="qcurve" smooth="yes"/>
      <point x="93.5" y="224.833"/>
      <point x="89.2591" y="295.229"/>
      <point x="77.5152" y="330.104"/>
      <point x="56.6372" y="338.5"/>
      <point x="40" y="338.5" type="qcurve"/>
      <point x="40" y="382.5" type="line"/>
      <point x="56.6372" y="382.5"/>
      <point x="77.5152" y="389.164"/>
      <point x="89.2591" y="421.385"/>
      <point x="93.5" y="488.609"/>
      <point x="93.5" y="541.557" type="qcurve" smooth="yes"/>
      <point x="93.5" y="617.493"/>
      <point x="107.95" y="697.334"/>
      <point x="138.828" y="738.483"/>
      <point x="186.191" y="750"/>
    </contour>
  </outline>
</glyph>
<glyph name="bar" format="2">
  <advance width="55"/>
  <unicode hex="007C"/>
  <outline>
    <contour>
      <point x="0" y="-98" type="line"/>
      <point x="54.75" y="-98" type="line"/>
      <point x="54.75" y="750" type="line"/>
      <point x="0" y="750" type="line"/>
    </contour>
  </outline>
</glyph>
<glyph name="cent" format="2">
  <advance width="305"/>
  <unicode hex="00A2"/>
  <anchor x="159.125" y="10" name="ced"/>
  <anchor x="159.714" y="500" name="top"/>
  <outline>
    <component base="c"/>
    <contour>
      <point x="132" y="-98" type="line"/>
      <point x="186.75" y="-98" type="line"/>
      <point x="186.75" y="32.75" type="line"/>
      <point x="132" y="32.75" type="line"/>
    </contour>
    <contour>
      <point x="132" y="476.781" type="line"/>
      <point x="186.75" y="476.781" type="line"/>
      <point x="186.75" y="607.531" type="line"/>
      <point x="132" y="607.531" type="line"/>
    </contour>
  </outline>
</glyph>
<glyph name="sterling" format="2">
  <advance width="405"/>
  <unicode hex="00A3"/>
  <outline>
    <contour>
      <point x="105.589" y="153.651" type="line" smooth="yes"/>
      <point x="105.6" y="108.424"/>
      <point x="82.5571" y="44"/>
      <point x="61.6556" y="44" type="qcurve" smooth="yes"/>
      <point x="40" y="44" type="line"/>
      <point x="40" y="0" type="line"/>
      <point x="381" y="0" type="line"/>
      <point x="381" y="44" type="line"/>
      <point x="130.25" y="44" type="line"/>
      <point x="150.706" y="44"/>
      <point x="160.25" y="132.425"/>
      <point x="160.25" y="153.997" type="qcurve" smooth="yes"/>
      <point x="160.25" y="535.431" type="line" smooth="yes"/>
      <point x="160.25" y="671"/>
      <point x="244.982" y="671" type="qcurve" smooth="yes"/>
      <point x="329.613" y="671"/>
      <point x="329.75" y="534" type="qcurve"/>
      <point x="384.5" y="534" type="line"/>
      <point x="384.5" y="715"/>
      <point x="246.411" y="715" type="qcurve" smooth="yes"/>
      <point x="105.455" y="715"/>
      <point x="105.5" y="526.372" type="qcurve" smooth="yes"/>
    </contour>
    <contour>
      <point x="50" y="277.5" type="line"/>
      <point x="297" y="277.5" type="line"/>
      <point x="297" y="325.25" type="line"/>
      <point x="50" y="325.25" type="line"/>
    </contour>
  </outline>
</glyph>
<glyph name="brokenbar" format="2">
  <advance width="55"/>
  <unicode hex="00A6"/>
  <outline>
    <contour>
      <point x="0" y="413.084" type="line"/>
      <point x="54.75" y="413.084" type="line"/>
      <point x="54.75" y="749.825" type="line"/>
      <point x="0" y="749.825" type="line"/>
    </contour>
    <contour>
      <point x="0" y="-98.1012" type="line"/>
      <point x="54.75" y="-98.1012" type="line"/>
      <point x="54.75" y="257.55" type="line"/>
      <point x="0" y="257.55" type="line"/>
    </contour>
  </outline>
</glyph>
<glyph name="dieresis" format="2">
  <advance width="274"/>
  <unicode hex="00A8"/>
  <anchor x="136.75" y="700" name="_top"/>
  <outline>
    <contour>
      <point x="0" y="793.436" type="qcurve" smooth="yes"/>
      <point x="0" y="750.224"/>
      <point x="37.2164" y="750.224" type="qcurve" smooth="yes"/>
      <point x="73.75" y="750.224"/>
      <point x="73.75" y="793.436" type="qcurve" smooth="yes"/>
      <point x="73.75" y="835.974"/>
      <point x="37.2164" y="835.974" type="qcurve" smooth="yes"/>
      <point x="0" y="835.974"/>
    </contour>
    <contour>
      <point x="199.404" y="793.436" type="qcurve" smooth="yes"/>
      <point x="199.404" y="750.224"/>
      <point x="236.621" y="750.224" type="qcurve" smooth="yes"/>
      <point x="273.154" y="750.224"/>
      <point x="273.154" y="793.436" type="qcurve" smooth="yes"/>
      <point x="273.154" y="835.974"/>
      <point x="236.621" y="835.974" type="qcurve" smooth="yes"/>
      <point x="199.404" y="835.974"/>
    </contour>
  </outline>
</glyph>
<glyph name="copyright" format="2">
  <advance width="796"/>
  <unicode hex="00A9"/>
  <outline>
    <contour>
      <point x="480.75" y="250" type="line"/>
      <point x="479.474" y="166.994"/>
      <point x="434.823" y="69"/>
      <point x="399.359" y="69" type="qcurve" smooth="yes"/>
      <point x="350.625" y="69"/>
      <point x="307.25" y="239.173"/>
      <point x="307.25" y="350.049" type="qcurve" smooth="yes"/>
      <point x="307.25" y="490.947"/>
      <point x="342.804" y="630"/>
      <point x="393.751" y="630" type="qcurve" smooth="yes"/>
      <point x="436.768" y="630"/>
      <point x="483.75" y="521.319"/>
      <point x="483.75" y="416" type="qcurve"/>
      <point x="538.5" y="416" type="line"/>
      <point x="538.5" y="535.733"/>
      <point x="475.047" y="666"/>
      <point x="398.719" y="666" type="qcurve" smooth="yes"/>
      <point x="314.114" y="666"/>
      <point x="252.5" y="502.089"/>
      <point x="252.5" y="333" type="qcurve" smooth="yes"/>
      <point x="252.5" y="198.331"/>
      <point x="315.899" y="33"/>
      <point x="395.838" y="33" type="qcurve" smooth="yes"/>
      <point x="462.912" y="33"/>
      <point x="535.5" y="149.643"/>
      <point x="535.5" y="250" type="qcurve"/>
    </contour>
    <contour>
      <point x="49.5" y="350" type="curve" smooth="yes"/>
      <point x="49.5" y="105.924"/>
      <point x="160.507" y="-58"/>
      <point x="397" y="-58" type="curve" smooth="yes"/>
      <point x="633.493" y="-58"/>
      <point x="744.5" y="105.924"/>
      <point x="744.5" y="350" type="curve" smooth="yes"/>
      <point x="744.5" y="593.126"/>
      <point x="633.493" y="758"/>
      <point x="397" y="758" type="curve" smooth="yes"/>
      <point x="160.507" y="758"/>
      <point x="49.5" y="593.126"/>
    </contour>
    <contour>
      <point x="96.75" y="350" type="curve" smooth="yes"/>
      <point x="96.75" y="564.091"/>
      <point x="191.727" y="719"/>
      <point x="397" y="719" type="curve" smooth="yes"/>
      <point x="602.273" y="719"/>
      <point x="697.25" y="564.091"/>
      <point x="697.25" y="350" type="curve" smooth="yes"/>
      <point x="697.25" y="135.083"/>
      <point x="602.273" y="-19"/>
      <point x="397" y="-19" type="curve" smooth="yes"/>
      <point x="191.727" y="-19"/>
      <point x="96.75" y="135.083"/>
    </contour>
  </outline>
</glyph>
<glyph name="ordfeminine" format="2">
  <advance width="313"/>
  <unicode hex="00AA"/>
  <outline>
    <contour>
      <point x="283" y="700.086" type="line"/>
      <point x="283" y="280" type="line"/>
      <point x="228.25" y="280" type="line"/>
      <point x="228.25" y="317.75" type="line"/>
      <point x="192.242" y="274"/>
      <point x="136.791" y="274" type="qcurve" smooth="yes"/>
      <point x="15" y="274"/>
      <point x="15" y="488.486" type="qcurve" smooth="yes"/>
      <point x="15" y="706"/>
      <point x="139.258" y="706" type="qcurve" smooth="yes"/>
      <point x="194.264" y="706"/>
      <point x="228.25" y="664.25" type="qcurve"/>
      <point x="241.56" y="700.086" type="line"/>
    </contour>
    <contour>
      <point x="157.975" y="662" type="qcurve" smooth="yes"/>
      <point x="69.75" y="662"/>
      <point x="69.75" y="492.573" type="qcurve" smooth="yes"/>
      <point x="69.75" y="321"/>
      <point x="159.44" y="321" type="qcurve" smooth="yes"/>
      <point x="228.25" y="321"/>
      <point x="228.25" y="418.692" type="qcurve" smooth="yes"/>
      <point x="228.25" y="559.7" type="line" smooth="yes"/>
      <point x="228.25" y="662"/>
    </contour>
  </outline>
</glyph>
<glyph name="registered" format="2">
  <advance width="724"/>
  <unicode hex="00AE"/>
  <anchor x="156.481" y="700" name="top"/>
  <outline>
    <contour>
      <point x="182.5" y="200" type="line"/>
      <point x="237.25" y="200" type="line"/>
      <point x="237.25" y="374.5" type="line"/>
      <point x="293.091" y="374.5"/>
      <point x="334.75" y="338.693"/>
      <point x="334.75" y="269.294" type="qcurve" smooth="yes"/>
      <point x="334.75" y="243.882"/>
      <point x="339.787" y="200"/>
      <point x="352.385" y="200" type="qcurve" smooth="yes"/>
      <point x="407.5" y="200" type="line"/>
      <point x="407.5" y="221.045" type="line"/>
      <point x="397.5" y="228.761"/>
      <point x="389.5" y="259.584"/>
      <point x="389.5" y="282.821" type="qcurve" smooth="yes"/>
      <point x="389.5" y="329.2"/>
      <point x="360.06" y="376.497"/>
      <point x="316" y="385" type="qcurve"/>
      <point x="361.649" y="395.765"/>
      <point x="398.5" y="459.64"/>
      <point x="398.5" y="503.799" type="qcurve" smooth="yes"/>
      <point x="398.5" y="557.842"/>
      <point x="344.441" y="640"/>
      <point x="289.387" y="640" type="qcurve" smooth="yes"/>
      <point x="182.5" y="640" type="line"/>
    </contour>
    <contour>
      <point x="237.25" y="418.5" type="line"/>
      <point x="237.25" y="596" type="line"/>
      <point x="270.363" y="596" type="line" smooth="yes"/>
      <point x="301.687" y="596"/>
      <point x="343.75" y="548.986"/>
      <point x="343.75" y="508.478" type="qcurve" smooth="yes"/>
      <point x="343.75" y="471.434"/>
      <point x="307.952" y="418.5"/>
      <point x="270.363" y="418.5" type="qcurve" smooth="yes"/>
    </contour>
    <contour>
      <point x="-3" y="414" type="curve" smooth="yes"/>
      <point x="-3" y="212.996"/>
      <point x="89.6389" y="78"/>
      <point x="287" y="78" type="curve" smooth="yes"/>
      <point x="484.361" y="78"/>
      <point x="577" y="212.996"/>
      <point x="577" y="414" type="curve" smooth="yes"/>
      <point x="577" y="614.221"/>
      <point x="484.361" y="750"/>
      <point x="287" y="750" type="curve" smooth="yes"/>
      <point x="89.6389" y="750"/>
      <point x="-3" y="614.221"/>
    </contour>
    <contour>
      <point x="31.75" y="414" type="curve" smooth="yes"/>
      <point x="31.75" y="589.944"/>
      <point x="112.492" y="717.25"/>
      <point x="287" y="717.25" type="curve" smooth="yes"/>
      <point x="461.508" y="717.25"/>
      <point x="542.25" y="589.944"/>
      <point x="542.25" y="414" type="curve" smooth="yes"/>
      <point x="542.25" y="237.377"/>
      <point x="461.508" y="110.75"/>
      <point x="287" y="110.75" type="curve" smooth="yes"/>
      <point x="112.492" y="110.75"/>
      <point x="31.75" y="237.377"/>
    </contour>
  </outline>
</glyph>
<glyph name="plusminus" format="2">
  <advance width="349"/>
  <unicode hex="00B1"/>
  <outline>
    <component base="minus" yOffset="-210"/>
    <contour>
      <point x="147.25" y="120.083" type="line"/>
      <point x="202.375" y="120.083" type="line"/>
      <point x="202.375" y="264.625" type="line"/>
      <point x="348" y="264.625" type="line"/>
      <point x="348" y="318.625" type="line"/>
      <point x="202.375" y="318.625" type="line"/>
      <point x="202.375" y="464.25" type="line"/>
      <point x="147.25" y="464.25" type="line"/>
      <point x="147.25" y="318.625" type="line"/>
      <point x="1.625" y="318.625" type="line"/>
      <point x="1.625" y="264.625" type="line"/>
      <point x="147.25" y="264.625" type="line"/>
    </contour>
  </outline>
</glyph>
<glyph name="paragraph" format="2">
  <advance width="341"/>
  <unicode hex="00B6"/>
  <outline>
    <contour>
      <point x="320.25" y="0" type="line"/>
      <point x="265.5" y="0" type="line"/>
      <point x="265.5" y="312" type="line"/>
      <point x="199.176" y="312" type="line" smooth="yes"/>
      <point x="121.483" y="312"/>
      <point x="40" y="425.37"/>
      <point x="40" y="507.466" type="qcurve" smooth="yes"/>
      <point x="40" y="582.72"/>
      <point x="102.804" y="700"/>
      <point x="179.964" y="700" type="qcurve" smooth="yes"/>
      <point x="320.25" y="700" type="line"/>
    </contour>
  </outline>
</glyph>
<glyph name="cedilla" format="2">
  <advance width="351"/>
  <unicode hex="00B8"/>
  <anchor x="151.875" y="0" name="_ced"/>
  <outline>
    <contour>
      <point x="124.5" y="-81.5" type="line"/>
      <point x="225.75" y="-81.5"/>
      <point x="225.75" y="-149.623" type="qcurve" smooth="yes"/>
      <point x="225.75" y="-219.001"/>
      <point x="124.5" y="-206" type="qcurve"/>
      <point x="124.5" y="-250" type="line"/>
      <point x="279.948" y="-263.193"/>
      <point x="280.576" y="-146.469" type="qcurve" smooth="yes"/>
      <point x="281.126" y="-50.696"/>
      <point x="179.25" y="-37.5" type="qcurve"/>
      <point x="179.25" y="0" type="line"/>
      <point x="124.5" y="0" type="line"/>
    </contour>
  </outline>
</glyph>
<glyph name="ordmasculine" format="2">
  <advance width="306"/>
  <unicode hex="00BA"/>
  <outline>
    <contour>
      <point x="153.458" y="280" type="qcurve" smooth="yes"/>
      <point x="213.977" y="280"/>
      <point x="291" y="403"/>
      <point x="291" y="488.093" type="qcurve" smooth="yes"/>
      <point x="291" y="575.666"/>
      <point x="213.06" y="700"/>
      <point x="153.458" y="700" type="qcurve" smooth="yes"/>
      <point x="92.9402" y="700"/>
      <point x="15" y="575.666"/>
      <point x="15" y="488.32" type="qcurve" smooth="yes"/>
      <point x="15" y="403"/>
      <point x="92.9402" y="280"/>
    </contour>
    <contour>
      <point x="153.645" y="324" type="qcurve" smooth="yes"/>
      <point x="114.924" y="324"/>
      <point x="69.75" y="414.228"/>
      <point x="69.75" y="491.177" type="qcurve" smooth="yes"/>
      <point x="69.75" y="565.453"/>
      <point x="114.924" y="656"/>
      <point x="153.645" y="656" type="qcurve" smooth="yes"/>
      <point x="191.076" y="656"/>
      <point x="236.25" y="565.453"/>
      <point x="236.25" y="491.177" type="qcurve" smooth="yes"/>
      <point x="236.25" y="414.228"/>
      <point x="191.076" y="324"/>
    </contour>
  </outline>
</glyph>
<glyph name="Agrave" format="2">
  <advance width="306"/>
  <unicode hex="00C0"/>
  <anchor x="150.701" y="700" name="top"/>
  <outline>
    <contour>
      <point x="290.5" y="0" type="line"/>
      <point x="193.011" y="700" type="line"/>
      <point x="111.864" y="700" type="line"/>
      <point x="15" y="0" type="line"/>
      <point x="69.75" y="0" type="line"/>
      <point x="95.875" y="209" type="line"/>
      <point x="209.625" y="209" type="line"/>
      <point x="235.75" y="0" type="line"/>
    </contour>
    <contour>
      <point x="203.75" y="253" type="line"/>
      <point x="101.75" y="253" type="line"/>
      <point x="152.25" y="647" type="line"/>
    </contour>
    <contour>
      <point x="131.573" y="750" type="line"/>
      <point x="169.375" y="750" type="line"/>
      <point x="122.811" y="890" type="line"/>
      <point x="68.4176" y="890" type="line"/>
    </contour>
  </outline>
</glyph>
<glyph name="Acircumflex" format="2">
  <advance width="306"/>
  <unicode hex="00C2"/>
  <anchor x="152.5" y="700" name="top"/>
  <outline>
    <contour>
      <point x="290.5" y="0" type="line"/>
      <point x="193.011" y="700" type="line"/>
      <point x="111.864" y="700" type="line"/>
      <point x="15" y="0" type="line"/>
      <point x="69.75" y="0" type="line"/>
      <point x="95.875" y="209" type="line"/>
      <point x="209.625" y="209" type="line"/>
      <point x="235.75" y="0" type="line"/>
    </contour>
    <contour>
      <point x="203.75" y="253" type="line"/>
      <point x="101.75" y="253" type="line"/>
      <point x="152.25" y="647" type="line"/>
    </contour>
    <contour>
      <point x="95.1875" y="750" type="line"/>
      <point x="148.688" y="846" type="line"/>
      <point x="202.188" y="750" type="line"/>
      <point x="256.938" y="750" type="line"/>
      <point x="177.841" y="884" type="line"/>
      <point x="119.534" y="884" type="line"/>
      <point x="40.4375" y="750" type="line"/>
    </contour>
  </outline>
</glyph>
<glyph name="AE" format="2">
  <advance width="441"/>
  <unicode hex="00C6"/>
  <outline>
    <contour>
      <point x="15.3" y="0" type="line"/>
      <point x="69.6" y="0" type="line"/>
      <point x="118.057" y="212" type="line"/>
      <point x="209.75" y="212" type="line"/>
      <point x="209.75" y="0" type="line"/>
      <point x="435.5" y="0" type="line"/>
      <point x="435.5" y="44" type="line"/>
      <point x="264.5" y="44" type="line"/>
      <point x="264.5" y="324.5" type="line"/>
      <point x="407.25" y="324.5" type="line"/>
      <point x="407.25" y="368.5" type="line"/>
      <point x="264.5" y="368.5" type="line"/>
      <point x="264.5" y="656" type="line"/>
      <point x="428.5" y="656" type="line"/>
      <point x="428.5" y="700" type="line"/>
      <point x="175.3" y="700" type="line"/>
    </contour>
    <contour>
      <point x="133.829" y="256" type="line"/>
      <point x="209.75" y="638.156" type="line"/>
      <point x="209.75" y="256" type="line"/>
    </contour>
  </outline>
</glyph>
<glyph name="Edieresis" format="2">
  <advance width="271"/>
  <unicode hex="00CB"/>
  <anchor x="168.5" y="700" name="top"/>
  <anchor x="229" y="0" name="ogonek"/>
  <anchor x="175.5" y="0" name="ced"/>
  <outline>
    <contour>
      <point x="40" y="0" type="line"/>
      <point x="265.75" y="0" type="line"/>
      <point x="265.75" y="44" type="line"/>
      <point x="94.75" y="44" type="line"/>
      <point x="94.75" y="330.75" type="line"/>
      <point x="218.75" y="330.75" type="line"/>
      <point x="218.75" y="374.75" type="line"/>
      <point x="94.75" y="374.75" type="line"/>
      <point x="94.75" y="656" type="line"/>
      <point x="258.75" y="656" type="line"/>
      <point x="258.75" y="700" type="line"/>
      <point x="40" y="700" type="line"/>
    </contour>
    <contour>
      <point x="25.5" y="793.436" type="qcurve" smooth="yes"/>
      <point x="25.5" y="750.224"/>
      <point x="62.7164" y="750.224" type="qcurve" smooth="yes"/>
      <point x="99.25" y="750.224"/>
      <point x="99.25" y="793.436" type="qcurve" smooth="yes"/>
      <point x="99.25" y="835.974"/>
      <point x="62.7164" y="835.974" type="qcurve" smooth="yes"/>
      <point x="25.5" y="835.974"/>
    </contour>
    <contour>
      <point x="224.904" y="793.436" type="qcurve" smooth="yes"/>
      <point x="224.904" y="750.224"/>
      <point x="262.121" y="750.224" type="qcurve" smooth="yes"/>
      <point x="298.654" y="750.224"/>
      <point x="298.654" y="793.436" type="qcurve" smooth="yes"/>
      <point x="298.654" y="835.974"/>
      <point x="262.121" y="835.974" type="qcurve" smooth="yes"/>
      <point x="224.904" y="835.974"/>
    </contour>
  </outline>
</glyph>
<glyph name="Igrave" format="2">
  <advance width="135"/>
  <unicode hex="00CC"/>
  <anchor x="67.375" y="700" name="top"/>
  <anchor x="64.25" y="0" name="ced"/>
  <outline>
    <contour>
      <point x="40" y="0" type="line"/>
      <point x="94.75" y="0" type="line"/>
      <point x="94.75" y="700" type="line"/>
      <point x="40" y="700" type="line"/>
    </contour>
    <contour>
      <point x="46.8055" y="750" type="line"/>
      <point x="84.6078" y="750" type="line"/>
      <point x="38.0435" y="890" type="line"/>
      <point x="-16.3496" y="890" type="line"/>
    </contour>
  </outline>
</glyph>
<glyph name="Iacute" format="2">
  <advance width="135"/>
  <unicode hex="00CD"/>
  <anchor x="67.375" y="700" name="top"/>
  <anchor x="64.25" y="0" name="ced"/>
  <outline>
    <contour>
      <point x="40" y="0" type="line"/>
      <point x="94.75" y="0" type="line"/>
      <point x="94.75" y="700" type="line"/>
      <point x="40" y="700" type="line"/>
    </contour>
    <contour>
      <point x="82.0515" y="750" type="line"/>
      <point x="130.463" y="890" type="line"/>
      <point x="75.5001" y="890" type="line"/>
      <point x="44.83" y="750" type="line"/>
    </contour>
  </outline>
</glyph>
<glyph name="Icircumflex" format="2">
  <advance width="135"/>
  <unicode hex="00CE"/>
  <anchor x="67.375" y="700" name="top"/>
  <anchor x="64.25" y="0" name="ced"/>
  <outline>
    <contour>
      <point x="40" y="0" type="line"/>
      <point x="94.75" y="0" type="line"/>
      <point x="94.75" y="700" type="line"/>
      <point x="40" y="700" type="line"/>
    </contour>
    <contour>
      <point x="13.875" y="750" type="line"/>
      <point x="67.375" y="846" type="line"/>
      <point x="120.875" y="750" type="line"/>
      <point x="175.625" y="750" type="line"/>
      <point x="96.5288" y="884" type="line"/>
      <point x="38.2212" y="884" type="line"/>
      <point x="-40.875" y="750" type="line"/>
    </contour>
  </outline>
</glyph>
<glyph name="Idieresis" format="2">
  <advance width="135"/>
  <unicode hex="00CF"/>
  <anchor x="67.375" y="700" name="top"/>
  <anchor x="64.25" y="0" name="ced"/>
  <outline>
    <contour>
      <point x="40" y="0" type="line"/>
      <point x="94.75" y="0" type="line"/>
      <point x="94.75" y="700" type="line"/>
      <point x="40" y="700" type="line"/>
    </contour>
    <contour>
      <point x="-69.375" y="793.436" type="qcurve" smooth="yes"/>
      <point x="-69.375" y="750.224"/>
      <point x="-32.1586" y="750.224" type="qcurve" smooth="yes"/>
      <point x="4.375" y="750.224"/>
      <point x="4.375" y="793.436" type="qcurve" smooth="yes"/>
      <point x="4.375" y="835.974"/>
      <point x="-32.1586" y="835.974" type="qcurve" smooth="yes"/>
      <point x="-69.375" y="835.974"/>
    </contour>
    <contour>
      <point x="130.029" y="793.436" type="qcurve" smooth="yes"/>
      <point x="130.029" y="750.224"/>
      <point x="167.246" y="750.224" type="qcurve" smooth="yes"/>
      <point x="203.779" y="750.224"/>
      <point x="203.779" y="793.436" type="qcurve" smooth="yes"/>
      <point x="203.779" y="835.974"/>
      <point x="167.246" y="835.974" type="qcurve" smooth="yes"/>
      <point x="130.029" y="835.974"/>
    </contour>
  </outline>
</glyph>
<glyph name="Otilde" format="2">
  <advance width="347"/>
  <unicode hex="00D5"/>
  <anchor x="173.25" y="700" name="top"/>
  <outline>
    <contour>
      <point x="173.702" y="-15" type="qcurve" smooth="yes"/>
      <point x="249.649" y="-15"/>
      <point x="326.5" y="192"/>
      <point x="326.5" y="349.346" type="qcurve" smooth="yes"/>
      <point x="326.5" y="514"/>
      <point x="242.323" y="721"/>
      <point x="173.702" y="721" type="qcurve" smooth="yes"/>
      <point x="105.081" y="721"/>
      <point x="20" y="514"/>
      <point x="20" y="349.385" type="qcurve" smooth="yes"/>
      <point x="20" y="192"/>
      <point x="97.7552" y="-15"/>
    </contour>
    <contour>
      <point x="173.907" y="29" type="qcurve" smooth="yes"/>
      <point x="120.468" y="29"/>
      <point x="77" y="216.465"/>
      <point x="77" y="349.055" type="qcurve" smooth="yes"/>
      <point x="77" y="489.535"/>
      <point x="126.585" y="677"/>
      <point x="173.873" y="677" type="qcurve" smooth="yes"/>
      <point x="221.102" y="677"/>
      <point x="269.5" y="490.619"/>
      <point x="269.5" y="348.884" type="qcurve" smooth="yes"/>
      <point x="269.5" y="215.381"/>
      <point x="227.274" y="29"/>
    </contour>
    <contour>
      <point x="103.921" y="750" type="line"/>
      <point x="103.921" y="809.413"/>
      <point x="124.974" y="809.413" type="qcurve" smooth="yes"/>
      <point x="141.95" y="809.413"/>
      <point x="187.197" y="750"/>
      <point x="217.522" y="750" type="qcurve" smooth="yes"/>
      <point x="252.683" y="750"/>
      <point x="297.281" y="800.081"/>
      <point x="297.421" y="862.105" type="qcurve"/>
      <point x="240.921" y="862.105" type="line"/>
      <point x="240.921" y="800.587"/>
      <point x="218.747" y="800.587" type="qcurve" smooth="yes"/>
      <point x="201.422" y="800.587"/>
      <point x="153.263" y="860"/>
      <point x="123.162" y="860" type="qcurve" smooth="yes"/>
      <point x="88.328" y="860"/>
      <point x="47.4213" y="810.341"/>
      <point x="47.4213" y="750" type="qcurve"/>
    </contour>
  </outline>
</glyph>
<glyph name="Odieresis" format="2">
  <advance width="347"/>
  <unicode hex="00D6"/>
  <anchor x="173.25" y="700" name="top"/>
  <outline>
    <contour>
      <point x="173.702" y="-15" type="qcurve" smooth="yes"/>
      <point x="249.649" y="-15"/>
      <point x="326.5" y="192"/>
      <point x="326.5" y="349.346" type="qcurve" smooth="yes"/>
      <point x="326.5" y="514"/>
      <point x="242.323" y="721"/>
      <point x="173.702" y="721" type="qcurve" smooth="yes"/>
      <point x="105.081" y="721"/>
      <point x="20" y="514"/>
      <point x="20" y="349.385" type="qcurve" smooth="yes"/>
      <point x="20" y="192"/>
      <point x="97.7552" y="-15"/>
    </contour>
    <contour>
      <point x="173.907" y="29" type="qcurve" smooth="yes"/>
      <point x="120.468" y="29"/>
      <point x="77" y="216.465"/>
      <point x="77" y="349.055" type="qcurve" smooth="yes"/>
      <point x="77" y="489.535"/>
      <point x="126.585" y="677"/>
      <point x="173.873" y="677" type="qcurve" smooth="yes"/>
      <point x="221.102" y="677"/>
      <point x="269.5" y="490.619"/>
      <point x="269.5" y="348.884" type="qcurve" smooth="yes"/>
      <point x="269.5" y="215.381"/>
      <point x="227.274" y="29"/>
    </contour>
    <contour>
      <point x="36.5" y="793.436" type="qcurve" smooth="yes"/>
      <point x="36.5" y="750.224"/>
      <point x="73.7164" y="750.224" type="qcurve" smooth="yes"/>
      <point x="110.25" y="750.224"/>
      <point x="110.25" y="793.436" type="qcurve" smooth="yes"/>
      <point x="110.25" y="835.974"/>
      <point x="73.7164" y="835.974" type="qcurve" smooth="yes"/>
      <point x="36.5" y="835.974"/>
    </contour>
    <contour>
      <point x="235.904" y="793.436" type="qcurve" smooth="yes"/>
      <point x="235.904" y="750.224"/>
      <point x="273.121" y="750.224" type="qcurve" smooth="yes"/>
      <point x="309.654" y="750.224"/>
      <point x="309.654" y="793.436" type="qcurve" smooth="yes"/>
      <point x="309.654" y="835.974"/>
      <point x="273.121" y="835.974" type="qcurve" smooth="yes"/>
      <point x="235.904" y="835.974"/>
    </contour>
  </outline>
</glyph>
<glyph name="Oslash" format="2">
  <advance width="347"/>
  <unicode hex="00D8"/>
  <anchor x="173.25" y="700" name="top"/>
  <outline>
    <component base="O"/>
    <contour>
      <point x="36.5" y="-27.25" type="line"/>
      <point x="86.25" y="-45" type="line"/>
      <point x="316.25" y="731.25" type="line"/>
      <point x="265.5" y="750" type="line"/>
    </contour>
  </outline>
</glyph>
<glyph name="Ugrave" format="2">
  <advance width="372"/>
  <unicode hex="00D9"/>
  <anchor x="198.5" y="700" name="top"/>
  <anchor x="198.5" y="0.298" name="ced"/>
  <outline>
    <contour>
      <point x="40" y="160" type="line" smooth="yes"/>
      <point x="40" y="79.4939"/>
      <point x="115.895" y="-21"/>
      <point x="184.241" y="-21" type="qcurve" smooth="yes"/>
      <point x="253.144" y="-21"/>
      <point x="332" y="79.4939"/>
      <point x="332" y="160" type="qcurve" smooth="yes"/>
      <point x="332" y="700" type="line"/>
      <point x="277.25" y="700" type="line"/>
      <point x="277.25" y="152.5" type="line" smooth="yes"/>
      <point x="277.25" y="22.9918"/>
      <point x="185.754" y="22.9945" type="qcurve" smooth="yes"/>
      <point x="94.75" y="22.9918"/>
      <point x="94.75" y="152.5" type="qcurve" smooth="yes"/>
      <point x="94.75" y="700" type="line"/>
      <point x="40" y="700" type="line"/>
    </contour>
    <contour>
      <point x="206.573" y="750" type="line"/>
      <point x="244.375" y="750" type="line"/>
      <point x="197.811" y="890" type="line"/>
      <point x="143.418" y="890" type="line"/>
    </contour>
  </outline>
</glyph>
<glyph name="Uacute" format="2">
  <advance width="372"/>
  <unicode hex="00DA"/>
  <anchor x="198.5" y="700" name="top"/>
  <anchor x="198.5" y="0.298" name="ced"/>
  <outline>
    <contour>
      <point x="40" y="160" type="line" smooth="yes"/>
      <point x="40" y="79.4939"/>
      <point x="115.895" y="-21"/>
      <point x="184.241" y="-21" type="qcurve" smooth="yes"/>
      <point x="253.144" y="-21"/>
      <point x="332" y="79.4939"/>
      <point x="332" y="160" type="qcurve" smooth="yes"/>
      <point x="332" y="700" type="line"/>
      <point x="277.25" y="700" type="line"/>
      <point x="277.25" y="152.5" type="line" smooth="yes"/>
      <point x="277.25" y="22.9918"/>
      <point x="185.754" y="22.9945" type="qcurve" smooth="yes"/>
      <point x="94.75" y="22.9918"/>
      <point x="94.75" y="152.5" type="qcurve" smooth="yes"/>
      <point x="94.75" y="700" type="line"/>
      <point x="40" y="700" type="line"/>
    </contour>
    <contour>
      <point x="213.177" y="750" type="line"/>
      <point x="261.588" y="890" type="line"/>
      <point x="206.625" y="890" type="line"/>
      <point x="175.955" y="750" type="line"/>
    </contour>
  </outline>
</glyph>
<glyph name="Ucircumflex" format="2">
  <advance width="372"/>
  <unicode hex="00DB"/>
  <anchor x="198.5" y="700" name="top"/>
  <anchor x="198.5" y="0.298" name="ced"/>
  <outline>
    <contour>
      <point x="40" y="160" type="line" smooth="yes"/>
      <point x="40" y="79.4939"/>
      <point x="115.895" y="-21"/>
      <point x="184.241" y="-21" type="qcurve" smooth="yes"/>
      <point x="253.144" y="-21"/>
      <point x="332" y="79.4939"/>
      <point x="332" y="160" type="qcurve" smooth="yes"/>
      <point x="332" y="700" type="line"/>
      <point x="277.25" y="700" type="line"/>
      <point x="277.25" y="152.5" type="line" smooth="yes"/>
      <point x="277.25" y="22.9918"/>
      <point x="185.754" y="22.9945" type="qcurve" smooth="yes"/>
      <point x="94.75" y="22.9918"/>
      <point x="94.75" y="152.5" type="qcurve" smooth="yes"/>
      <point x="94.75" y="700" type="line"/>
      <point x="40" y="700" type="line"/>
    </contour>
    <contour>
      <point x="145" y="750" type="line"/>
      <point x="198.5" y="846" type="line"/>
      <point x="252" y="750" type="line"/>
      <point x="306.75" y="750" type="line"/>
      <point x="227.654" y="884" type="line"/>
      <point x="169.346" y="884" type="line"/>
      <point x="90.25" y="750" type="line"/>
    </contour>
  </outline>
</glyph>
<glyph name="Udieresis" format="2">
  <advance width="372"/>
  <unicode hex="00DC"/>
  <anchor x="186" y="308.244" name="top"/>
  <anchor x="198.5" y="0.298" name="ced"/>
  <outline>
    <contour>
      <point x="40" y="160" type="line" smooth="yes"/>
      <point x="40" y="79.4939"/>
      <point x="115.895" y="-21"/>
      <point x="184.241" y="-21" type="qcurve" smooth="yes"/>
      <point x="253.144" y="-21"/>
      <point x="332" y="79.4939"/>
      <point x="332" y="160" type="qcurve" smooth="yes"/>
      <point x="332" y="700" type="line"/>
      <point x="277.25" y="700" type="line"/>
      <point x="277.25" y="152.5" type="line" smooth="yes"/>
      <point x="277.25" y="22.9918"/>
      <point x="185.754" y="22.9945" type="qcurve" smooth="yes"/>
      <point x="94.75" y="22.9918"/>
      <point x="94.75" y="152.5" type="qcurve" smooth="yes"/>
      <point x="94.75" y="700" type="line"/>
      <point x="40" y="700" type="line"/>
    </contour>
    <contour>
      <point x="49.4229" y="793.436" type="qcurve" smooth="yes"/>
      <point x="49.4229" y="750.224"/>
      <point x="86.6394" y="750.224" type="qcurve" smooth="yes"/>
      <point x="123.173" y="750.224"/>
      <point x="123.173" y="793.436" type="qcurve" smooth="yes"/>
      <point x="123.173" y="835.974"/>
      <point x="86.6394" y="835.974" type="qcurve" smooth="yes"/>
      <point x="49.4229" y="835.974"/>
    </contour>
    <contour>
      <point x="248.827" y="793.436" type="qcurve" smooth="yes"/>
      <point x="248.827" y="750.224"/>
      <point x="286.043" y="750.224" type="qcurve" smooth="yes"/>
      <point x="322.577" y="750.224"/>
      <point x="322.577" y="793.436" type="qcurve" smooth="yes"/>
      <point x="322.577" y="835.974"/>
      <point x="286.043" y="835.974" type="qcurve" smooth="yes"/>
      <point x="248.827" y="835.974"/>
    </contour>
  </outline>
</glyph>
<glyph name="Yacute" format="2">
  <advance width="318"/>
  <unicode hex="00DD"/>
  <anchor x="182.75" y="700" name="top"/>
  <outline>
    <contour>
      <point x="131.125" y="0" type="line"/>
      <point x="185.875" y="0" type="line"/>
      <point x="185.875" y="304" type="line"/>
      <point x="303" y="700" type="line"/>
      <point x="248.25" y="700" type="line"/>
      <point x="158.5" y="351" type="line"/>
      <point x="69.75" y="700" type="line"/>
      <point x="15" y="700" type="line"/>
      <point x="131.125" y="304" type="line"/>
    </contour>
    <contour>
      <point x="197.427" y="750" type="line"/>
      <point x="245.838" y="890" type="line"/>
      <point x="190.875" y="890" type="line"/>
      <point x="160.205" y="750" type="line"/>
    </contour>
  </outline>
</glyph>
<glyph name="Thorn" format="2">
  <advance width="350"/>
  <unicode hex="00DE"/>
  <outline>
    <contour>
      <point x="40.4566" y="0" type="line"/>
      <point x="95.2066" y="0" type="line"/>
      <point x="95.2066" y="162" type="line"/>
      <point x="159.679" y="162" type="line" smooth="yes"/>
      <point x="329.457" y="162"/>
      <point x="329.457" y="358.8" type="qcurve" smooth="yes"/>
      <point x="329.457" y="550"/>
      <point x="172.574" y="550" type="qcurve" smooth="yes"/>
      <point x="95.2066" y="550" type="line"/>
      <point x="95.2066" y="700" type="line"/>
      <point x="40.4566" y="700" type="line"/>
    </contour>
    <contour>
      <point x="95.2066" y="206" type="line"/>
      <point x="95.2066" y="506" type="line"/>
      <point x="158.437" y="506" type="line" smooth="yes"/>
      <point x="278.457" y="506"/>
      <point x="278.457" y="353.12" type="qcurve" smooth="yes"/>
      <point x="278.457" y="206"/>
      <point x="164.465" y="206" type="qcurve" smooth="yes"/>
    </contour>
  </outline>
</glyph>
<glyph name="germandbls" format="2">
  <advance width="396"/>
  <unicode hex="00DF"/>
  <outline>
    <contour>
      <point x="176.1" y="0" type="line"/>
      <point x="376" y="0"/>
      <point x="376" y="188.709" type="qcurve" smooth="yes"/>
      <point x="376" y="304.79"/>
      <point x="274" y="363.95" type="qcurve"/>
      <point x="356" y="420.306"/>
      <point x="356" y="538.855" type="qcurve" smooth="yes"/>
      <point x="356" y="715"/>
      <point x="207.216" y="715" type="qcurve" smooth="yes"/>
      <point x="40" y="715"/>
      <point x="40" y="485" type="qcurve" smooth="yes"/>
      <point x="40" y="0" type="line"/>
      <point x="91.75" y="0" type="line"/>
      <point x="91.75" y="503.769" type="line" smooth="yes"/>
      <point x="91.75" y="671"/>
      <point x="202.162" y="671" type="qcurve" smooth="yes"/>
      <point x="301.25" y="671"/>
      <point x="301.25" y="537.709" type="qcurve" smooth="yes"/>
      <point x="301.25" y="386.5"/>
      <point x="176.1" y="386.5" type="qcurve"/>
      <point x="176.1" y="345.5" type="line"/>
      <point x="321.25" y="345.5"/>
      <point x="321.25" y="193.383" type="qcurve" smooth="yes"/>
      <point x="321.25" y="44"/>
      <point x="176.1" y="44" type="qcurve"/>
    </contour>
  </outline>
</glyph>
<glyph name="agrave" format="2">
  <advance width="311"/>
  <unicode hex="00E0"/>
  <anchor x="160" y="500" name="top"/>
  <outline>
    <contour>
      <point x="126.382" y="-5" type="qcurve" smooth="yes"/>
      <point x="156.598" y="-5"/>
      <point x="210.383" y="22"/>
      <point x="225.75" y="54" type="qcurve"/>
      <point x="225.75" y="0" type="line"/>
      <point x="280.5" y="0" type="line"/>
      <point x="280.5" y="337" type="line" smooth="yes"/>
      <point x="280.5" y="429"/>
      <point x="224.253" y="515"/>
      <point x="162.656" y="515" type="qcurve" smooth="yes"/>
      <point x="101.454" y="515"/>
      <point x="33.25" y="431"/>
      <point x="33.25" y="330" type="qcurve"/>
      <point x="88" y="330" type="line"/>
      <point x="88" y="405.362"/>
      <point x="126.023" y="471"/>
      <point x="164.281" y="471" type="qcurve" smooth="yes"/>
      <point x="202.62" y="471"/>
      <point x="225.75" y="405.75"/>
      <point x="225.75" y="326" type="qcurve"/>
      <point x="117.365" y="275.75"/>
      <point x="15" y="184"/>
      <point x="15" y="122.132" type="qcurve" smooth="yes"/>
      <point x="15" y="75"/>
      <point x="75.3711" y="-5"/>
    </contour>
    <contour>
      <point x="136.83" y="40.5" type="qcurve" smooth="yes"/>
      <point x="101.526" y="40.5"/>
      <point x="64.125" y="91.8597"/>
      <point x="64.125" y="121.669" type="qcurve" smooth="yes"/>
      <point x="64.125" y="171.015"/>
      <point x="172.32" y="253.967"/>
      <point x="225.75" y="281.625" type="qcurve"/>
      <point x="225.75" y="153.367" type="line" smooth="yes"/>
      <point x="225.75" y="94.3684"/>
      <point x="172.32" y="40.5"/>
    </contour>
    <contour>
      <point x="168.073" y="550" type="line"/>
      <point x="205.875" y="550" type="line"/>
      <point x="159.311" y="690" type="line"/>
      <point x="104.918" y="690" type="line"/>
    </contour>
  </outline>
</glyph>
<glyph name="atilde" format="2">
  <advance width="311"/>
  <unicode hex="00E3"/>
  <anchor x="160" y="500" name="top"/>
  <outline>
    <contour>
      <point x="126.382" y="-5" type="qcurve" smooth="yes"/>
      <point x="156.598" y="-5"/>
      <point x="210.383" y="22"/>
      <point x="225.75" y="54" type="qcurve"/>
      <point x="225.75" y="0" type="line"/>
      <point x="280.5" y="0" type="line"/>
      <point x="280.5" y="337" type="line" smooth="yes"/>
      <point x="280.5" y="429"/>
      <point x="224.253" y="515"/>
      <point x="162.656" y="515" type="qcurve" smooth="yes"/>
      <point x="101.454" y="515"/>
      <point x="33.25" y="431"/>
      <point x="33.25" y="330" type="qcurve"/>
      <point x="88" y="330" type="line"/>
      <point x="88" y="405.362"/>
      <point x="126.023" y="471"/>
      <point x="164.281" y="471" type="qcurve" smooth="yes"/>
      <point x="202.62" y="471"/>
      <point x="225.75" y="405.75"/>
      <point x="225.75" y="326" type="qcurve"/>
      <point x="117.365" y="275.75"/>
      <point x="15" y="184"/>
      <point x="15" y="122.132" type="qcurve" smooth="yes"/>
      <point x="15" y="75"/>
      <point x="75.3711" y="-5"/>
    </contour>
    <contour>
      <point x="136.83" y="40.5" type="qcurve" smooth="yes"/>
      <point x="101.526" y="40.5"/>
      <point x="64.125" y="91.8597"/>
      <point x="64.125" y="121.669" type="qcurve" smooth="yes"/>
      <point x="64.125" y="171.015"/>
      <point x="172.32" y="253.967"/>
      <point x="225.75" y="281.625" type="qcurve"/>
      <point x="225.75" y="153.367" type="line" smooth="yes"/>
      <point x="225.75" y="94.3684"/>
      <point x="172.32" y="40.5"/>
    </contour>
    <contour>
      <point x="81.5" y="550" type="line"/>
      <point x="81.5" y="609.413"/>
      <point x="102.552" y="609.413" type="qcurve" smooth="yes"/>
      <point x="119.529" y="609.413"/>
      <point x="164.776" y="550"/>
      <point x="195.101" y="550" type="qcurve" smooth="yes"/>
      <point x="230.262" y="550"/>
      <point x="274.86" y="600.081"/>
      <point x="275" y="662.105" type="qcurve"/>
      <point x="218.5" y="662.105" type="line"/>
      <point x="218.5" y="600.587"/>
      <point x="196.326" y="600.587" type="qcurve" smooth="yes"/>
      <point x="179" y="600.587"/>
      <point x="130.841" y="660"/>
      <point x="100.74" y="660" type="qcurve" smooth="yes"/>
      <point x="65.9061" y="660"/>
      <point x="25" y="610.341"/>
      <point x="25" y="550" type="qcurve"/>
    </contour>
  </outline>
</glyph>
<glyph name="adieresis" format="2">
  <advance width="311"/>
  <unicode hex="00E4"/>
  <anchor x="160" y="500" name="top"/>
  <outline>
    <contour>
      <point x="126.382" y="-5" type="qcurve" smooth="yes"/>
      <point x="156.598" y="-5"/>
      <point x="210.383" y="22"/>
      <point x="225.75" y="54" type="qcurve"/>
      <point x="225.75" y="0" type="line"/>
      <point x="280.5" y="0" type="line"/>
      <point x="280.5" y="337" type="line" smooth="yes"/>
      <point x="280.5" y="429"/>
      <point x="224.253" y="515"/>
      <point x="162.656" y="515" type="qcurve" smooth="yes"/>
      <point x="101.454" y="515"/>
      <point x="33.25" y="431"/>
      <point x="33.25" y="330" type="qcurve"/>
      <point x="88" y="330" type="line"/>
      <point x="88" y="405.362"/>
      <point x="126.023" y="471"/>
      <point x="164.281" y="471" type="qcurve" smooth="yes"/>
      <point x="202.62" y="471"/>
      <point x="225.75" y="405.75"/>
      <point x="225.75" y="326" type="qcurve"/>
      <point x="117.365" y="275.75"/>
      <point x="15" y="184"/>
      <point x="15" y="122.132" type="qcurve" smooth="yes"/>
      <point x="15" y="75"/>
      <point x="75.3711" y="-5"/>
    </contour>
    <contour>
      <point x="136.83" y="40.5" type="qcurve" smooth="yes"/>
      <point x="101.526" y="40.5"/>
      <point x="64.125" y="91.8597"/>
      <point x="64.125" y="121.669" type="qcurve" smooth="yes"/>
      <point x="64.125" y="171.015"/>
      <point x="172.32" y="253.967"/>
      <point x="225.75" y="281.625" type="qcurve"/>
      <point x="225.75" y="153.367" type="line" smooth="yes"/>
      <point x="225.75" y="94.3684"/>
      <point x="172.32" y="40.5"/>
    </contour>
    <contour>
      <point x="17" y="593.436" type="qcurve" smooth="yes"/>
      <point x="17" y="550.224"/>
      <point x="54.2164" y="550.224" type="qcurve" smooth="yes"/>
      <point x="90.75" y="550.224"/>
      <point x="90.75" y="593.436" type="qcurve" smooth="yes"/>
      <point x="90.75" y="635.974"/>
      <point x="54.2164" y="635.974" type="qcurve" smooth="yes"/>
      <point x="17" y="635.974"/>
    </contour>
    <contour>
      <point x="216.404" y="593.436" type="qcurve" smooth="yes"/>
      <point x="216.404" y="550.224"/>
      <point x="253.621" y="550.224" type="qcurve" smooth="yes"/>
      <point x="290.154" y="550.224"/>
      <point x="290.154" y="593.436" type="qcurve" smooth="yes"/>
      <point x="290.154" y="635.974"/>
      <point x="253.621" y="635.974" type="qcurve" smooth="yes"/>
      <point x="216.404" y="635.974"/>
    </contour>
  </outline>
</glyph>
<glyph name="aring" format="2">
  <advance width="311"/>
  <unicode hex="00E5"/>
  <anchor x="160" y="500" name="top"/>
  <outline>
    <contour>
      <point x="126.382" y="-5" type="qcurve" smooth="yes"/>
      <point x="156.598" y="-5"/>
      <point x="210.383" y="22"/>
      <point x="225.75" y="54" type="qcurve"/>
      <point x="225.75" y="0" type="line"/>
      <point x="280.5" y="0" type="line"/>
      <point x="280.5" y="337" type="line" smooth="yes"/>
      <point x="280.5" y="429"/>
      <point x="224.253" y="515"/>
      <point x="162.656" y="515" type="qcurve" smooth="yes"/>
      <point x="101.454" y="515"/>
      <point x="33.25" y="431"/>
      <point x="33.25" y="330" type="qcurve"/>
      <point x="88" y="330" type="line"/>
      <point x="88" y="405.362"/>
      <point x="126.023" y="471"/>
      <point x="164.281" y="471" type="qcurve" smooth="yes"/>
      <point x="202.62" y="471"/>
      <point x="225.75" y="405.75"/>
      <point x="225.75" y="326" type="qcurve"/>
      <point x="117.365" y="275.75"/>
      <point x="15" y="184"/>
      <point x="15" y="122.132" type="qcurve" smooth="yes"/>
      <point x="15" y="75"/>
      <point x="75.3711" y="-5"/>
    </contour>
    <contour>
      <point x="136.83" y="40.5" type="qcurve" smooth="yes"/>
      <point x="101.526" y="40.5"/>
      <point x="64.125" y="91.8597"/>
      <point x="64.125" y="121.669" type="qcurve" smooth="yes"/>
      <point x="64.125" y="171.015"/>
      <point x="172.32" y="253.967"/>
      <point x="225.75" y="281.625" type="qcurve"/>
      <point x="225.75" y="153.367" type="line" smooth="yes"/>
      <point x="225.75" y="94.3684"/>
      <point x="172.32" y="40.5"/>
    </contour>
    <contour>
      <point x="99" y="620.551" type="qcurve" smooth="yes"/>
      <point x="99" y="550"/>
      <point x="161.109" y="550" type="qcurve" smooth="yes"/>
      <point x="221" y="550"/>
      <point x="221" y="620.551" type="qcurve" smooth="yes"/>
      <point x="221" y="690"/>
      <point x="161.109" y="690" type="qcurve" smooth="yes"/>
      <point x="99" y="690"/>
    </contour>
    <contour>
      <point x="125.369" y="620.5" type="qcurve" smooth="yes"/>
      <point x="125.369" y="662.393"/>
      <point x="160" y="662.393" type="qcurve" smooth="yes"/>
      <point x="194.631" y="662.393"/>
      <point x="194.631" y="620.5" type="qcurve" smooth="yes"/>
      <point x="194.631" y="578.607"/>
      <point x="160" y="578.607" type="qcurve" smooth="yes"/>
      <point x="125.369" y="578.607"/>
    </contour>
  </outline>
</glyph>
<glyph name="ccedilla" format="2">
  <advance width="305"/>
  <unicode hex="00E7"/>
  <anchor x="159.125" y="10" name="ced"/>
  <anchor x="159.714" y="500" name="top"/>
  <outline>
    <contour>
      <point x="156.368" y="-5" type="qcurve" smooth="yes"/>
      <point x="215.683" y="-5"/>
      <point x="288" y="112.706"/>
      <point x="288" y="182" type="qcurve"/>
      <point x="233.25" y="182" type="line"/>
      <point x="233.25" y="123.906"/>
      <point x="194.5" y="39"/>
      <point x="157.044" y="39" type="qcurve" smooth="yes"/>
      <point x="112.571" y="39"/>
      <point x="69.75" y="161.327"/>
      <point x="69.75" y="255.221" type="qcurve" smooth="yes"/>
      <point x="69.75" y="348.673"/>
      <point x="112.139" y="471"/>
      <point x="158.589" y="471" type="qcurve" smooth="yes"/>
      <point x="192.875" y="471"/>
      <point x="235.25" y="403.651"/>
      <point x="235.25" y="330" type="qcurve"/>
      <point x="290" y="330" type="line"/>
      <point x="290" y="411.048"/>
      <point x="216.733" y="515"/>
      <point x="159.439" y="515" type="qcurve" smooth="yes"/>
      <point x="92.9167" y="515"/>
      <point x="15" y="372.736"/>
      <point x="15" y="254.853" type="qcurve" smooth="yes"/>
      <point x="15" y="138.245"/>
      <point x="91.0369" y="-5"/>
    </contour>
    <contour>
      <point x="131.75" y="-71.5" type="line"/>
      <point x="233" y="-71.5"/>
      <point x="233" y="-139.623" type="qcurve" smooth="yes"/>
      <point x="233" y="-209.001"/>
      <point x="131.75" y="-196" type="qcurve"/>
      <point x="131.75" y="-240" type="line"/>
      <point x="287.198" y="-253.193"/>
      <point x="287.826" y="-136.469" type="qcurve" smooth="yes"/>
      <point x="288.376" y="-40.696"/>
      <point x="186.5" y="-27.5" type="qcurve"/>
      <point x="186.5" y="10" type="line"/>
      <point x="131.75" y="10" type="line"/>
    </contour>
  </outline>
</glyph>
<glyph name="igrave" format="2">
  <advance width="115"/>
  <unicode hex="00EC"/>
  <anchor x="57.375" y="500" name="top"/>
  <anchor x="41.75" y="0" name="ced"/>
  <anchor x="36.75" y="0" name="ogonek"/>
  <outline>
    <contour>
      <point x="30" y="0" type="line"/>
      <point x="84.75" y="0" type="line"/>
      <point x="84.75" y="500" type="line"/>
      <point x="30" y="500" type="line"/>
    </contour>
    <contour>
      <point x="36.8055" y="550" type="line"/>
      <point x="74.6078" y="550" type="line"/>
      <point x="28.0435" y="690" type="line"/>
      <point x="-26.3496" y="690" type="line"/>
    </contour>
  </outline>
</glyph>
<glyph name="iacute" format="2">
  <advance width="115"/>
  <unicode hex="00ED"/>
  <anchor x="57.375" y="500" name="top"/>
  <anchor x="41.75" y="0" name="ced"/>
  <anchor x="36.75" y="0" name="ogonek"/>
  <outline>
    <contour>
      <point x="30" y="0" type="line"/>
      <point x="84.75" y="0" type="line"/>
      <point x="84.75" y="500" type="line"/>
      <point x="30" y="500" type="line"/>
    </contour>
    <contour>
      <point x="72.0516" y="550" type="line"/>
      <point x="120.463" y="690" type="line"/>
      <point x="65.5001" y="690" type="line"/>
      <point x="34.8301" y="550" type="line"/>
    </contour>
  </outline>
</glyph>
<glyph name="icircumflex" format="2">
  <advance width="115"/>
  <unicode hex="00EE"/>
  <anchor x="57.375" y="500" name="top"/>
  <anchor x="41.75" y="0" name="ced"/>
  <anchor x="36.75" y="0" name="ogonek"/>
  <outline>
    <contour>
      <point x="30" y="0" type="line"/>
      <point x="84.75" y="0" type="line"/>
      <point x="84.75" y="500" type="line"/>
      <point x="30" y="500" type="line"/>
    </contour>
    <contour>
      <point x="3.875" y="625" type="line"/>
      <point x="57.375" y="721" type="line"/>
      <point x="110.875" y="625" type="line"/>
      <point x="165.625" y="625" type="line"/>
      <point x="86.5288" y="759" type="line"/>
      <point x="28.2212" y="759" type="line"/>
      <point x="-50.875" y="625" type="line"/>
    </contour>
  </outline>
</glyph>
<glyph name="idieresis" format="2">
  <advance width="115"/>
  <unicode hex="00EF"/>
  <anchor x="57.375" y="500" name="top"/>
  <anchor x="41.75" y="0" name="ced"/>
  <anchor x="36.75" y="0" name="ogonek"/>
  <outline>
    <contour>
      <point x="30" y="0" type="line"/>
      <point x="84.75" y="0" type="line"/>
      <point x="84.75" y="500" type="line"/>
      <point x="30" y="500" type="line"/>
    </contour>
    <contour>
      <point x="-79.2021" y="668.436" type="qcurve" smooth="yes"/>
      <point x="-79.2021" y="625.224"/>
      <point x="-41.9856" y="625.224" type="qcurve" smooth="yes"/>
      <point x="-5.45206" y="625.224"/>
      <point x="-5.45206" y="668.436" type="qcurve" smooth="yes"/>
      <point x="-5.45206" y="710.974"/>
      <point x="-41.9856" y="710.974" type="qcurve" smooth="yes"/>
      <point x="-79.2021" y="710.974"/>
    </contour>
    <contour>
      <point x="120.202" y="668.436" type="qcurve" smooth="yes"/>
      <point x="120.202" y="625.224"/>
      <point x="157.418" y="625.224" type="qcurve" smooth="yes"/>
      <point x="193.952" y="625.224"/>
      <point x="193.952" y="668.436" type="qcurve" smooth="yes"/>
      <point x="193.952" y="710.974"/>
      <point x="157.418" y="710.974" type="qcurve" smooth="yes"/>
      <point x="120.202" y="710.974"/>
    </contour>
  </outline>
</glyph>
<glyph name="eth" format="2">
  <advance width="312"/>
  <unicode hex="00F0"/>
  <outline>
    <contour>
      <point x="136.997" y="673.85" type="line"/>
      <point x="245.25" y="526.889"/>
      <point x="248.25" y="381.649" type="qcurve"/>
      <point x="220.507" y="451"/>
      <point x="152.192" y="451" type="qcurve" smooth="yes"/>
      <point x="15" y="451"/>
      <point x="15" y="220.052" type="qcurve" smooth="yes"/>
      <point x="15" y="-15"/>
      <point x="154.043" y="-15" type="qcurve" smooth="yes"/>
      <point x="303" y="-15"/>
      <point x="303" y="297.851" type="qcurve" smooth="yes"/>
      <point x="303" y="524.064"/>
      <point x="175" y="699.961" type="qcurve"/>
    </contour>
    <contour>
      <point x="156.965" y="32.75" type="qcurve" smooth="yes"/>
      <point x="69.75" y="32.75"/>
      <point x="69.75" y="221.941" type="qcurve" smooth="yes"/>
      <point x="69.75" y="407"/>
      <point x="157.089" y="407" type="qcurve" smooth="yes"/>
      <point x="200.045" y="407"/>
      <point x="245.25" y="304.599"/>
      <point x="245.25" y="217.965" type="qcurve" smooth="yes"/>
      <point x="245.25" y="32.75"/>
    </contour>
    <contour>
      <point x="89.5" y="551.125" type="line"/>
      <point x="109" y="508.566" type="line"/>
      <point x="307" y="599.75" type="line"/>
      <point x="288.5" y="642.125" type="line"/>
    </contour>
  </outline>
</glyph>
<glyph name="ntilde" format="2">
  <advance width="310"/>
  <unicode hex="00F1"/>
  <anchor x="170.5" y="500" name="top"/>
  <outline>
    <contour>
      <point x="30" y="0" type="line"/>
      <point x="84.75" y="0" type="line"/>
      <point x="84.75" y="227.052" type="line" smooth="yes"/>
      <point x="84.75" y="384.317"/>
      <point x="117.806" y="471"/>
      <point x="158.69" y="471" type="qcurve" smooth="yes"/>
      <point x="203.157" y="471"/>
      <point x="225" y="374.899"/>
      <point x="225" y="227.052" type="qcurve" smooth="yes"/>
      <point x="225" y="0" type="line"/>
      <point x="279.75" y="0" type="line"/>
      <point x="279.75" y="299" type="line" smooth="yes"/>
      <point x="279.75" y="432"/>
      <point x="225.477" y="515"/>
      <point x="177.862" y="515" type="qcurve" smooth="yes"/>
      <point x="147.401" y="515"/>
      <point x="96.9366" y="482.171"/>
      <point x="80.75" y="448.5" type="qcurve"/>
      <point x="73.25" y="500" type="line"/>
      <point x="30" y="500" type="line"/>
    </contour>
    <contour>
      <point x="89" y="550" type="line"/>
      <point x="89" y="609.413"/>
      <point x="110.052" y="609.413" type="qcurve" smooth="yes"/>
      <point x="127.029" y="609.413"/>
      <point x="172.276" y="550"/>
      <point x="202.601" y="550" type="qcurve" smooth="yes"/>
      <point x="237.762" y="550"/>
      <point x="282.36" y="600.081"/>
      <point x="282.5" y="662.105" type="qcurve"/>
      <point x="226" y="662.105" type="line"/>
      <point x="226" y="600.587"/>
      <point x="203.826" y="600.587" type="qcurve" smooth="yes"/>
      <point x="186.5" y="600.587"/>
      <point x="138.341" y="660"/>
      <point x="108.24" y="660" type="qcurve" smooth="yes"/>
      <point x="73.4061" y="660"/>
      <point x="32.5" y="610.341"/>
      <point x="32.5" y="550" type="qcurve"/>
    </contour>
  </outline>
</glyph>
<glyph name="oacute" format="2">
  <advance width="306"/>
  <unicode hex="00F3"/>
  <anchor x="153" y="500" name="top"/>
  <outline>
    <contour>
      <point x="153.468" y="-5" type="qcurve" smooth="yes"/>
      <point x="214.02" y="-5"/>
      <point x="291" y="138.245"/>
      <point x="291" y="255.511" type="qcurve" smooth="yes"/>
      <point x="291" y="372.736"/>
      <point x="213.082" y="515"/>
      <point x="153.221" y="515" type="qcurve" smooth="yes"/>
      <point x="92.9184" y="515"/>
      <point x="15" y="372.736"/>
      <point x="15" y="255.709" type="qcurve" smooth="yes"/>
      <point x="15" y="138.245"/>
      <point x="92.9184" y="-5"/>
    </contour>
    <contour>
      <point x="153.221" y="39" type="qcurve" smooth="yes"/>
      <point x="114.818" y="39"/>
      <point x="69.75" y="156.918"/>
      <point x="69.75" y="255.447" type="qcurve" smooth="yes"/>
      <point x="69.75" y="353.082"/>
      <point x="114.818" y="471"/>
      <point x="153.195" y="471" type="qcurve" smooth="yes"/>
      <point x="191.182" y="471"/>
      <point x="236.25" y="353.082"/>
      <point x="236.25" y="255.447" type="qcurve" smooth="yes"/>
      <point x="236.25" y="156.918"/>
      <point x="191.182" y="39"/>
    </contour>
    <contour>
      <point x="167.677" y="550" type="line"/>
      <point x="216.088" y="690" type="line"/>
      <point x="161.125" y="690" type="line"/>
      <point x="130.455" y="550" type="line"/>
    </contour>
  </outline>
</glyph>
<glyph name="otilde" format="2">
  <advance width="306"/>
  <unicode hex="00F5"/>
  <anchor x="165.5" y="500" name="top"/>
  <outline>
    <contour>
      <point x="153.468" y="-5" type="qcurve" smooth="yes"/>
      <point x="214.02" y="-5"/>
      <point x="291" y="138.245"/>
      <point x="291" y="255.511" type="qcurve" smooth="yes"/>
      <point x="291" y="372.736"/>
      <point x="213.082" y="515"/>
      <point x="153.221" y="515" type="qcurve" smooth="yes"/>
      <point x="92.9184" y="515"/>
      <point x="15" y="372.736"/>
      <point x="15" y="255.709" type="qcurve" smooth="yes"/>
      <point x="15" y="138.245"/>
      <point x="92.9184" y="-5"/>
    </contour>
    <contour>
      <point x="153.221" y="39" type="qcurve" smooth="yes"/>
      <point x="114.818" y="39"/>
      <point x="69.75" y="156.918"/>
      <point x="69.75" y="255.447" type="qcurve" smooth="yes"/>
      <point x="69.75" y="353.082"/>
      <point x="114.818" y="471"/>
      <point x="153.195" y="471" type="qcurve" smooth="yes"/>
      <point x="191.182" y="471"/>
      <point x="236.25" y="353.082"/>
      <point x="236.25" y="255.447" type="qcurve" smooth="yes"/>
      <point x="236.25" y="156.918"/>
      <point x="191.182" y="39"/>
    </contour>
    <contour>
      <point x="84" y="550" type="line"/>
      <point x="84" y="609.413"/>
      <point x="105.052" y="609.413" type="qcurve" smooth="yes"/>
      <point x="122.029" y="609.413"/>
      <point x="167.276" y="550"/>
      <point x="197.601" y="550" type="qcurve" smooth="yes"/>
      <point x="232.762" y="550"/>
      <point x="277.36" y="600.081"/>
      <point x="277.5" y="662.105" type="qcurve"/>
      <point x="221" y="662.105" type="line"/>
      <point x="221" y="600.587"/>
      <point x="198.826" y="600.587" type="qcurve" smooth="yes"/>
      <point x="181.5" y="600.587"/>
      <point x="133.341" y="660"/>
      <point x="103.24" y="660" type="qcurve" smooth="yes"/>
      <point x="68.4061" y="660"/>
      <point x="27.5" y="610.341"/>
      <point x="27.5" y="550" type="qcurve"/>
    </contour>
  </outline>
</glyph>
<glyph name="odieresis" format="2">
  <advance width="306"/>
  <unicode hex="00F6"/>
  <anchor x="165.5" y="500" name="top"/>
  <outline>
    <contour>
      <point x="153.468" y="-5" type="qcurve" smooth="yes"/>
      <point x="214.02" y="-5"/>
      <point x="291" y="138.245"/>
      <point x="291" y="255.511" type="qcurve" smooth="yes"/>
      <point x="291" y="372.736"/>
      <point x="213.082" y="515"/>
      <point x="153.221" y="515" type="qcurve" smooth="yes"/>
      <point x="92.9184" y="515"/>
      <point x="15" y="372.736"/>
      <point x="15" y="255.709" type="qcurve" smooth="yes"/>
      <point x="15" y="138.245"/>
      <point x="92.9184" y="-5"/>
    </contour>
    <contour>
      <point x="153.221" y="39" type="qcurve" smooth="yes"/>
      <point x="114.818" y="39"/>
      <point x="69.75" y="156.918"/>
      <point x="69.75" y="255.447" type="qcurve" smooth="yes"/>
      <point x="69.75" y="353.082"/>
      <point x="114.818" y="471"/>
      <point x="153.195" y="471" type="qcurve" smooth="yes"/>
      <point x="191.182" y="471"/>
      <point x="236.25" y="353.082"/>
      <point x="236.25" y="255.447" type="qcurve" smooth="yes"/>
      <point x="236.25" y="156.918"/>
      <point x="191.182" y="39"/>
    </contour>
    <contour>
      <point x="22.5" y="593.436" type="qcurve" smooth="yes"/>
      <point x="22.5" y="550.224"/>
      <point x="59.7164" y="550.224" type="qcurve" smooth="yes"/>
      <point x="96.25" y="550.224"/>
      <point x="96.25" y="593.436" type="qcurve" smooth="yes"/>
      <point x="96.25" y="635.974"/>
      <point x="59.7164" y="635.974" type="qcurve" smooth="yes"/>
      <point x="22.5" y="635.974"/>
    </contour>
    <contour>
      <point x="221.904" y="593.436" type="qcurve" smooth="yes"/>
      <point x="221.904" y="550.224"/>
      <point x="259.121" y="550.224" type="qcurve" smooth="yes"/>
      <point x="295.654" y="550.224"/>
      <point x="295.654" y="593.436" type="qcurve" smooth="yes"/>
      <point x="295.654" y="635.974"/>
      <point x="259.121" y="635.974" type="qcurve" smooth="yes"/>
      <point x="221.904" y="635.974"/>
    </contour>
  </outline>
</glyph>
<glyph name="divide" format="2">
  <advance width="349"/>
  <unicode hex="00F7"/>
  <outline>
    <contour>
      <point x="138.75" y="343.857" type="qcurve" smooth="yes"/>
      <point x="138.75" y="317.418"/>
      <point x="162.201" y="298.125"/>
      <point x="177.125" y="298.125" type="qcurve" smooth="yes"/>
      <point x="192.049" y="298.125"/>
      <point x="215.5" y="317.418"/>
      <point x="215.5" y="343.857" type="qcurve" smooth="yes"/>
      <point x="215.5" y="370.296"/>
      <point x="192.049" y="388.875"/>
      <point x="177.125" y="388.875" type="qcurve" smooth="yes"/>
      <point x="162.201" y="388.875"/>
      <point x="138.75" y="370.296"/>
    </contour>
    <contour>
      <point x="0" y="284.625" type="line"/>
      <point x="349" y="284.625" type="line"/>
      <point x="349" y="338.625" type="line"/>
      <point x="0" y="338.625" type="line"/>
    </contour>
    <contour>
      <point x="135.625" y="268.732" type="qcurve" smooth="yes"/>
      <point x="135.625" y="242.293"/>
      <point x="159.076" y="223"/>
      <point x="174" y="223" type="qcurve" smooth="yes"/>
      <point x="188.924" y="223"/>
      <point x="212.375" y="242.293"/>
      <point x="212.375" y="268.732" type="qcurve" smooth="yes"/>
      <point x="212.375" y="295.171"/>
      <point x="188.924" y="313.75"/>
      <point x="174" y="313.75" type="qcurve" smooth="yes"/>
      <point x="159.076" y="313.75"/>
      <point x="135.625" y="295.171"/>
    </contour>
  </outline>
</glyph>
<glyph name="oslash" format="2">
  <advance width="316"/>
  <unicode hex="00F8"/>
  <anchor x="161" y="500" name="top"/>
  <outline>
    <component base="o" xOffset="8"/>
    <contour>
      <point x="15.5" y="-12.5" type="line"/>
      <point x="54.1793" y="-32" type="line"/>
      <point x="300.25" y="511.5" type="line"/>
      <point x="258.996" y="531.908" type="line"/>
    </contour>
  </outline>
</glyph>
<glyph name="ugrave" format="2">
  <advance width="316"/>
  <unicode hex="00F9"/>
  <anchor x="158" y="500" name="top"/>
  <outline>
    <contour>
      <point x="286" y="0" type="line"/>
      <point x="286" y="500" type="line"/>
      <point x="231.25" y="500" type="line"/>
      <point x="231.25" y="205.002" type="line" smooth="yes"/>
      <point x="231.25" y="121.284"/>
      <point x="196.305" y="39"/>
      <point x="156.036" y="39" type="qcurve" smooth="yes"/>
      <point x="114.319" y="39"/>
      <point x="84.75" y="121.284"/>
      <point x="84.75" y="205.677" type="qcurve" smooth="yes"/>
      <point x="84.75" y="500" type="line"/>
      <point x="30" y="500" type="line"/>
      <point x="30" y="168" type="line" smooth="yes"/>
      <point x="30" y="81"/>
      <point x="88.4583" y="-5"/>
      <point x="144.969" y="-5" type="qcurve" smooth="yes"/>
      <point x="209.208" y="-5"/>
      <point x="231.25" y="51.75" type="qcurve"/>
      <point x="231.25" y="0" type="line"/>
    </contour>
    <contour>
      <point x="137.43" y="550" type="line"/>
      <point x="175.233" y="550" type="line"/>
      <point x="128.669" y="690" type="line"/>
      <point x="74.2754" y="690" type="line"/>
    </contour>
  </outline>
</glyph>
<glyph name="uacute" format="2">
  <advance width="316"/>
  <unicode hex="00FA"/>
  <anchor x="170.5" y="500" name="top"/>
  <outline>
    <contour>
      <point x="286" y="0" type="line"/>
      <point x="286" y="500" type="line"/>
      <point x="231.25" y="500" type="line"/>
      <point x="231.25" y="205.002" type="line" smooth="yes"/>
      <point x="231.25" y="121.284"/>
      <point x="196.305" y="39"/>
      <point x="156.036" y="39" type="qcurve" smooth="yes"/>
      <point x="114.319" y="39"/>
      <point x="84.75" y="121.284"/>
      <point x="84.75" y="205.677" type="qcurve" smooth="yes"/>
      <point x="84.75" y="500" type="line"/>
      <point x="30" y="500" type="line"/>
      <point x="30" y="168" type="line" smooth="yes"/>
      <point x="30" y="81"/>
      <point x="88.4583" y="-5"/>
      <point x="144.969" y="-5" type="qcurve" smooth="yes"/>
      <point x="209.208" y="-5"/>
      <point x="231.25" y="51.75" type="qcurve"/>
      <point x="231.25" y="0" type="line"/>
    </contour>
    <contour>
      <point x="185.177" y="550" type="line"/>
      <point x="233.588" y="690" type="line"/>
      <point x="178.625" y="690" type="line"/>
      <point x="147.955" y="550" type="line"/>
    </contour>
  </outline>
</glyph>
<glyph name="ucircumflex" format="2">
  <advance width="316"/>
  <unicode hex="00FB"/>
  <anchor x="170.5" y="500" name="top"/>
  <outline>
    <contour>
      <point x="286" y="0" type="line"/>
      <point x="286" y="500" type="line"/>
      <point x="231.25" y="500" type="line"/>
      <point x="231.25" y="205.002" type="line" smooth="yes"/>
      <point x="231.25" y="121.284"/>
      <point x="196.305" y="39"/>
      <point x="156.036" y="39" type="qcurve" smooth="yes"/>
      <point x="114.319" y="39"/>
      <point x="84.75" y="121.284"/>
      <point x="84.75" y="205.677" type="qcurve" smooth="yes"/>
      <point x="84.75" y="500" type="line"/>
      <point x="30" y="500" type="line"/>
      <point x="30" y="168" type="line" smooth="yes"/>
      <point x="30" y="81"/>
      <point x="88.4583" y="-5"/>
      <point x="144.969" y="-5" type="qcurve" smooth="yes"/>
      <point x="209.208" y="-5"/>
      <point x="231.25" y="51.75" type="qcurve"/>
      <point x="231.25" y="0" type="line"/>
    </contour>
    <contour>
      <point x="117" y="550" type="line"/>
      <point x="170.5" y="646" type="line"/>
      <point x="224" y="550" type="line"/>
      <point x="278.75" y="550" type="line"/>
      <point x="199.654" y="684" type="line"/>
      <point x="141.346" y="684" type="line"/>
      <point x="62.25" y="550" type="line"/>
    </contour>
  </outline>
</glyph>
<glyph name="udieresis" format="2">
  <advance width="316"/>
  <unicode hex="00FC"/>
  <anchor x="170.5" y="500" name="top"/>
  <outline>
    <contour>
      <point x="286" y="0" type="line"/>
      <point x="286" y="500" type="line"/>
      <point x="231.25" y="500" type="line"/>
      <point x="231.25" y="205.002" type="line" smooth="yes"/>
      <point x="231.25" y="121.284"/>
      <point x="196.305" y="39"/>
      <point x="156.036" y="39" type="qcurve" smooth="yes"/>
      <point x="114.319" y="39"/>
      <point x="84.75" y="121.284"/>
      <point x="84.75" y="205.677" type="qcurve" smooth="yes"/>
      <point x="84.75" y="500" type="line"/>
      <point x="30" y="500" type="line"/>
      <point x="30" y="168" type="line" smooth="yes"/>
      <point x="30" y="81"/>
      <point x="88.4583" y="-5"/>
      <point x="144.969" y="-5" type="qcurve" smooth="yes"/>
      <point x="209.208" y="-5"/>
      <point x="231.25" y="51.75" type="qcurve"/>
      <point x="231.25" y="0" type="line"/>
    </contour>
    <contour>
      <point x="27.5" y="593.436" type="qcurve" smooth="yes"/>
      <point x="27.5" y="550.224"/>
      <point x="64.7164" y="550.224" type="qcurve" smooth="yes"/>
      <point x="101.25" y="550.224"/>
      <point x="101.25" y="593.436" type="qcurve" smooth="yes"/>
      <point x="101.25" y="635.974"/>
      <point x="64.7164" y="635.974" type="qcurve" smooth="yes"/>
      <point x="27.5" y="635.974"/>
    </contour>
    <contour>
      <point x="226.904" y="593.436" type="qcurve" smooth="yes"/>
      <point x="226.904" y="550.224"/>
      <point x="264.121" y="550.224" type="qcurve" smooth="yes"/>
      <point x="300.654" y="550.224"/>
      <point x="300.654" y="593.436" type="qcurve" smooth="yes"/>
      <point x="300.654" y="635.974"/>
      <point x="264.121" y="635.974" type="qcurve" smooth="yes"/>
      <point x="226.904" y="635.974"/>
    </contour>
  </outline>
</glyph>
<glyph name="thorn" format="2">
  <advance width="316"/>
  <unicode hex="00FE"/>
  <outline>
    <contour>
      <point x="30.5" y="-259" type="line"/>
      <point x="85.25" y="-259" type="line"/>
      <point x="85.25" y="37.9688" type="line"/>
      <point x="117.188" y="-5"/>
      <point x="167.25" y="-5" type="qcurve" smooth="yes"/>
      <point x="228.25" y="-5"/>
      <point x="300.5" y="115.719"/>
      <point x="300.5" y="248.438" type="qcurve" smooth="yes"/>
      <point x="300.5" y="369"/>
      <point x="238.812" y="515"/>
      <point x="172.884" y="515" type="qcurve" smooth="yes"/>
      <point x="141.188" y="515"/>
      <point x="100.165" y="482.83"/>
      <point x="85.25" y="457.897" type="qcurve"/>
      <point x="85.25" y="750" type="line"/>
      <point x="30.5" y="750" type="line"/>
    </contour>
    <contour>
      <point x="160.438" y="36" type="qcurve" smooth="yes"/>
      <point x="125.506" y="36"/>
      <point x="85.25" y="104.963"/>
      <point x="85.25" y="163.469" type="qcurve" smooth="yes"/>
      <point x="85.25" y="295.219" type="line" smooth="yes"/>
      <point x="85.25" y="471"/>
      <point x="160.531" y="471" type="qcurve" smooth="yes"/>
      <point x="244.25" y="471"/>
      <point x="245.625" y="254.375" type="qcurve" smooth="yes"/>
      <point x="247.031" y="36"/>
    </contour>
  </outline>
</glyph>
<glyph name="ydieresis" format="2">
  <advance width="301"/>
  <unicode hex="00FF"/>
  <anchor x="163" y="500" name="top"/>
  <outline>
    <contour>
      <point x="7" y="-250" type="line"/>
      <point x="107.81" y="-250"/>
      <point x="167.582" y="-155.975"/>
      <point x="176.315" y="-111" type="qcurve" smooth="yes"/>
      <point x="296" y="500" type="line"/>
      <point x="241.25" y="500" type="line"/>
      <point x="160.5" y="44.622" type="line"/>
      <point x="59.75" y="500" type="line"/>
      <point x="5" y="500" type="line"/>
      <point x="129" y="-50.5" type="line"/>
      <point x="118" y="-160.034"/>
      <point x="66" y="-202.25"/>
      <point x="7" y="-202.25" type="qcurve"/>
    </contour>
    <contour>
      <point x="20" y="593.436" type="qcurve" smooth="yes"/>
      <point x="20" y="550.224"/>
      <point x="57.2164" y="550.224" type="qcurve" smooth="yes"/>
      <point x="93.75" y="550.224"/>
      <point x="93.75" y="593.436" type="qcurve" smooth="yes"/>
      <point x="93.75" y="635.974"/>
      <point x="57.2164" y="635.974" type="qcurve" smooth="yes"/>
      <point x="20" y="635.974"/>
    </contour>
    <contour>
      <point x="219.404" y="593.436" type="qcurve" smooth="yes"/>
      <point x="219.404" y="550.224"/>
      <point x="256.621" y="550.224" type="qcurve" smooth="yes"/>
      <point x="293.154" y="550.224"/>
      <point x="293.154" y="593.436" type="qcurve" smooth="yes"/>
      <point x="293.154" y="635.974"/>
      <point x="256.621" y="635.974" type="qcurve" smooth="yes"/>
      <point x="219.404" y="635.974"/>
    </contour>
  </outline>
</glyph>
<glyph name="Amacron" format="2">
  <advance width="306"/>
  <unicode hex="0100"/>
  <anchor x="152.625" y="700" name="top"/>
  <outline>
    <contour>
      <point x="290.5" y="0" type="line"/>
      <point x="193.011" y="700" type="line"/>
      <point x="111.864" y="700" type="line"/>
      <point x="15" y="0" type="line"/>
      <point x="69.75" y="0" type="line"/>
      <point x="95.875" y="209" type="line"/>
      <point x="209.625" y="209" type="line"/>
      <point x="235.75" y="0" type="line"/>
    </contour>
    <contour>
      <point x="203.75" y="253" type="line"/>
      <point x="101.75" y="253" type="line"/>
      <point x="152.25" y="647" type="line"/>
    </contour>
    <contour>
      <point x="62.4375" y="825" type="line"/>
      <point x="242.438" y="825" type="line"/>
      <point x="242.438" y="869" type="line"/>
      <point x="62.4375" y="869" type="line"/>
    </contour>
  </outline>
</glyph>
<glyph name="Aogonek" format="2">
  <advance width="306"/>
  <unicode hex="0104"/>
  <anchor x="152.625" y="700" name="top"/>
  <outline>
    <contour>
      <point x="290.5" y="0" type="line"/>
      <point x="193.011" y="700" type="line"/>
      <point x="111.864" y="700" type="line"/>
      <point x="15" y="0" type="line"/>
      <point x="69.75" y="0" type="line"/>
      <point x="95.875" y="209" type="line"/>
      <point x="209.625" y="209" type="line"/>
      <point x="235.75" y="0" type="line"/>
    </contour>
    <contour>
      <point x="203.75" y="253" type="line"/>
      <point x="101.75" y="253" type="line"/>
      <point x="152.25" y="647" type="line"/>
    </contour>
    <contour>
      <point x="235.75" y="0" type="line"/>
      <point x="208.379" y="-35.5375" type="line" smooth="yes"/>
      <point x="159.75" y="-98.6761"/>
      <point x="159.75" y="-159.269" type="qcurve" smooth="yes"/>
      <point x="159.75" y="-259"/>
      <point x="286.5" y="-259" type="qcurve"/>
      <point x="286.5" y="-221.25" type="line"/>
      <point x="214.5" y="-208.75"/>
      <point x="214.5" y="-152.649" type="qcurve" smooth="yes"/>
      <point x="214.5" y="-108.898"/>
      <point x="261.124" y="-42.0921" type="qcurve" smooth="yes"/>
      <point x="290.5" y="0" type="line"/>
    </contour>
  </outline>
</glyph>
<glyph name="aogonek" format="2">
  <advance width="311"/>
  <unicode hex="0105"/>
  <anchor x="161.25" y="500" name="top"/>
  <anchor x="229" y="0" name="ogonek"/>
  <outline>
    <contour>
      <point x="126.382" y="-5" type="qcurve" smooth="yes"/>
      <point x="156.598" y="-5"/>
      <point x="210.383" y="22"/>
      <point x="225.75" y="54" type="qcurve"/>
      <point x="225.75" y="0" type="line"/>
      <point x="280.5" y="0" type="line"/>
      <point x="280.5" y="337" type="line" smooth="yes"/>
      <point x="280.5" y="429"/>
      <point x="224.253" y="515"/>
      <point x="162.656" y="515" type="qcurve" smooth="yes"/>
      <point x="101.454" y="515"/>
      <point x="33.25" y="431"/>
      <point x="33.25" y="330" type="qcurve"/>
      <point x="88" y="330" type="line"/>
      <point x="88" y="405.362"/>
      <point x="126.023" y="471"/>
      <point x="164.281" y="471" type="qcurve" smooth="yes"/>
      <point x="202.62" y="471"/>
      <point x="225.75" y="405.75"/>
      <point x="225.75" y="326" type="qcurve"/>
      <point x="117.365" y="275.75"/>
      <point x="15" y="184"/>
      <point x="15" y="122.132" type="qcurve" smooth="yes"/>
      <point x="15" y="75"/>
      <point x="75.3711" y="-5"/>
    </contour>
    <contour>
      <point x="136.83" y="40.5" type="qcurve" smooth="yes"/>
      <point x="101.526" y="40.5"/>
      <point x="64.125" y="91.8597"/>
      <point x="64.125" y="121.669" type="qcurve" smooth="yes"/>
      <point x="64.125" y="171.015"/>
      <point x="172.32" y="253.967"/>
      <point x="225.75" y="281.625" type="qcurve"/>
      <point x="225.75" y="153.367" type="line" smooth="yes"/>
      <point x="225.75" y="94.3684"/>
      <point x="172.32" y="40.5"/>
    </contour>
    <contour>
      <point x="225.75" y="-0.1359" type="line"/>
      <point x="198.379" y="-35.6734" type="line" smooth="yes"/>
      <point x="149.75" y="-98.812"/>
      <point x="149.75" y="-159.404" type="qcurve" smooth="yes"/>
      <point x="149.75" y="-259.136"/>
      <point x="276.5" y="-259.136" type="qcurve"/>
      <point x="276.5" y="-221.386" type="line"/>
      <point x="204.5" y="-208.886"/>
      <point x="204.5" y="-152.785" type="qcurve" smooth="yes"/>
      <point x="204.5" y="-109.034"/>
      <point x="251.124" y="-42.228" type="qcurve" smooth="yes"/>
      <point x="280.5" y="-0.1359" type="line"/>
    </contour>
  </outline>
</glyph>
<glyph name="cacute" format="2">
  <advance width="305"/>
  <unicode hex="0107"/>
  <anchor x="171" y="0" name="ced"/>
  <anchor x="172.57" y="500" name="top"/>
  <outline>
    <contour>
      <point x="156.368" y="-5" type="qcurve" smooth="yes"/>
      <point x="215.683" y="-5"/>
      <point x="288" y="112.706"/>
      <point x="288" y="182" type="qcurve"/>
      <point x="233.25" y="182" type="line"/>
      <point x="233.25" y="123.906"/>
      <point x="194.5" y="39"/>
      <point x="157.044" y="39" type="qcurve" smooth="yes"/>
      <point x="112.571" y="39"/>
      <point x="69.75" y="161.327"/>
      <point x="69.75" y="255.221" type="qcurve" smooth="yes"/>
      <point x="69.75" y="348.673"/>
      <point x="112.139" y="471"/>
      <point x="158.589" y="471" type="qcurve" smooth="yes"/>
      <point x="192.875" y="471"/>
      <point x="235.25" y="403.651"/>
      <point x="235.25" y="330" type="qcurve"/>
      <point x="290" y="330" type="line"/>
      <point x="290" y="411.048"/>
      <point x="216.733" y="515"/>
      <point x="159.439" y="515" type="qcurve" smooth="yes"/>
      <point x="92.9167" y="515"/>
      <point x="15" y="372.736"/>
      <point x="15" y="254.853" type="qcurve" smooth="yes"/>
      <point x="15" y="138.245"/>
      <point x="91.0369" y="-5"/>
    </contour>
    <contour>
      <point x="187.247" y="550" type="line"/>
      <point x="235.659" y="690" type="line"/>
      <point x="180.695" y="690" type="line"/>
      <point x="150.025" y="550" type="line"/>
    </contour>
  </outline>
</glyph>
<glyph name="Ccaron" format="2">
  <advance width="326"/>
  <unicode hex="010C"/>
  <anchor x="175.5" y="700" name="top"/>
  <anchor x="175.5" y="0" name="ced"/>
  <anchor x="175.5" y="-6" name="ogonek"/>
  <outline>
    <contour>
      <point x="248.25" y="237" type="line"/>
      <point x="246.974" y="141.525"/>
      <point x="201.01" y="29"/>
      <point x="165.25" y="29" type="qcurve" smooth="yes"/>
      <point x="116.812" y="29"/>
      <point x="74.7499" y="225.134"/>
      <point x="74.7499" y="365.619" type="qcurve" smooth="yes"/>
      <point x="74.7499" y="515.542"/>
      <point x="113.758" y="677"/>
      <point x="164.375" y="677" type="qcurve" smooth="yes"/>
      <point x="207.722" y="677"/>
      <point x="251.25" y="551.275"/>
      <point x="251.25" y="430" type="qcurve"/>
      <point x="306" y="430" type="line"/>
      <point x="306" y="571"/>
      <point x="242.547" y="721"/>
      <point x="166.418" y="721" type="qcurve" smooth="yes"/>
      <point x="81.6142" y="721"/>
      <point x="20" y="532"/>
      <point x="20" y="347.085" type="qcurve" smooth="yes"/>
      <point x="20" y="177"/>
      <point x="83.3994" y="-15"/>
      <point x="163.401" y="-15" type="qcurve" smooth="yes"/>
      <point x="230.412" y="-15"/>
      <point x="303" y="119"/>
      <point x="303" y="237" type="qcurve"/>
    </contour>
    <contour>
      <point x="204.654" y="749.998" type="line"/>
      <point x="280" y="883.998" type="line"/>
      <point x="225.25" y="883.998" type="line"/>
      <point x="175.5" y="787.998" type="line"/>
      <point x="125.75" y="883.998" type="line"/>
      <point x="71" y="883.998" type="line"/>
      <point x="146.346" y="749.998" type="line"/>
    </contour>
  </outline>
</glyph>
<glyph name="ccaron" format="2">
  <advance width="305"/>
  <unicode hex="010D"/>
  <anchor x="171" y="0" name="ced"/>
  <anchor x="172.57" y="500" name="top"/>
  <outline>
    <contour>
      <point x="156.368" y="-5" type="qcurve" smooth="yes"/>
      <point x="215.683" y="-5"/>
      <point x="288" y="112.706"/>
      <point x="288" y="182" type="qcurve"/>
      <point x="233.25" y="182" type="line"/>
      <point x="233.25" y="123.906"/>
      <point x="194.5" y="39"/>
      <point x="157.044" y="39" type="qcurve" smooth="yes"/>
      <point x="112.571" y="39"/>
      <point x="69.75" y="161.327"/>
      <point x="69.75" y="255.221" type="qcurve" smooth="yes"/>
      <point x="69.75" y="348.673"/>
      <point x="112.139" y="471"/>
      <point x="158.589" y="471" type="qcurve" smooth="yes"/>
      <point x="192.875" y="471"/>
      <point x="235.25" y="403.651"/>
      <point x="235.25" y="330" type="qcurve"/>
      <point x="290" y="330" type="line"/>
      <point x="290" y="411.048"/>
      <point x="216.733" y="515"/>
      <point x="159.439" y="515" type="qcurve" smooth="yes"/>
      <point x="92.9167" y="515"/>
      <point x="15" y="372.736"/>
      <point x="15" y="254.853" type="qcurve" smooth="yes"/>
      <point x="15" y="138.245"/>
      <point x="91.0369" y="-5"/>
    </contour>
    <contour>
      <point x="201.724" y="549.998" type="line"/>
      <point x="277.07" y="683.998" type="line"/>
      <point x="222.32" y="683.998" type="line"/>
      <point x="172.57" y="587.998" type="line"/>
      <point x="122.82" y="683.998" type="line"/>
      <point x="68.0702" y="683.998" type="line"/>
      <point x="143.416" y="549.998" type="line"/>
    </contour>
  </outline>
</glyph>
<glyph name="Dcaron" format="2">
  <advance width="330"/>
  <unicode hex="010E"/>
  <anchor x="168" y="700" name="top"/>
  <outline>
    <contour>
      <point x="151.661" y="0" type="line" smooth="yes"/>
      <point x="239.525" y="0"/>
      <point x="310" y="199"/>
      <point x="310" y="350" type="qcurve" smooth="yes"/>
      <point x="310" y="503"/>
      <point x="238.61" y="700"/>
      <point x="148.915" y="700" type="qcurve" smooth="yes"/>
      <point x="40" y="700" type="line"/>
      <point x="40" y="0" type="line"/>
    </contour>
    <contour>
      <point x="94.75" y="44" type="line"/>
      <point x="94.75" y="656" type="line"/>
      <point x="158.689" y="656" type="line" smooth="yes"/>
      <point x="214.799" y="656"/>
      <point x="255.25" y="479.587"/>
      <point x="255.25" y="350.395" type="qcurve" smooth="yes"/>
      <point x="255.25" y="223.68"/>
      <point x="217.409" y="44"/>
      <point x="165.213" y="44" type="qcurve" smooth="yes"/>
    </contour>
    <contour>
      <point x="196.654" y="749.998" type="line"/>
      <point x="272" y="883.998" type="line"/>
      <point x="217.25" y="883.998" type="line"/>
      <point x="167.5" y="787.998" type="line"/>
      <point x="117.75" y="883.998" type="line"/>
      <point x="63" y="883.998" type="line"/>
      <point x="138.346" y="749.998" type="line"/>
    </contour>
  </outline>
</glyph>
<glyph name="dcaron" format="2">
  <advance width="445"/>
  <unicode hex="010F"/>
  <outline>
    <contour>
      <point x="285" y="0" type="line"/>
      <point x="230.25" y="0" type="line"/>
      <point x="230.25" y="37.9595" type="line"/>
      <point x="198.323" y="-5"/>
      <point x="148.265" y="-5" type="qcurve" smooth="yes"/>
      <point x="87.25" y="-5"/>
      <point x="15" y="115.734"/>
      <point x="15" y="248.423" type="qcurve" smooth="yes"/>
      <point x="15" y="368.999"/>
      <point x="76.6741" y="515"/>
      <point x="142.007" y="515" type="qcurve" smooth="yes"/>
      <point x="174.325" y="515"/>
      <point x="219.429" y="479.65"/>
      <point x="235.875" y="447.25" type="qcurve"/>
      <point x="235.875" y="700" type="line"/>
      <point x="285" y="700" type="line"/>
    </contour>
    <contour>
      <point x="155.07" y="36" type="qcurve" smooth="yes"/>
      <point x="190.015" y="36"/>
      <point x="230.25" y="104.96"/>
      <point x="230.25" y="163.479" type="qcurve" smooth="yes"/>
      <point x="230.25" y="295.206" type="line" smooth="yes"/>
      <point x="230.25" y="471"/>
      <point x="154.975" y="471" type="qcurve" smooth="yes"/>
      <point x="71.2571" y="471"/>
      <point x="69.8713" y="254.374" type="qcurve" smooth="yes"/>
      <point x="68.4559" y="36"/>
    </contour>
    <contour>
      <point x="339.325" y="660.219" type="qcurve" smooth="yes"/>
      <point x="339.325" y="682.978"/>
      <point x="361.075" y="700.587"/>
      <point x="377.174" y="700.587" type="qcurve" smooth="yes"/>
      <point x="414.325" y="700.587"/>
      <point x="414.325" y="655.864" type="qcurve" smooth="yes"/>
      <point x="414.325" y="609.987"/>
      <point x="372.325" y="531.212" type="qcurve"/>
      <point x="350.825" y="531.212" type="line"/>
      <point x="374.825" y="616.212" type="line"/>
      <point x="339.325" y="616.212"/>
    </contour>
  </outline>
</glyph>
<glyph name="Edotaccent" format="2">
  <advance width="271"/>
  <unicode hex="0116"/>
  <anchor x="168.5" y="700" name="top"/>
  <anchor x="229" y="0" name="ogonek"/>
  <anchor x="175.5" y="0" name="ced"/>
  <outline>
    <contour>
      <point x="40" y="0" type="line"/>
      <point x="265.75" y="0" type="line"/>
      <point x="265.75" y="44" type="line"/>
      <point x="94.75" y="44" type="line"/>
      <point x="94.75" y="330.75" type="line"/>
      <point x="218.75" y="330.75" type="line"/>
      <point x="218.75" y="374.75" type="line"/>
      <point x="94.75" y="374.75" type="line"/>
      <point x="94.75" y="656" type="line"/>
      <point x="258.75" y="656" type="line"/>
      <point x="258.75" y="700" type="line"/>
      <point x="40" y="700" type="line"/>
    </contour>
    <contour>
      <point x="118.5" y="788.173" type="qcurve" smooth="yes"/>
      <point x="118.5" y="750"/>
      <point x="148.5" y="750" type="qcurve" smooth="yes"/>
      <point x="178.5" y="750"/>
      <point x="178.5" y="788.173" type="qcurve" smooth="yes"/>
      <point x="178.5" y="825.75"/>
      <point x="148.5" y="825.75" type="qcurve" smooth="yes"/>
      <point x="118.5" y="825.75"/>
    </contour>
  </outline>
</glyph>
<glyph name="Eogonek" format="2">
  <advance width="271"/>
  <unicode hex="0118"/>
  <anchor x="168.5" y="700" name="top"/>
  <anchor x="229" y="0" name="ogonek"/>
  <anchor x="175.5" y="0" name="ced"/>
  <outline>
    <contour>
      <point x="40" y="0" type="line"/>
      <point x="265.75" y="0" type="line"/>
      <point x="265.75" y="44" type="line"/>
      <point x="94.75" y="44" type="line"/>
      <point x="94.75" y="330.75" type="line"/>
      <point x="218.75" y="330.75" type="line"/>
      <point x="218.75" y="374.75" type="line"/>
      <point x="94.75" y="374.75" type="line"/>
      <point x="94.75" y="656" type="line"/>
      <point x="258.75" y="656" type="line"/>
      <point x="258.75" y="700" type="line"/>
      <point x="40" y="700" type="line"/>
    </contour>
    <contour>
      <point x="223.5" y="0" type="line"/>
      <point x="196.129" y="-35.5375" type="line" smooth="yes"/>
      <point x="147.5" y="-98.6761"/>
      <point x="147.5" y="-159.269" type="qcurve" smooth="yes"/>
      <point x="147.5" y="-259"/>
      <point x="274.25" y="-259" type="qcurve"/>
      <point x="274.25" y="-221.25" type="line"/>
      <point x="202.25" y="-208.75"/>
      <point x="202.25" y="-152.649" type="qcurve" smooth="yes"/>
      <point x="202.25" y="-108.898"/>
      <point x="248.874" y="-42.0921" type="qcurve" smooth="yes"/>
      <point x="278.25" y="0" type="line"/>
    </contour>
  </outline>
</glyph>
<glyph name="eogonek" format="2">
  <advance width="305"/>
  <unicode hex="0119"/>
  <anchor x="165" y="500" name="top"/>
  <anchor x="165" y="10" name="ced"/>
  <anchor x="180.208" y="10" name="ogonek"/>
  <outline>
    <contour>
      <point x="154.549" y="-5" type="qcurve" smooth="yes"/>
      <point x="205.568" y="-5"/>
      <point x="281.416" y="85.6532"/>
      <point x="287.982" y="159" type="qcurve"/>
      <point x="231.25" y="159" type="line"/>
      <point x="231.25" y="105.232"/>
      <point x="186.968" y="39"/>
      <point x="154.824" y="39" type="qcurve" smooth="yes"/>
      <point x="114.032" y="39"/>
      <point x="69.75" y="144.593"/>
      <point x="69.75" y="223" type="qcurve"/>
      <point x="290" y="223" type="line"/>
      <point x="290" y="301.059" type="line" smooth="yes"/>
      <point x="290" y="392.654"/>
      <point x="217.736" y="515"/>
      <point x="155.624" y="515" type="qcurve" smooth="yes"/>
      <point x="90.1667" y="515"/>
      <point x="15" y="376.207"/>
      <point x="15" y="257.878" type="qcurve" smooth="yes"/>
      <point x="15" y="138.024"/>
      <point x="91.0441" y="-5"/>
    </contour>
    <contour>
      <point x="69.75" y="267" type="line"/>
      <point x="69.75" y="341.667"/>
      <point x="112.418" y="471"/>
      <point x="158.763" y="471" type="qcurve" smooth="yes"/>
      <point x="202.926" y="471"/>
      <point x="235.25" y="344.686"/>
      <point x="235.25" y="267" type="qcurve"/>
    </contour>
    <contour>
      <point x="174.708" y="10" type="line"/>
      <point x="147.338" y="-25.5375" type="line" smooth="yes"/>
      <point x="98.7085" y="-88.6761"/>
      <point x="98.7085" y="-149.269" type="qcurve" smooth="yes"/>
      <point x="98.7085" y="-249"/>
      <point x="225.458" y="-249" type="qcurve"/>
      <point x="225.458" y="-211.25" type="line"/>
      <point x="153.458" y="-198.75"/>
      <point x="153.458" y="-142.649" type="qcurve" smooth="yes"/>
      <point x="153.458" y="-98.8983"/>
      <point x="200.082" y="-32.0921" type="qcurve" smooth="yes"/>
      <point x="229.458" y="10" type="line"/>
    </contour>
  </outline>
</glyph>
<glyph name="Ecaron" format="2">
  <advance width="271"/>
  <unicode hex="011A"/>
  <anchor x="168.5" y="700" name="top"/>
  <anchor x="229" y="0" name="ogonek"/>
  <anchor x="175.5" y="0" name="ced"/>
  <outline>
    <contour>
      <point x="40" y="0" type="line"/>
      <point x="265.75" y="0" type="line"/>
      <point x="265.75" y="44" type="line"/>
      <point x="94.75" y="44" type="line"/>
      <point x="94.75" y="330.75" type="line"/>
      <point x="218.75" y="330.75" type="line"/>
      <point x="218.75" y="374.75" type="line"/>
      <point x="94.75" y="374.75" type="line"/>
      <point x="94.75" y="656" type="line"/>
      <point x="258.75" y="656" type="line"/>
      <point x="258.75" y="700" type="line"/>
      <point x="40" y="700" type="line"/>
    </contour>
    <contour>
      <point x="197.654" y="749.998" type="line"/>
      <point x="273" y="883.998" type="line"/>
      <point x="218.25" y="883.998" type="line"/>
      <point x="168.5" y="787.998" type="line"/>
      <point x="118.75" y="883.998" type="line"/>
      <point x="64" y="883.998" type="line"/>
      <point x="139.346" y="749.998" type="line"/>
    </contour>
  </outline>
</glyph>
<glyph name="ecaron" format="2">
  <advance width="305"/>
  <unicode hex="011B"/>
  <anchor x="165" y="500" name="top"/>
  <anchor x="165" y="10" name="ced"/>
  <anchor x="180.208" y="10" name="ogonek"/>
  <outline>
    <contour>
      <point x="154.549" y="-5" type="qcurve" smooth="yes"/>
      <point x="205.568" y="-5"/>
      <point x="281.416" y="85.6532"/>
      <point x="287.982" y="159" type="qcurve"/>
      <point x="231.25" y="159" type="line"/>
      <point x="231.25" y="105.232"/>
      <point x="186.968" y="39"/>
      <point x="154.824" y="39" type="qcurve" smooth="yes"/>
      <point x="114.032" y="39"/>
      <point x="69.75" y="144.593"/>
      <point x="69.75" y="223" type="qcurve"/>
      <point x="290" y="223" type="line"/>
      <point x="290" y="301.059" type="line" smooth="yes"/>
      <point x="290" y="392.654"/>
      <point x="217.736" y="515"/>
      <point x="155.624" y="515" type="qcurve" smooth="yes"/>
      <point x="90.1667" y="515"/>
      <point x="15" y="376.207"/>
      <point x="15" y="257.878" type="qcurve" smooth="yes"/>
      <point x="15" y="138.024"/>
      <point x="91.0441" y="-5"/>
    </contour>
    <contour>
      <point x="69.75" y="267" type="line"/>
      <point x="69.75" y="341.667"/>
      <point x="112.418" y="471"/>
      <point x="158.763" y="471" type="qcurve" smooth="yes"/>
      <point x="202.926" y="471"/>
      <point x="235.25" y="344.686"/>
      <point x="235.25" y="267" type="qcurve"/>
    </contour>
    <contour>
      <point x="194.154" y="549.998" type="line"/>
      <point x="269.5" y="683.998" type="line"/>
      <point x="214.75" y="683.998" type="line"/>
      <point x="165" y="587.998" type="line"/>
      <point x="115.25" y="683.998" type="line"/>
      <point x="60.5" y="683.998" type="line"/>
      <point x="135.846" y="549.998" type="line"/>
    </contour>
  </outline>
</glyph>
<glyph name="Gbreve" format="2">
  <advance width="333"/>
  <unicode hex="011E"/>
  <anchor x="179" y="700" name="top"/>
  <outline>
    <contour>
      <point x="172.779" y="-15" type="qcurve" smooth="yes"/>
      <point x="244.556" y="-15"/>
      <point x="269.5" y="79" type="qcurve"/>
      <point x="277.5" y="0" type="line"/>
      <point x="313" y="0" type="line"/>
      <point x="313" y="372" type="line"/>
      <point x="156.5" y="372" type="line"/>
      <point x="156.5" y="328" type="line"/>
      <point x="258.25" y="328" type="line"/>
      <point x="258.25" y="151.76"/>
      <point x="209.233" y="29"/>
      <point x="170.626" y="29" type="qcurve" smooth="yes"/>
      <point x="119.997" y="29"/>
      <point x="74.75" y="226.217"/>
      <point x="74.75" y="370.169" type="qcurve" smooth="yes"/>
      <point x="74.75" y="515.542"/>
      <point x="119.32" y="677"/>
      <point x="169.625" y="677" type="qcurve" smooth="yes"/>
      <point x="213.284" y="677"/>
      <point x="251.25" y="551.275"/>
      <point x="251.25" y="430" type="qcurve"/>
      <point x="306" y="430" type="line"/>
      <point x="306" y="571"/>
      <point x="243.415" y="721"/>
      <point x="166.702" y="721" type="qcurve" smooth="yes"/>
      <point x="82.1646" y="721"/>
      <point x="20" y="532"/>
      <point x="20" y="364.337" type="qcurve" smooth="yes"/>
      <point x="20" y="177"/>
      <point x="98.6419" y="-15"/>
    </contour>
    <contour>
      <point x="165.645" y="750" type="qcurve" smooth="yes"/>
      <point x="290" y="750"/>
      <point x="290" y="904" type="qcurve"/>
      <point x="235.25" y="904" type="line"/>
      <point x="235.25" y="794"/>
      <point x="165.645" y="794" type="qcurve" smooth="yes"/>
      <point x="97.75" y="794"/>
      <point x="97.75" y="904" type="qcurve"/>
      <point x="43" y="904" type="line"/>
      <point x="43" y="750"/>
    </contour>
  </outline>
</glyph>
<glyph name="gbreve" format="2">
  <advance width="285"/>
  <unicode hex="011F"/>
  <anchor x="154.875" y="500" name="top"/>
  <outline>
    <contour>
      <point x="15" y="313.399" type="qcurve" smooth="yes"/>
      <point x="15" y="212.986"/>
      <point x="72.25" y="150.5" type="qcurve"/>
      <point x="29.75" y="126.696"/>
      <point x="29.75" y="89.6485" type="qcurve" smooth="yes"/>
      <point x="29.75" y="45.586"/>
      <point x="84.75" y="22" type="qcurve"/>
      <point x="21" y="-4.92308"/>
      <point x="21" y="-97.8545" type="qcurve" smooth="yes"/>
      <point x="21" y="-172.914"/>
      <point x="102.705" y="-259"/>
      <point x="156.556" y="-259" type="qcurve" smooth="yes"/>
      <point x="218.377" y="-259"/>
      <point x="301" y="-147.43"/>
      <point x="301" y="-77.9186" type="qcurve" smooth="yes"/>
      <point x="301" y="-12.2244"/>
      <point x="226.177" y="62"/>
      <point x="143.319" y="62" type="qcurve" smooth="yes"/>
      <point x="105.462" y="62"/>
      <point x="75.625" y="79.125"/>
      <point x="75.625" y="92.9364" type="qcurve" smooth="yes"/>
      <point x="75.625" y="109.011"/>
      <point x="109.649" y="130.049"/>
      <point x="132.364" y="130.049" type="qcurve" smooth="yes"/>
      <point x="188.697" y="130.049"/>
      <point x="254" y="239.916"/>
      <point x="254" y="310.583" type="qcurve" smooth="yes"/>
      <point x="254" y="367.756"/>
      <point x="233.25" y="434.157" type="qcurve"/>
      <point x="255.708" y="462.016"/>
      <point x="285" y="462.016" type="qcurve"/>
      <point x="285" y="519" type="line"/>
      <point x="271.539" y="519"/>
      <point x="239.09" y="496.161"/>
      <point x="219.25" y="459.183" type="qcurve"/>
      <point x="185.91" y="509"/>
      <point x="135.033" y="509" type="qcurve" smooth="yes"/>
      <point x="80.5797" y="509"/>
      <point x="15" y="389.485"/>
    </contour>
    <contour>
      <point x="69.75" y="320.511" type="qcurve" smooth="yes"/>
      <point x="69.75" y="387.057"/>
      <point x="104.94" y="466.75"/>
      <point x="135.372" y="466.75" type="qcurve" smooth="yes"/>
      <point x="164.06" y="466.75"/>
      <point x="199.25" y="388.053"/>
      <point x="199.25" y="321.507" type="qcurve" smooth="yes"/>
      <point x="199.25" y="255.193"/>
      <point x="163.435" y="169.25"/>
      <point x="133.835" y="169.25" type="qcurve" smooth="yes"/>
      <point x="104.315" y="169.25"/>
      <point x="69.75" y="254.197"/>
    </contour>
    <contour>
      <point x="123.119" y="9" type="qcurve"/>
      <point x="188.391" y="9"/>
      <point x="249" y="-34.7372"/>
      <point x="249" y="-93.7222" type="qcurve" smooth="yes"/>
      <point x="249" y="-147.119"/>
      <point x="197.162" y="-215"/>
      <point x="156.64" y="-215" type="qcurve" smooth="yes"/>
      <point x="114.686" y="-215"/>
      <point x="73" y="-144.857"/>
      <point x="73" y="-100.571" type="qcurve" smooth="yes"/>
      <point x="73" y="-30.5913"/>
    </contour>
    <contour>
      <point x="141.52" y="550" type="qcurve" smooth="yes"/>
      <point x="265.875" y="550"/>
      <point x="265.875" y="704" type="qcurve"/>
      <point x="211.125" y="704" type="line"/>
      <point x="211.125" y="594"/>
      <point x="141.52" y="594" type="qcurve" smooth="yes"/>
      <point x="73.625" y="594"/>
      <point x="73.625" y="704" type="qcurve"/>
      <point x="18.875" y="704" type="line"/>
      <point x="18.875" y="550"/>
    </contour>
  </outline>
</glyph>
<glyph name="Gcommaaccent" format="2">
  <advance width="333"/>
  <unicode hex="0122"/>
  <anchor x="179" y="700" name="top"/>
  <outline>
    <contour>
      <point x="172.779" y="-15" type="qcurve" smooth="yes"/>
      <point x="244.556" y="-15"/>
      <point x="269.5" y="79" type="qcurve"/>
      <point x="277.5" y="0" type="line"/>
      <point x="313" y="0" type="line"/>
      <point x="313" y="372" type="line"/>
      <point x="156.5" y="372" type="line"/>
      <point x="156.5" y="328" type="line"/>
      <point x="258.25" y="328" type="line"/>
      <point x="258.25" y="151.76"/>
      <point x="209.233" y="29"/>
      <point x="170.626" y="29" type="qcurve" smooth="yes"/>
      <point x="119.997" y="29"/>
      <point x="74.75" y="226.217"/>
      <point x="74.75" y="370.169" type="qcurve" smooth="yes"/>
      <point x="74.75" y="515.542"/>
      <point x="119.32" y="677"/>
      <point x="169.625" y="677" type="qcurve" smooth="yes"/>
      <point x="213.284" y="677"/>
      <point x="251.25" y="551.275"/>
      <point x="251.25" y="430" type="qcurve"/>
      <point x="306" y="430" type="line"/>
      <point x="306" y="571"/>
      <point x="243.415" y="721"/>
      <point x="166.702" y="721" type="qcurve" smooth="yes"/>
      <point x="82.1646" y="721"/>
      <point x="20" y="532"/>
      <point x="20" y="364.337" type="qcurve" smooth="yes"/>
      <point x="20" y="177"/>
      <point x="98.6419" y="-15"/>
    </contour>
    <contour>
      <point x="129" y="-112.468" type="qcurve" smooth="yes"/>
      <point x="129" y="-156.475"/>
      <point x="164.5" y="-156.475" type="qcurve"/>
      <point x="140.5" y="-241.475" type="line"/>
      <point x="162" y="-241.475" type="line"/>
      <point x="204" y="-162.7"/>
      <point x="204" y="-115.054" type="qcurve" smooth="yes"/>
      <point x="204" y="-72.1004"/>
      <point x="166.849" y="-72.1004" type="qcurve" smooth="yes"/>
      <point x="150.75" y="-72.1004"/>
      <point x="129" y="-89.7091"/>
    </contour>
  </outline>
</glyph>
<glyph name="Hbar" format="2">
  <advance width="342"/>
  <unicode hex="0126"/>
  <outline>
    <contour>
      <point x="247.25" y="0" type="line"/>
      <point x="302" y="0" type="line"/>
      <point x="302" y="700" type="line"/>
      <point x="247.25" y="700" type="line"/>
      <point x="247.25" y="375.375" type="line"/>
      <point x="94.75" y="375.375" type="line"/>
      <point x="94.75" y="700" type="line"/>
      <point x="40" y="700" type="line"/>
      <point x="40" y="0" type="line"/>
      <point x="94.75" y="0" type="line"/>
      <point x="94.75" y="331.375" type="line"/>
      <point x="247.25" y="331.375" type="line"/>
    </contour>
    <contour>
      <point x="-12.5" y="484.953" type="line"/>
      <point x="354.502" y="484.953" type="line"/>
      <point x="354.502" y="528.953" type="line"/>
      <point x="-12.5" y="528.953" type="line"/>
    </contour>
  </outline>
</glyph>
<glyph name="hbar" format="2">
  <advance width="316"/>
  <unicode hex="0127"/>
  <outline>
    <contour>
      <point x="30" y="0" type="line"/>
      <point x="84.75" y="0" type="line"/>
      <point x="84.75" y="228.074" type="line" smooth="yes"/>
      <point x="84.75" y="379.77"/>
      <point x="128.163" y="471"/>
      <point x="166.229" y="471" type="qcurve" smooth="yes"/>
      <point x="205.713" y="471"/>
      <point x="231.25" y="376.588"/>
      <point x="231.25" y="228.074" type="qcurve" smooth="yes"/>
      <point x="231.25" y="0" type="line"/>
      <point x="286" y="0" type="line"/>
      <point x="286" y="299" type="line" smooth="yes"/>
      <point x="286" y="432"/>
      <point x="229.682" y="515"/>
      <point x="181.411" y="515" type="qcurve" smooth="yes"/>
      <point x="148.663" y="515"/>
      <point x="97.2847" y="476"/>
      <point x="79.5" y="436" type="qcurve"/>
      <point x="79.5" y="700" type="line"/>
      <point x="30" y="700" type="line"/>
    </contour>
    <contour>
      <point x="-9.5" y="544.046" type="line"/>
      <point x="170.5" y="544.046" type="line"/>
      <point x="170.5" y="588.046" type="line"/>
      <point x="-9.5" y="588.046" type="line"/>
    </contour>
  </outline>
</glyph>
<glyph name="Iogonek" format="2">
  <advance width="135"/>
  <unicode hex="012E"/>
  <anchor x="67.375" y="700" name="top"/>
  <anchor x="64.25" y="0" name="ced"/>
  <outline>
    <contour>
      <point x="40" y="0" type="line"/>
      <point x="94.75" y="0" type="line"/>
      <point x="94.75" y="700" type="line"/>
      <point x="40" y="700" type="line"/>
    </contour>
    <contour>
      <point x="40" y="0" type="line"/>
      <point x="12.6291" y="-35.5375" type="line" smooth="yes"/>
      <point x="-36" y="-98.6761"/>
      <point x="-36" y="-159.269" type="qcurve" smooth="yes"/>
      <point x="-36" y="-259"/>
      <point x="90.75" y="-259" type="qcurve"/>
      <point x="90.75" y="-221.25" type="line"/>
      <point x="18.75" y="-208.75"/>
      <point x="18.75" y="-152.649" type="qcurve" smooth="yes"/>
      <point x="18.75" y="-108.898"/>
      <point x="65.374" y="-42.0921" type="qcurve" smooth="yes"/>
      <point x="94.75" y="0" type="line"/>
    </contour>
  </outline>
</glyph>
<glyph name="iogonek" format="2">
  <advance width="134"/>
  <unicode hex="012F"/>
  <anchor x="67.121" y="0" name="ced"/>
  <anchor x="65.75" y="0" name="ogonek"/>
  <outline>
    <contour>
      <point x="41.125" y="0" type="line"/>
      <point x="95.875" y="0" type="line"/>
      <point x="95.875" y="500" type="line"/>
      <point x="41.125" y="500" type="line"/>
    </contour>
    <contour>
      <point x="67.25" y="614.625" type="qcurve" smooth="yes"/>
      <point x="82.4504" y="614.625"/>
      <point x="103.953" y="633.69"/>
      <point x="103.953" y="657.312" type="qcurve" smooth="yes"/>
      <point x="103.953" y="680.935"/>
      <point x="82.4504" y="700"/>
      <point x="67.25" y="700" type="qcurve" smooth="yes"/>
      <point x="52.0496" y="700"/>
      <point x="30.203" y="680.935"/>
      <point x="30.203" y="657.312" type="qcurve" smooth="yes"/>
      <point x="30.203" y="633.69"/>
      <point x="52.0496" y="614.625"/>
    </contour>
    <contour>
      <point x="55.1875" y="0" type="line"/>
      <point x="27.8166" y="-35.5375" type="line" smooth="yes"/>
      <point x="-20.8125" y="-98.6761"/>
      <point x="-20.8125" y="-159.269" type="qcurve" smooth="yes"/>
      <point x="-20.8125" y="-259"/>
      <point x="105.938" y="-259" type="qcurve"/>
      <point x="105.938" y="-221.25" type="line"/>
      <point x="33.9375" y="-208.75"/>
      <point x="33.9375" y="-152.649" type="qcurve" smooth="yes"/>
      <point x="33.9375" y="-108.898"/>
      <point x="80.5615" y="-42.0921" type="qcurve" smooth="yes"/>
      <point x="109.938" y="0" type="line"/>
    </contour>
  </outline>
</glyph>
<glyph name="Idotaccent" format="2">
  <advance width="135"/>
  <unicode hex="0130"/>
  <anchor x="83" y="700" name="top"/>
  <anchor x="83" y="0" name="ced"/>
  <outline>
    <contour>
      <point x="40" y="0" type="line"/>
      <point x="94.75" y="0" type="line"/>
      <point x="94.75" y="700" type="line"/>
      <point x="40" y="700" type="line"/>
    </contour>
    <contour>
      <point x="33" y="788.173" type="qcurve" smooth="yes"/>
      <point x="33" y="750"/>
      <point x="63" y="750" type="qcurve" smooth="yes"/>
      <point x="93" y="750"/>
      <point x="93" y="788.173" type="qcurve" smooth="yes"/>
      <point x="93" y="825.75"/>
      <point x="63" y="825.75" type="qcurve" smooth="yes"/>
      <point x="33" y="825.75"/>
    </contour>
  </outline>
</glyph>
<glyph name="dotlessi" format="2">
  <advance width="115"/>
  <unicode hex="0131"/>
  <anchor x="57.375" y="500" name="top"/>
  <anchor x="41.75" y="0" name="ced"/>
  <anchor x="36.75" y="0" name="ogonek"/>
  <outline>
    <contour>
      <point x="30" y="0" type="line"/>
      <point x="84.75" y="0" type="line"/>
      <point x="84.75" y="500" type="line"/>
      <point x="30" y="500" type="line"/>
    </contour>
  </outline>
</glyph>
<glyph name="Kcommaaccent" format="2">
  <advance width="318"/>
  <unicode hex="0136"/>
  <outline>
    <contour>
      <point x="247.5" y="0" type="line"/>
      <point x="302.25" y="0" type="line"/>
      <point x="149" y="388.25" type="line"/>
      <point x="295.25" y="700" type="line"/>
      <point x="240.5" y="700" type="line"/>
      <point x="94.75" y="393.5" type="line"/>
      <point x="94.75" y="700" type="line"/>
      <point x="40" y="700" type="line"/>
      <point x="40" y="0" type="line"/>
      <point x="94.75" y="0" type="line"/>
      <point x="94.75" y="308.536" type="line"/>
      <point x="111.75" y="341.25" type="line"/>
    </contour>
    <contour>
      <point x="130.5" y="-112.468" type="qcurve" smooth="yes"/>
      <point x="130.5" y="-156.475"/>
      <point x="166" y="-156.475" type="qcurve"/>
      <point x="142" y="-241.475" type="line"/>
      <point x="163.5" y="-241.475" type="line"/>
      <point x="205.5" y="-162.7"/>
      <point x="205.5" y="-116.823" type="qcurve" smooth="yes"/>
      <point x="205.5" y="-72.1004"/>
      <point x="168.349" y="-72.1004" type="qcurve" smooth="yes"/>
      <point x="152.25" y="-72.1004"/>
      <point x="130.5" y="-89.7091"/>
    </contour>
  </outline>
</glyph>
<glyph name="kcommaaccent" format="2">
  <advance width="262"/>
  <unicode hex="0137"/>
  <outline>
    <contour>
      <point x="30.2749" y="0" type="line"/>
      <point x="85.6567" y="0" type="line"/>
      <point x="85.6567" y="181.269" type="line"/>
      <point x="102.528" y="210.552" type="line"/>
      <point x="201.723" y="0" type="line"/>
      <point x="256.819" y="0" type="line"/>
      <point x="129.911" y="248.019" type="line"/>
      <point x="256.337" y="487.637" type="line"/>
      <point x="203.604" y="487.637" type="line"/>
      <point x="85.6567" y="255.661" type="line"/>
      <point x="85.6567" y="693.132" type="line"/>
      <point x="30.2749" y="693.132" type="line"/>
    </contour>
    <contour>
      <point x="100.5" y="-112.468" type="qcurve" smooth="yes"/>
      <point x="100.5" y="-156.475"/>
      <point x="136" y="-156.475" type="qcurve"/>
      <point x="112" y="-241.475" type="line"/>
      <point x="133.5" y="-241.475" type="line"/>
      <point x="175.5" y="-162.7"/>
      <point x="175.5" y="-116.823" type="qcurve" smooth="yes"/>
      <point x="175.5" y="-72.1004"/>
      <point x="138.349" y="-72.1004" type="qcurve" smooth="yes"/>
      <point x="122.25" y="-72.1004"/>
      <point x="100.5" y="-89.7091"/>
    </contour>
  </outline>
</glyph>
<glyph name="Lacute" format="2">
  <advance width="245"/>
  <unicode hex="0139"/>
  <anchor x="83" y="700" name="top"/>
  <outline>
    <contour>
      <point x="40" y="0" type="line"/>
      <point x="239.75" y="0" type="line"/>
      <point x="239.75" y="44" type="line"/>
      <point x="94.75" y="44" type="line"/>
      <point x="94.75" y="700" type="line"/>
      <point x="40" y="700" type="line"/>
    </contour>
    <contour>
      <point x="97.6765" y="750" type="line"/>
      <point x="146.088" y="890" type="line"/>
      <point x="91.1251" y="890" type="line"/>
      <point x="60.455" y="750" type="line"/>
    </contour>
  </outline>
</glyph>
<glyph name="lacute" format="2">
  <advance width="155"/>
  <unicode hex="013A"/>
  <anchor x="73" y="750" name="top"/>
  <outline>
    <contour>
      <point x="30" y="750" type="line"/>
      <point x="30" y="130.817" type="line" smooth="yes"/>
      <point x="30" y="56.9144"/>
      <point x="66.8472" y="-8"/>
      <point x="124.75" y="-8" type="qcurve"/>
      <point x="124.75" y="39.75" type="line"/>
      <point x="98.75" y="37.7529"/>
      <point x="84.75" y="66.7103"/>
      <point x="84.75" y="111.644" type="qcurve" smooth="yes"/>
      <point x="84.75" y="750" type="line"/>
    </contour>
    <contour>
      <point x="87.6766" y="800" type="line"/>
      <point x="136.088" y="940" type="line"/>
      <point x="81.1251" y="940" type="line"/>
      <point x="50.4551" y="800" type="line"/>
    </contour>
  </outline>
</glyph>
<glyph name="Lcommaaccent" format="2">
  <advance width="245"/>
  <unicode hex="013B"/>
  <anchor x="83" y="700" name="top"/>
  <outline>
    <contour>
      <point x="40" y="0" type="line"/>
      <point x="239.75" y="0" type="line"/>
      <point x="239.75" y="44" type="line"/>
      <point x="94.75" y="44" type="line"/>
      <point x="94.75" y="700" type="line"/>
      <point x="40" y="700" type="line"/>
    </contour>
    <contour>
      <point x="88" y="-112.468" type="qcurve" smooth="yes"/>
      <point x="88" y="-156.475"/>
      <point x="123.5" y="-156.475" type="qcurve"/>
      <point x="99.5" y="-241.475" type="line"/>
      <point x="121" y="-241.475" type="line"/>
      <point x="163" y="-162.7"/>
      <point x="163" y="-115.054" type="qcurve" smooth="yes"/>
      <point x="163" y="-72.1004"/>
      <point x="125.849" y="-72.1004" type="qcurve" smooth="yes"/>
      <point x="109.75" y="-72.1004"/>
      <point x="88" y="-89.7091"/>
    </contour>
  </outline>
</glyph>
<glyph name="lcommaaccent" format="2">
  <advance width="155"/>
  <unicode hex="013C"/>
  <anchor x="73" y="750" name="top"/>
  <outline>
    <contour>
      <point x="30" y="750" type="line"/>
      <point x="30" y="130.817" type="line" smooth="yes"/>
      <point x="30" y="56.9144"/>
      <point x="66.8472" y="-8"/>
      <point x="124.75" y="-8" type="qcurve"/>
      <point x="124.75" y="39.75" type="line"/>
      <point x="98.75" y="37.7529"/>
      <point x="84.75" y="66.7103"/>
      <point x="84.75" y="111.644" type="qcurve" smooth="yes"/>
      <point x="84.75" y="750" type="line"/>
    </contour>
    <contour>
      <point x="43" y="-112.468" type="qcurve" smooth="yes"/>
      <point x="43" y="-156.475"/>
      <point x="78.5" y="-156.475" type="qcurve"/>
      <point x="54.5" y="-241.475" type="line"/>
      <point x="76" y="-241.475" type="line"/>
      <point x="118" y="-162.7"/>
      <point x="118" y="-116.823" type="qcurve" smooth="yes"/>
      <point x="118" y="-72.1004"/>
      <point x="80.849" y="-72.1004" type="qcurve" smooth="yes"/>
      <point x="64.75" y="-72.1004"/>
      <point x="43" y="-89.7091"/>
    </contour>
  </outline>
</glyph>
<glyph name="Lcaron" format="2">
  <advance width="245"/>
  <unicode hex="013D"/>
  <anchor x="83" y="700" name="top"/>
  <outline>
    <contour>
      <point x="40" y="0" type="line"/>
      <point x="239.75" y="0" type="line"/>
      <point x="239.75" y="44" type="line"/>
      <point x="94.75" y="44" type="line"/>
      <point x="94.75" y="700" type="line"/>
      <point x="40" y="700" type="line"/>
    </contour>
    <contour>
      <point x="162.562" y="660.226" type="qcurve" smooth="yes"/>
      <point x="162.562" y="616.219"/>
      <point x="198.062" y="616.219" type="qcurve"/>
      <point x="174.062" y="531.219" type="line"/>
      <point x="195.562" y="531.219" type="line"/>
      <point x="237.562" y="609.994"/>
      <point x="237.562" y="655.871" type="qcurve" smooth="yes"/>
      <point x="237.562" y="700.594"/>
      <point x="200.411" y="700.594" type="qcurve" smooth="yes"/>
      <point x="184.312" y="700.594"/>
      <point x="162.562" y="682.985"/>
    </contour>
  </outline>
</glyph>
<glyph name="lcaron" format="2">
  <advance width="240"/>
  <unicode hex="013E"/>
  <anchor x="73" y="750" name="top"/>
  <outline>
    <contour>
      <point x="30" y="750" type="line"/>
      <point x="30" y="130.817" type="line" smooth="yes"/>
      <point x="30" y="56.9144"/>
      <point x="66.8472" y="-8"/>
      <point x="124.75" y="-8" type="qcurve"/>
      <point x="124.75" y="39.75" type="line"/>
      <point x="98.75" y="37.7529"/>
      <point x="84.75" y="66.7103"/>
      <point x="84.75" y="111.644" type="qcurve" smooth="yes"/>
      <point x="84.75" y="750" type="line"/>
    </contour>
    <contour>
      <point x="134.27" y="709.632" type="qcurve" smooth="yes"/>
      <point x="134.27" y="665.625"/>
      <point x="169.77" y="665.625" type="qcurve"/>
      <point x="145.77" y="580.625" type="line"/>
      <point x="167.27" y="580.625" type="line"/>
      <point x="209.27" y="659.4"/>
      <point x="209.27" y="705.277" type="qcurve" smooth="yes"/>
      <point x="209.27" y="750"/>
      <point x="172.119" y="750" type="qcurve" smooth="yes"/>
      <point x="156.02" y="750"/>
      <point x="134.27" y="732.391"/>
    </contour>
  </outline>
</glyph>
<glyph name="lslash" format="2">
  <advance width="370"/>
  <unicode hex="0142"/>
  <anchor x="194.875" y="750" name="top"/>
  <outline>
    <contour>
      <point x="58.2218" y="272.337" type="line"/>
      <point x="339.839" y="434.937" type="line"/>
      <point x="312.586" y="470.421" type="line"/>
      <point x="30.9691" y="307.821" type="line"/>
    </contour>
    <contour>
      <point x="151.875" y="750" type="line"/>
      <point x="151.875" y="130.817" type="line" smooth="yes"/>
      <point x="151.875" y="56.9144"/>
      <point x="188.722" y="-8.00002"/>
      <point x="246.625" y="-8.00002" type="qcurve"/>
      <point x="246.625" y="39.75" type="line"/>
      <point x="220.625" y="37.7529"/>
      <point x="206.625" y="66.7102"/>
      <point x="206.625" y="111.644" type="qcurve" smooth="yes"/>
      <point x="206.625" y="750" type="line"/>
    </contour>
  </outline>
</glyph>
<glyph name="dotlessj" format="2">
  <advance width="154"/>
  <unicode hex="0237"/>
  <anchor x="78.375" y="500" name="top"/>
  <anchor x="191.25" y="0" name="ced"/>
  <outline>
    <contour>
      <point x="-15" y="-250" type="line"/>
      <point x="105.75" y="-250"/>
      <point x="105.75" y="-65" type="qcurve" smooth="yes"/>
      <point x="105.75" y="500" type="line"/>
      <point x="51" y="500" type="line"/>
      <point x="51" y="-80" type="line" smooth="yes"/>
      <point x="51" y="-206"/>
      <point x="-15" y="-206" type="qcurve"/>
    </contour>
  </outline>
</glyph>
<glyph name="circumflex" format="2">
  <advance width="316"/>
  <unicode hex="02C6"/>
  <anchor x="158" y="700" name="_top"/>
  <outline>
    <contour>
      <point x="49.75" y="750" type="line"/>
      <point x="128.846" y="884" type="line"/>
      <point x="187.154" y="884" type="line"/>
      <point x="266.25" y="750" type="line"/>
      <point x="211.5" y="750" type="line"/>
      <point x="158" y="846" type="line"/>
      <point x="104.5" y="750" type="line"/>
    </contour>
  </outline>
</glyph>
<glyph name="caron" format="2">
  <advance width="316"/>
  <unicode hex="02C7"/>
  <anchor x="158" y="700" name="_top"/>
  <outline>
    <contour>
      <point x="187.154" y="750" type="line"/>
      <point x="262.5" y="884" type="line"/>
      <point x="207.75" y="884" type="line"/>
      <point x="158" y="788" type="line"/>
      <point x="108.25" y="884" type="line"/>
      <point x="53.5" y="884" type="line"/>
      <point x="128.846" y="750" type="line"/>
    </contour>
  </outline>
</glyph>
<glyph name="breve" format="2">
  <advance width="307"/>
  <unicode hex="02D8"/>
  <anchor x="154" y="700" name="_top"/>
  <outline>
    <contour>
      <point x="152.645" y="750" type="qcurve" smooth="yes"/>
      <point x="277" y="750"/>
      <point x="277" y="904" type="qcurve"/>
      <point x="222.25" y="904" type="line"/>
      <point x="222.25" y="794"/>
      <point x="152.645" y="794" type="qcurve" smooth="yes"/>
      <point x="84.75" y="794"/>
      <point x="84.75" y="904" type="qcurve"/>
      <point x="30" y="904" type="line"/>
      <point x="30" y="750"/>
    </contour>
  </outline>
</glyph>
<glyph name="dotaccent" format="2">
  <advance width="60"/>
  <unicode hex="02D9"/>
  <anchor x="30" y="700" name="_top"/>
  <outline>
    <contour>
      <point x="0" y="788.173" type="qcurve" smooth="yes"/>
      <point x="0" y="750"/>
      <point x="30" y="750" type="qcurve" smooth="yes"/>
      <point x="60" y="750"/>
      <point x="60" y="788.173" type="qcurve" smooth="yes"/>
      <point x="60" y="825.75"/>
      <point x="30" y="825.75" type="qcurve" smooth="yes"/>
      <point x="0" y="825.75"/>
    </contour>
  </outline>
</glyph>
<glyph name="ring" format="2">
  <advance width="150"/>
  <unicode hex="02DA"/>
  <anchor x="76" y="700" name="_top"/>
  <outline>
    <contour>
      <point x="15" y="820.551" type="qcurve" smooth="yes"/>
      <point x="15" y="750"/>
      <point x="77.1091" y="750" type="qcurve" smooth="yes"/>
      <point x="137" y="750"/>
      <point x="137" y="820.551" type="qcurve" smooth="yes"/>
      <point x="137" y="890"/>
      <point x="77.1091" y="890" type="qcurve" smooth="yes"/>
      <point x="15" y="890"/>
    </contour>
    <contour>
      <point x="41.369" y="820.5" type="qcurve" smooth="yes"/>
      <point x="41.369" y="862.393"/>
      <point x="76" y="862.393" type="qcurve" smooth="yes"/>
      <point x="110.631" y="862.393"/>
      <point x="110.631" y="820.5" type="qcurve" smooth="yes"/>
      <point x="110.631" y="778.607"/>
      <point x="76" y="778.607" type="qcurve" smooth="yes"/>
      <point x="41.369" y="778.607"/>
    </contour>
  </outline>
</glyph>
